<?xml version="1.0" encoding="UTF-8" standalone="no"?>
<svg
   xmlns:dc="http://purl.org/dc/elements/1.1/"
   xmlns:cc="http://creativecommons.org/ns#"
   xmlns:rdf="http://www.w3.org/1999/02/22-rdf-syntax-ns#"
   xmlns:svg="http://www.w3.org/2000/svg"
   xmlns="http://www.w3.org/2000/svg"
   xmlns:sodipodi="http://sodipodi.sourceforge.net/DTD/sodipodi-0.dtd"
   xmlns:inkscape="http://www.inkscape.org/namespaces/inkscape"
   id="svg42"
   version="1.1"
   height="35.968361"
   width="120.3745"
   sodipodi:docname="asdas.svg"
   inkscape:version="0.92.5 (2060ec1f9f, 2020-04-08)">
  <sodipodi:namedview
     pagecolor="#ffffff"
     bordercolor="#666666"
     borderopacity="1"
     objecttolerance="10"
     gridtolerance="10"
     guidetolerance="10"
     inkscape:pageopacity="0"
     inkscape:pageshadow="2"
     inkscape:window-width="1600"
     inkscape:window-height="850"
     id="namedview42"
     showgrid="false"
     fit-margin-top="0"
     fit-margin-left="0"
     fit-margin-right="0"
     fit-margin-bottom="0"
     inkscape:zoom="2.8833333"
     inkscape:cx="53.930626"
     inkscape:cy="17.96835"
     inkscape:window-x="0"
     inkscape:window-y="0"
     inkscape:window-maximized="1"
     inkscape:current-layer="svg42" />
  <defs
     id="defs46" />
  <metadata
     id="metadata73">image/svg+xmlDownload_on_the_App_Store_Badge_ESMX_RGB_blk_100217<rdf:RDF>
  <cc:Work
     rdf:about="">
    <dc:format>image/svg+xml</dc:format>
    <dc:type
       rdf:resource="http://purl.org/dc/dcmitype/StillImage" />
    <dc:title>Download_on_the_App_Store_Badge_ESMX_RGB_blk_100217</dc:title>
  </cc:Work>
</rdf:RDF>
</metadata>
  <title
     id="title2">Download_on_the_App_Store_Badge_ESMX_RGB_blk_100217</title>
  <g
     id="g40"
     transform="translate(-10e-6,1e-5)">
    <title
       id="title4">Layer 1</title>
    <g
       id="g66"
       stroke="null">
      <g
         id="g33"
         stroke="null">
        <g
           id="g8"
           stroke="null">
          <path
             d="m 7.72952,35.96645 c -0.31103,0 -0.61454,-0.0037 -0.92312,-0.01006 A 12.95137,11.92971 0 0 1 4.89833,35.80302 6.00635,5.53255 0 0 1 3.20709,35.28783 5.51831,5.083 0 0 1 1.78099,34.33191 5.43164,5.00317 0 0 1 0.73923,33.01878 5.84102,5.38026 0 0 1 0.18492,31.46052 12.67204,11.67242 0 0 1 0.01495,29.69746 C 0.00846,29.49915 1e-5,28.83887 1e-5,28.83887 V 7.11743 c 0,0 0.00903,-0.65013 0.015,-0.84114 A 12.62802,11.63187 0 0 1 0.18399,4.51598 5.87537,5.4119 0 0 1 0.73877,2.95311 5.4854,5.05269 0 0 1 1.77505,1.63862 5.68134,5.23317 0 0 1 3.2066,0.67719 5.94436,5.47545 0 0 1 4.89435,0.16573 12.84801,11.83451 0 0 1 6.80892,0.01147 L 7.73003,-1e-5 h 104.90888 l 0.93212,0.01194 a 12.64287,11.64555 0 0 1 1.89711,0.15288 6.06201,5.58381 0 0 1 1.7057,0.51515 5.71024,5.25979 0 0 1 2.4653,2.27545 5.88269,5.41863 0 0 1 0.54635,1.55048 13.26564,12.21919 0 0 1 0.17742,1.77455 c 0.003,0.26629 0.003,0.55233 0.003,0.837 0.008,0.35261 0.008,0.68823 0.008,1.02661 v 19.67921 c 0,0.34161 0,0.67495 -0.008,1.01102 0,0.30579 0,0.5859 -0.004,0.87419 a 12.99641,11.97119 0 0 1 -0.17445,1.74285 5.85853,5.39638 0 0 1 -0.55125,1.5703 5.59442,5.15311 0 0 1 -1.03675,1.30298 5.52563,5.08975 0 0 1 -1.42855,0.96145 5.98376,5.51173 0 0 1 -1.70273,0.51698 12.80339,11.7934 0 0 1 -1.90813,0.15336 c -0.299,0.0064 -0.61209,0.01006 -0.91609,0.01006 l -1.10658,0.0019 -103.80814,-0.0019 z"
             id="path6"
             stroke="null"
             inkscape:connector-curvature="0"
             style="stroke-width:1.44366002" />
        </g>
        <g
           id="_Group_"
           data-name="&lt;Group&gt;"
           transform="matrix(0.937896,0,0,0.937896,-4.37642,-18.7043)"
           stroke="null">
          <g
             id="_Group_2"
             data-name="&lt;Group&gt;"
             stroke="null">
            <g
               id="_Group_3"
               data-name="&lt;Group&gt;"
               stroke="null">
              <path
                 id="_Path_"
                 data-name="&lt;Path&gt;"
                 d="m 32.51621,38.67499 a 4.94881,4.94881 0 0 1 2.35656,-4.15206 5.06566,5.06566 0 0 0 -3.99116,-2.15768 c -1.67924,-0.17626 -3.30719,1.00483 -4.1629,1.00483 -0.87227,0 -2.18977,-0.98733 -3.6085,-0.95814 a 5.31529,5.31529 0 0 0 -4.47292,2.72787 c -1.934,3.34842 -0.49141,8.26947 1.3612,10.97608 0.9269,1.32535 2.01018,2.8058 3.42763,2.7533 1.38706,-0.05753 1.9051,-0.88448 3.5794,-0.88448 1.65876,0 2.14479,0.88448 3.591,0.8511 1.48838,-0.02416 2.42613,-1.33124 3.32051,-2.66914 a 10.962,10.962 0 0 0 1.51842,-3.09251 4.78205,4.78205 0 0 1 -2.91924,-4.39917 z"
                 stroke="null"
                 inkscape:connector-curvature="0"
                 style="fill:#ffffff" />
              <path
                 id="_Path_2"
                 data-name="&lt;Path&gt;"
                 d="m 29.78458,30.5852 a 4.87248,4.87248 0 0 0 1.11452,-3.49062 4.95746,4.95746 0 0 0 -3.20758,1.65961 4.63634,4.63634 0 0 0 -1.14371,3.36139 4.09905,4.09905 0 0 0 3.23677,-1.53038 z"
                 stroke="null"
                 inkscape:connector-curvature="0"
                 style="fill:#ffffff" />
            </g>
          </g>
          <g
             id="g30"
             stroke="null">
            <path
               d="m 50.0496,45.51396 h -4.7334 l -1.13672,3.35645 H 42.1746 l 4.4834,-12.418 h 2.083 l 4.4834,12.418 h -2.03907 z m -4.24317,-1.54883 h 3.752 l -1.84961,-5.44727 h -0.05176 z"
               id="path14"
               stroke="null"
               inkscape:connector-curvature="0"
               style="fill:#ffffff" />
            <path
               d="m 62.90702,44.34404 c 0,2.81348 -1.50586,4.62109 -3.77832,4.62109 a 3.0693,3.0693 0 0 1 -2.84863,-1.584 h -0.043 v 4.48438 h -1.8584 V 39.81669 h 1.79886 v 1.50586 h 0.03418 a 3.21162,3.21162 0 0 1 2.88281,-1.60059 c 2.29781,10e-6 3.8125,1.81641 3.8125,4.62208 z m -1.91016,0 c 0,-1.833 -0.94727,-3.03809 -2.39258,-3.03809 -1.41992,0 -2.375,1.23047 -2.375,3.03809 0,1.82422 0.95508,3.0459 2.375,3.0459 1.44532,0 2.39258,-1.19629 2.39258,-3.0459 z"
               id="path16"
               stroke="null"
               inkscape:connector-curvature="0"
               style="fill:#ffffff" />
            <path
               d="m 72.87186,44.34404 c 0,2.81348 -1.50586,4.62109 -3.77832,4.62109 a 3.0693,3.0693 0 0 1 -2.84863,-1.584 h -0.043 v 4.48438 h -1.8584 V 39.81669 h 1.79882 v 1.50586 h 0.03418 a 3.21162,3.21162 0 0 1 2.88282,-1.60058 c 2.29788,0 3.81253,1.8164 3.81253,4.62207 z m -1.91016,0 c 0,-1.833 -0.94727,-3.03809 -2.39258,-3.03809 -1.41992,0 -2.375,1.23047 -2.375,3.03809 0,1.82422 0.95508,3.0459 2.375,3.0459 1.44532,0 2.39259,-1.19629 2.39259,-3.0459 z"
               id="path18"
               stroke="null"
               inkscape:connector-curvature="0"
               style="fill:#ffffff" />
            <path
               d="m 79.4578,45.41044 c 0.1377,1.23145 1.334,2.04 2.96875,2.04 1.56641,0 2.69336,-0.80859 2.69336,-1.91895 0,-0.96387 -0.67969,-1.541 -2.28906,-1.93652 l -1.60937,-0.3877 c -2.28027,-0.55078 -3.33887,-1.61719 -3.33887,-3.34766 0,-2.14258 1.86719,-3.61426 4.51855,-3.61426 2.624,0 4.42285,1.47168 4.4834,3.61426 h -1.876 c -0.1123,-1.23926 -1.13672,-1.9873 -2.63379,-1.9873 -1.49707,0 -2.52148,0.75684 -2.52148,1.8584 0,0.87793 0.6543,1.39453 2.25488,1.79 l 1.36816,0.33594 c 2.54785,0.60254 3.60645,1.626 3.60645,3.44238 0,2.32324 -1.85059,3.77832 -4.79395,3.77832 -2.75391,0 -4.61328,-1.4209 -4.7334,-3.667 z"
               id="path20"
               stroke="null"
               inkscape:connector-curvature="0"
               style="fill:#ffffff" />
            <path
               d="m 91.09354,37.67411 v 2.14258 h 1.72168 v 1.47168 h -1.72168 v 4.99121 c 0,0.77539 0.34473,1.13672 1.10156,1.13672 a 5.80752,5.80752 0 0 0 0.61133,-0.043 v 1.46289 a 5.10351,5.10351 0 0 1 -1.03223,0.08594 c -1.833,0 -2.54785,-0.68848 -2.54785,-2.44434 v -5.18942 h -1.3164 v -1.47168 h 1.31638 v -2.14258 z"
               id="path22"
               stroke="null"
               inkscape:connector-curvature="0"
               style="fill:#ffffff" />
            <path
               d="m 93.81233,44.34404 c 0,-2.84863 1.67773,-4.63867 4.29395,-4.63867 2.625,0 4.29492,1.79 4.29492,4.63867 0,2.85645 -1.66113,4.63867 -4.29492,4.63867 -2.63286,0 -4.29395,-1.78223 -4.29395,-4.63867 z m 6.69531,0 c 0,-1.9541 -0.89551,-3.10742 -2.40137,-3.10742 -1.50586,0 -2.40039,1.16211 -2.40039,3.10742 0,1.96191 0.89453,3.10645 2.40039,3.10645 1.50586,0 2.40133,-1.14454 2.40133,-3.10645 z"
               id="path24"
               stroke="null"
               inkscape:connector-curvature="0"
               style="fill:#ffffff" />
            <path
               d="m 103.93339,39.81669 h 1.77246 v 1.541 h 0.043 a 2.1594,2.1594 0 0 1 2.17773,-1.63574 2.86616,2.86616 0 0 1 0.63672,0.06934 v 1.73828 a 2.59794,2.59794 0 0 0 -0.835,-0.1123 1.87264,1.87264 0 0 0 -1.93652,2.083 v 5.37012 h -1.8584 z"
               id="path26"
               stroke="null"
               inkscape:connector-curvature="0"
               style="fill:#ffffff" />
            <path
               d="m 117.13163,46.21122 c -0.25,1.64355 -1.85059,2.77148 -3.89844,2.77148 -2.63379,0 -4.26855,-1.76465 -4.26855,-4.5957 0,-2.83984 1.64355,-4.68164 4.19043,-4.68164 2.50488,0 4.08008,1.7207 4.08008,4.46582 v 0.63672 h -6.39453 v 0.1123 a 2.358,2.358 0 0 0 2.43555,2.56445 2.04834,2.04834 0 0 0 2.09082,-1.27344 z m -6.28223,-2.70215 h 4.52637 a 2.1773,2.1773 0 0 0 -2.2207,-2.29785 2.292,2.292 0 0 0 -2.30567,2.29786 z"
               id="path28"
               stroke="null"
               inkscape:connector-curvature="0"
               style="fill:#ffffff" />
          </g>
        </g>
      </g>
      <g
         id="_Group_4"
         data-name="&lt;Group&gt;"
         transform="matrix(0.937896,0,0,0.937896,-4.37642,-18.7043)"
         stroke="null">
        <g
           id="g63"
           stroke="null">
          <path
             d="m 45.57352,27.10531 a 2.63964,2.63964 0 0 1 2.80762,2.96484 c 0,1.90625 -1.03027,3.002 -2.80762,3.002 h -2.15527 v -5.96684 z m -1.22852,5.123 h 1.125 a 1.87588,1.87588 0 0 0 1.96777,-2.146 A 1.881,1.881 0 0 0 45.47,27.94852 h -1.125 z"
             id="path35"
             stroke="null"
             inkscape:connector-curvature="0"
             style="fill:#ffffff" />
          <path
             d="m 53.45926,31.85624 a 1.828,1.828 0 0 1 -1.95117,1.30273 2.04531,2.04531 0 0 1 -2.08008,-2.32422 2.07685,2.07685 0 0 1 2.07617,-2.35254 c 1.25293,0 2.00879,0.856 2.00879,2.27 v 0.3101 h -3.17964 v 0.0498 a 1.1902,1.1902 0 0 0 1.19922,1.29 1.07934,1.07934 0 0 0 1.07129,-0.5459 z m -3.126,-1.45117 h 2.27441 a 1.08647,1.08647 0 0 0 -1.1084,-1.1665 1.15162,1.15162 0 0 0 -1.16594,1.1665 z"
             id="path37"
             stroke="null"
             inkscape:connector-curvature="0"
             style="fill:#ffffff" />
          <path
             d="m 56.35184,28.48222 c 1.0127,0 1.6748,0.47119 1.76172,1.26514 h -0.85254 c -0.082,-0.33057 -0.40527,-0.5415 -0.90918,-0.5415 -0.49609,0 -0.873,0.23535 -0.873,0.58691 0,0.269 0.22754,0.43848 0.71582,0.55029 l 0.748,0.17334 c 0.85645,0.19873 1.25781,0.56689 1.25781,1.22852 0,0.84766 -0.79,1.41406 -1.86523,1.41406 -1.07129,0 -1.76953,-0.48389 -1.84863,-1.28174 h 0.88965 a 0.91365,0.91365 0 0 0 0.97949,0.562 c 0.55371,0 0.94727,-0.248 0.94727,-0.60791 0,-0.26855 -0.21094,-0.44238 -0.66211,-0.5498 L 55.85575,31.0994 c -0.85645,-0.20264 -1.25293,-0.58691 -1.25293,-1.25684 0,-0.79833 0.73144,-1.36034 1.74902,-1.36034 z"
             id="path39"
             stroke="null"
             inkscape:connector-curvature="0"
             style="fill:#ffffff" />
          <path
             d="M 62.34598,30.04081 A 1.00546,1.00546 0 0 0 61.2825,29.27616 c -0.74414,0 -1.19922,0.57031 -1.19922,1.52979 0,0.97607 0.459,1.55908 1.19922,1.55908 a 0.97873,0.97873 0 0 0 1.06348,-0.74023 h 0.86426 a 1.762,1.762 0 0 1 -1.92285,1.53418 2.06791,2.06791 0 0 1 -2.11328,-2.353 2.05305,2.05305 0 0 1 2.1084,-2.32373 1.77731,1.77731 0 0 1 1.92773,1.55859 z"
             id="path41"
             stroke="null"
             inkscape:connector-curvature="0"
             style="fill:#ffffff" />
          <path
             d="m 64.09208,31.79863 c 0,-0.81055 0.60352,-1.27783 1.6748,-1.34424 l 1.21973,-0.07031 v -0.38867 c 0,-0.47559 -0.31445,-0.74414 -0.92187,-0.74414 -0.49609,0 -0.83984,0.18213 -0.93848,0.50049 h -0.86035 c 0.09082,-0.77344 0.81836,-1.26953 1.83984,-1.26953 1.12891,0 1.76563,0.562 1.76563,1.51318 v 3.07666 H 67.01591 V 32.43926 H 66.9456 a 1.515,1.515 0 0 1 -1.35254,0.707 1.36026,1.36026 0 0 1 -1.50098,-1.34763 z m 2.89453,-0.38477 V 31.0374 L 65.887,31.10771 c -0.62012,0.0415 -0.90137,0.25244 -0.90137,0.64941 0,0.40527 0.35156,0.64111 0.835,0.64111 a 1.0615,1.0615 0 0 0 1.16598,-0.98437 z m -1.41406,-3.59766 1.03808,-1.42236 h 1.042 l -1.16212,1.42236 z"
             id="path43"
             stroke="null"
             inkscape:connector-curvature="0"
             style="fill:#ffffff" />
          <path
             d="m 69.26298,28.56913 h 0.85547 v 0.69043 h 0.06641 a 1.22092,1.22092 0 0 1 1.21582,-0.76514 1.86836,1.86836 0 0 1 0.39648,0.03711 v 0.877 a 2.43442,2.43442 0 0 0 -0.49609,-0.05371 1.05507,1.05507 0 0 0 -1.14941,1.05859 v 2.65869 h -0.88867 z"
             id="path45"
             stroke="null"
             inkscape:connector-curvature="0"
             style="fill:#ffffff" />
          <path
             d="m 72.61356,33.52275 h 0.90967 c 0.0752,0.32666 0.45117,0.5376 1.05078,0.5376 0.74023,0 1.17871,-0.35156 1.17871,-0.94678 v -0.86426 h -0.06639 a 1.51433,1.51433 0 0 1 -1.38965,0.75635 c -1.14941,0 -1.86084,-0.88867 -1.86084,-2.23682 0,-1.373 0.71924,-2.27441 1.86963,-2.27441 a 1.56045,1.56045 0 0 1 1.41406,0.79395 h 0.07031 v -0.71924 h 0.85156 v 4.54 c 0,1.02979 -0.80664,1.68311 -2.08008,1.68311 -1.12499,6e-5 -1.85299,-0.50437 -1.94776,-1.2695 z m 3.15576,-2.7583 c 0,-0.897 -0.46387,-1.47168 -1.2207,-1.47168 -0.76465,0 -1.19434,0.57471 -1.19434,1.47168 0,0.89746 0.42969,1.47217 1.19434,1.47217 0.76171,-1e-5 1.22071,-0.57031 1.22071,-1.47217 z"
             id="path47"
             stroke="null"
             inkscape:connector-curvature="0"
             style="fill:#ffffff" />
          <path
             d="m 77.80057,31.79863 c 0,-0.81055 0.60352,-1.27783 1.6748,-1.34424 l 1.21973,-0.07031 v -0.38867 c 0,-0.47559 -0.31445,-0.74414 -0.92187,-0.74414 -0.49609,0 -0.83984,0.18213 -0.93848,0.50049 H 77.9744 c 0.09082,-0.77344 0.81836,-1.26953 1.83984,-1.26953 1.12891,0 1.76563,0.562 1.76563,1.51318 v 3.07666 H 80.7244 v -0.63281 h -0.07031 a 1.515,1.515 0 0 1 -1.35254,0.707 1.36026,1.36026 0 0 1 -1.50098,-1.34763 z M 80.6951,31.41386 V 31.0374 l -1.09961,0.07031 c -0.62012,0.0415 -0.90137,0.25244 -0.90137,0.64941 0,0.40527 0.35156,0.64111 0.835,0.64111 a 1.0615,1.0615 0 0 0 1.16598,-0.98437 z"
             id="path49"
             stroke="null"
             inkscape:connector-curvature="0"
             style="fill:#ffffff" />
          <path
             d="m 83.01249,26.81131 h 0.88867 v 6.26074 h -0.88867 z"
             id="path51"
             stroke="null"
             inkscape:connector-curvature="0"
             style="fill:#ffffff" />
          <path
             d="m 85.13651,30.81865 a 2.13323,2.13323 0 1 1 4.24707,0 2.13358,2.13358 0 1 1 -4.24707,0 z m 3.333,0 c 0,-0.97607 -0.43848,-1.54687 -1.208,-1.54687 -0.77246,0 -1.207,0.5708 -1.207,1.54688 0,0.98389 0.43457,1.55029 1.207,1.55029 0.76953,-10e-6 1.20801,-0.57032 1.20801,-1.5503 z"
             id="path53"
             stroke="null"
             inkscape:connector-curvature="0"
             style="fill:#ffffff" />
          <path
             d="m 96.82694,31.85624 a 1.828,1.828 0 0 1 -1.95117,1.30273 2.04531,2.04531 0 0 1 -2.08008,-2.32422 2.07685,2.07685 0 0 1 2.07617,-2.35254 c 1.25293,0 2.00879,0.856 2.00879,2.27 v 0.3101 h -3.17969 v 0.0498 a 1.1902,1.1902 0 0 0 1.19922,1.29 1.07934,1.07934 0 0 0 1.07129,-0.5459 z m -3.126,-1.45117 h 2.27439 a 1.08647,1.08647 0 0 0 -1.1084,-1.1665 1.15162,1.15162 0 0 0 -1.16597,1.1665 z"
             id="path55"
             stroke="null"
             inkscape:connector-curvature="0"
             style="fill:#ffffff" />
          <path
             d="m 98.07401,28.56913 h 0.85547 v 0.71533 h 0.06641 a 1.348,1.348 0 0 1 1.34375,-0.80225 1.46456,1.46456 0 0 1 1.55859,1.6748 v 2.915 h -0.88867 v -2.69184 c 0,-0.72363 -0.31445,-1.0835 -0.97168,-1.0835 a 1.03294,1.03294 0 0 0 -1.0752,1.14111 v 2.63428 h -0.88867 z"
             id="path57"
             stroke="null"
             inkscape:connector-curvature="0"
             style="fill:#ffffff" />
          <path
             d="m 109.52323,31.85624 a 1.828,1.828 0 0 1 -1.95117,1.30273 2.04531,2.04531 0 0 1 -2.08008,-2.32422 2.07685,2.07685 0 0 1 2.07617,-2.35254 c 1.25293,0 2.00879,0.856 2.00879,2.27 v 0.3101 h -3.17969 v 0.0498 a 1.1902,1.1902 0 0 0 1.19922,1.29 1.07934,1.07934 0 0 0 1.07129,-0.5459 z m -3.126,-1.45117 h 2.27441 a 1.08647,1.08647 0 0 0 -1.1084,-1.1665 1.15162,1.15162 0 0 0 -1.16599,1.1665 z"
             id="path59"
             stroke="null"
             inkscape:connector-curvature="0"
             style="fill:#ffffff" />
          <path
             d="M 110.81133,26.81131 H 111.7 v 6.26074 h -0.88867 z"
             id="path61"
             stroke="null"
             inkscape:connector-curvature="0"
             style="fill:#ffffff" />
        </g>
      </g>
    </g>
  </g>
</svg>
