<?xml version="1.0" encoding="UTF-8"?>
<svg version="1.1" viewBox="0 0 180 53.334" xmlns="http://www.w3.org/2000/svg" xmlns:cc="http://creativecommons.org/ns#" xmlns:dc="http://purl.org/dc/elements/1.1/" xmlns:rdf="http://www.w3.org/1999/02/22-rdf-syntax-ns#">
 <metadata>
  <rdf:RDF>
   <cc:Work rdf:about="">
    <dc:format>image/svg+xml</dc:format>
    <dc:type rdf:resource="http://purl.org/dc/dcmitype/StillImage"/>
   </cc:Work>
  </rdf:RDF>
 </metadata>
 <defs>
  <clipPath id="clipPath18">
   <path d="m0 60h155v-60h-155z"/>
  </clipPath>
  <linearGradient id="linearGradient68" x2="1" gradientTransform="matrix(-16.782 -16.782 16.782 -16.782 31.8 41.29)" gradientUnits="userSpaceOnUse">
   <stop stop-color="#00a0ff" offset="0"/>
   <stop stop-color="#00a1ff" offset=".0065744"/>
   <stop stop-color="#00beff" offset=".2601"/>
   <stop stop-color="#00d2ff" offset=".5122"/>
   <stop stop-color="#00dfff" offset=".7604"/>
   <stop stop-color="#00e3ff" offset="1"/>
  </linearGradient>
  <linearGradient id="linearGradient92" x2="1" gradientTransform="matrix(-24.197 0 0 -24.197 43.834 29.999)" gradientUnits="userSpaceOnUse">
   <stop stop-color="#ffe000" offset="0"/>
   <stop stop-color="#ffbd00" offset=".4087"/>
   <stop stop-color="#ffa500" offset=".7754"/>
   <stop stop-color="#ff9c00" offset="1"/>
  </linearGradient>
  <linearGradient id="linearGradient112" x2="1" gradientTransform="matrix(-22.758 -22.758 22.758 -22.758 34.827 27.704)" gradientUnits="userSpaceOnUse">
   <stop stop-color="#ff3a44" offset="0"/>
   <stop stop-color="#c31162" offset="1"/>
  </linearGradient>
  <linearGradient id="linearGradient138" x2="1" gradientTransform="matrix(10.163 -10.163 10.163 10.163 17.297 49.824)" gradientUnits="userSpaceOnUse">
   <stop stop-color="#32a071" offset="0"/>
   <stop stop-color="#2da771" offset=".0685"/>
   <stop stop-color="#15cf74" offset=".4762"/>
   <stop stop-color="#06e775" offset=".8009"/>
   <stop stop-color="#00f076" offset="1"/>
  </linearGradient>
  <clipPath id="clipPath148">
   <path d="m0 60h155v-60h-155z"/>
  </clipPath>
  <clipPath id="clipPath156">
   <path d="m20.435 25.868h16.686v-8.7294h-16.686z"/>
  </clipPath>
  <clipPath id="clipPath172">
   <path d="m19.973 19.087h0.5373v-1.551h-0.5373z"/>
  </clipPath>
  <clipPath id="clipPath188">
   <path d="m37.029 29.999h6.0342v-4.2235h-6.0342z"/>
  </clipPath>
  <clipPath id="clipPath204">
   <path d="m19.973 42.86h23.09v-12.86h-23.09z"/>
  </clipPath>
 </defs>
 <g transform="matrix(1.3333 0 0 -1.3333 -13.333 66.667)">
  <g clip-path="url(#clipPath18)">
   <g transform="translate(140 10)">
    <path d="m0 0h-125c-2.75 0-5 2.25-5 5v30c0 2.75 2.25 5 5 5h125c2.75 0 5-2.25 5-5v-30c0-2.75-2.25-5-5-5" fill="#000000"/>
   </g>
   <g transform="translate(140 50)">
    <path d="m0 0h-125c-2.75 0-5-2.25-5-5v-30c0-2.75 2.25-5 5-5h125c2.75 0 5 2.25 5 5v30c0 2.75-2.25 5-5 5m0-0.8c2.316 0 4.2-1.884 4.2-4.2v-30c0-2.316-1.884-4.2-4.2-4.2h-125c-2.316 0-4.2 1.884-4.2 4.2v30c0 2.316 1.884 4.2 4.2 4.2h125" fill="none"/>
   </g>
   <path d="m116.94 20h1.866v12.501h-1.866zm16.807 7.998-2.139-5.42h-0.064l-2.22 5.42h-2.01l3.329-7.575-1.897-4.214h1.945l5.131 11.789zm-10.582-6.578c-0.612 0-1.464 0.305-1.464 1.062 0 0.964 1.061 1.334 1.978 1.334 0.82 0 1.207-0.177 1.705-0.418-0.145-1.158-1.142-1.978-2.219-1.978m0.225 6.851c-1.351 0-2.751-0.595-3.329-1.914l1.656-0.691c0.354 0.691 1.013 0.917 1.705 0.917 0.965 0 1.946-0.579 1.962-1.609v-0.128c-0.338 0.193-1.061 0.482-1.946 0.482-1.785 0-3.603-0.981-3.603-2.814 0-1.673 1.464-2.751 3.104-2.751 1.255 0 1.947 0.563 2.381 1.223h0.064v-0.965h1.801v4.793c0 2.219-1.656 3.457-3.795 3.457m-11.532-1.795h-2.654v4.285h2.654c1.395 0 2.187-1.155 2.187-2.142 0-0.969-0.792-2.143-2.187-2.143m-0.048 6.025h-4.471v-12.501h1.865v4.736h2.606c2.068 0 4.101 1.498 4.101 3.883s-2.033 3.882-4.101 3.882m-24.381-11.083c-1.289 0-2.368 1.079-2.368 2.561 0 1.498 1.079 2.594 2.368 2.594 1.273 0 2.271-1.096 2.271-2.594 0-1.482-0.998-2.561-2.271-2.561m2.143 5.88h-0.065c-0.419 0.499-1.224 0.95-2.239 0.95-2.127 0-4.076-1.868-4.076-4.269 0-2.384 1.949-4.237 4.076-4.237 1.015 0 1.82 0.451 2.239 0.967h0.065v-0.613c0-1.627-0.87-2.497-2.272-2.497-1.144 0-1.853 0.822-2.143 1.515l-1.627-0.677c0.467-1.128 1.708-2.513 3.77-2.513 2.191 0 4.044 1.289 4.044 4.43v7.637h-1.772zm3.061-7.298h1.869v12.502h-1.869zm4.623 4.124c-0.048 1.643 1.273 2.481 2.223 2.481 0.742 0 1.37-0.37 1.579-0.902zm5.8 1.418c-0.354 0.95-1.434 2.706-3.641 2.706-2.191 0-4.011-1.723-4.011-4.253 0-2.384 1.804-4.253 4.22-4.253 1.95 0 3.078 1.192 3.545 1.885l-1.45 0.967c-0.483-0.709-1.144-1.176-2.095-1.176-0.95 0-1.627 0.435-2.062 1.288l5.687 2.353zm-45.308 1.401v-1.804h4.317c-0.129-1.015-0.467-1.756-0.982-2.271-0.629-0.629-1.612-1.322-3.335-1.322-2.659 0-4.737 2.143-4.737 4.801 0 2.659 2.078 4.801 4.737 4.801 1.434 0 2.481-0.564 3.254-1.289l1.273 1.273c-1.08 1.031-2.513 1.821-4.527 1.821-3.641 0-6.702-2.965-6.702-6.606s3.061-6.605 6.702-6.605c1.965 0 3.447 0.645 4.607 1.853 1.193 1.192 1.563 2.867 1.563 4.221 0 0.419-0.032 0.805-0.097 1.127zm11.079-5.525c-1.289 0-2.401 1.063-2.401 2.577 0 1.531 1.112 2.578 2.401 2.578 1.288 0 2.4-1.047 2.4-2.578 0-1.514-1.112-2.577-2.4-2.577m0 6.83c-2.353 0-4.27-1.788-4.27-4.253 0-2.449 1.917-4.253 4.27-4.253 2.352 0 4.269 1.804 4.269 4.253 0 2.465-1.917 4.253-4.269 4.253m9.313-6.83c-1.289 0-2.401 1.063-2.401 2.577 0 1.531 1.112 2.578 2.401 2.578s2.4-1.047 2.4-2.578c0-1.514-1.111-2.577-2.4-2.577m0 6.83c-2.352 0-4.269-1.788-4.269-4.253 0-2.449 1.917-4.253 4.269-4.253s4.269 1.804 4.269 4.253c0 2.465-1.917 4.253-4.269 4.253" fill="#ffffff"/>
  </g>
  <path d="m20.435 42.462c-0.29-0.308-0.462-0.786-0.462-1.405v-22.116c0-0.62 0.172-1.097 0.462-1.405l0.074-0.072 12.39 12.389v0.293l-12.39 12.389z" fill="url(#linearGradient68)"/>
  <path d="m32.899 30.146v-0.293l4.129-4.132 0.094 0.053 4.893 2.78c1.397 0.795 1.397 2.095 0 2.888l-4.893 2.781-0.093 0.053z" fill="url(#linearGradient92)"/>
  <path d="m20.435 17.536c0.461-0.487 1.222-0.548 2.079-0.062l14.608 8.301-4.223 4.224z" fill="url(#linearGradient112)"/>
  <path d="m20.435 42.462 12.464-12.463 4.223 4.224-14.608 8.3c-0.402 0.229-0.783 0.337-1.121 0.337-0.384 0-0.713-0.139-0.958-0.398" fill="url(#linearGradient138)"/>
  <g clip-path="url(#clipPath148)">
   <g clip-path="url(#clipPath156)" opacity=".2">
    <g transform="translate(37.029 25.868)">
     <path d="m0 0-14.515-8.247c-0.812-0.462-1.538-0.431-2.004-0.011l-0.074-0.075 0.074-0.072v1e-3c0.466-0.42 1.192-0.451 2.004 0.011l14.608 8.3z" fill="#000000"/>
    </g>
   </g>
   <g clip-path="url(#clipPath172)" opacity=".12">
    <g transform="translate(20.435 17.682)">
     <path d="m0 0c-0.291 0.308-0.463 0.786-0.463 1.405v-0.146c0-0.619 0.172-1.097 0.463-1.405l0.075 0.074z" fill="#000000"/>
    </g>
   </g>
   <g clip-path="url(#clipPath188)" opacity=".12">
    <g transform="translate(42.015 28.701)">
     <path d="M 0,0 -4.986,-2.833 -4.893,-2.926 0,-0.146 C 0.699,0.251 1.048,0.774 1.048,1.297 0.989,0.824 0.634,0.36 0,0" fill="#000000"/>
    </g>
   </g>
   <g clip-path="url(#clipPath204)" opacity=".25">
    <g transform="translate(22.514 42.377)">
     <path d="m0 0 19.501-11.08c0.634-0.36 0.99-0.824 1.048-1.298 1e-3 0.523-0.349 1.047-1.048 1.444l-19.501 11.08c-1.398 0.794-2.541 0.135-2.541-1.466v-0.146c0 1.6 1.143 2.26 2.541 1.466" fill="#ffffff"/>
    </g>
   </g>
   <g transform="translate(52.051 37.737)">
    <path d="m0 0h1.064c0.693 0 1.242 0.198 1.647 0.595s0.607 0.953 0.607 1.668c0 0.709-0.202 1.263-0.607 1.663-0.405 0.399-0.954 0.599-1.647 0.599h-1.064zm-0.77-0.737v6h1.834c0.922 0 1.66-0.278 2.213-0.834s0.829-1.278 0.829-2.166c0-0.889-0.276-1.611-0.829-2.166-0.553-0.557-1.291-0.834-2.213-0.834z" fill="#ffffff"/>
   </g>
   <g transform="translate(52.051 37.737)">
    <path d="m0 0h1.064c0.693 0 1.242 0.198 1.647 0.595s0.607 0.953 0.607 1.668c0 0.709-0.202 1.263-0.607 1.663-0.405 0.399-0.954 0.599-1.647 0.599h-1.064zm-0.77-0.737v6h1.834c0.922 0 1.66-0.278 2.213-0.834s0.829-1.278 0.829-2.166c0-0.889-0.276-1.611-0.829-2.166-0.553-0.557-1.291-0.834-2.213-0.834z" fill="none" stroke="#ffffff" stroke-miterlimit="10" stroke-width=".2"/>
   </g>
   <path d="m57.239 43h0.771v-6h-0.771z" fill="#ffffff" stroke="#ffffff" stroke-miterlimit="10" stroke-width=".2"/>
   <g transform="translate(61.076 36.866)">
    <path d="m0 0c-0.436 0-0.861 0.142-1.277 0.427-0.417 0.285-0.69 0.684-0.818 1.199l0.704 0.284c0.084-0.329 0.255-0.607 0.515-0.833 0.261-0.226 0.552-0.34 0.876-0.34 0.335 0 0.622 0.088 0.859 0.264 0.238 0.176 0.356 0.415 0.356 0.717 0 0.335-0.118 0.593-0.356 0.775-0.237 0.181-0.613 0.35-1.127 0.507-0.531 0.167-0.933 0.384-1.207 0.649-0.273 0.266-0.411 0.605-0.411 1.019 0 0.43 0.171 0.804 0.512 1.122s0.785 0.478 1.332 0.478c0.509 0 0.922-0.127 1.24-0.381 0.319-0.255 0.526-0.532 0.62-0.834l-0.703-0.293c-0.051 0.189-0.175 0.366-0.373 0.528-0.198 0.161-0.454 0.242-0.767 0.242-0.296 0-0.549-0.082-0.758-0.247-0.21-0.165-0.315-0.37-0.315-0.615 0-0.224 0.097-0.413 0.289-0.566 0.194-0.154 0.477-0.292 0.851-0.415 0.296-0.095 0.543-0.187 0.742-0.277 0.198-0.089 0.4-0.208 0.603-0.356 0.204-0.148 0.357-0.332 0.461-0.553 0.103-0.221 0.155-0.476 0.155-0.767 0-0.29-0.06-0.55-0.18-0.779s-0.28-0.411-0.478-0.545c-0.199-0.134-0.411-0.236-0.641-0.305-0.229-0.07-0.464-0.105-0.704-0.105" fill="#ffffff"/>
   </g>
   <g transform="translate(61.076 36.866)">
    <path d="m0 0c-0.436 0-0.861 0.142-1.277 0.427-0.417 0.285-0.69 0.684-0.818 1.199l0.704 0.284c0.084-0.329 0.255-0.607 0.515-0.833 0.261-0.226 0.552-0.34 0.876-0.34 0.335 0 0.622 0.088 0.859 0.264 0.238 0.176 0.356 0.415 0.356 0.717 0 0.335-0.118 0.593-0.356 0.775-0.237 0.181-0.613 0.35-1.127 0.507-0.531 0.167-0.933 0.384-1.207 0.649-0.273 0.266-0.411 0.605-0.411 1.019 0 0.43 0.171 0.804 0.512 1.122s0.785 0.478 1.332 0.478c0.509 0 0.922-0.127 1.24-0.381 0.319-0.255 0.526-0.532 0.62-0.834l-0.703-0.293c-0.051 0.189-0.175 0.366-0.373 0.528-0.198 0.161-0.454 0.242-0.767 0.242-0.296 0-0.549-0.082-0.758-0.247-0.21-0.165-0.315-0.37-0.315-0.615 0-0.224 0.097-0.413 0.289-0.566 0.194-0.154 0.477-0.292 0.851-0.415 0.296-0.095 0.543-0.187 0.742-0.277 0.198-0.089 0.4-0.208 0.603-0.356 0.204-0.148 0.357-0.332 0.461-0.553 0.103-0.221 0.155-0.476 0.155-0.767 0-0.29-0.06-0.55-0.18-0.779s-0.28-0.411-0.478-0.545c-0.199-0.134-0.411-0.236-0.641-0.305-0.229-0.07-0.464-0.105-0.704-0.105z" fill="none" stroke="#ffffff" stroke-miterlimit="10" stroke-width=".2"/>
   </g>
   <g transform="translate(64.956 40.168)">
    <path d="m0 0h1.291c0.324 0 0.584 0.108 0.779 0.326 0.196 0.218 0.293 0.458 0.293 0.721s-0.097 0.503-0.293 0.721c-0.195 0.218-0.455 0.327-0.779 0.327h-1.291zm0-3.168h-0.771v6h2.045c0.508 0 0.949-0.169 1.32-0.507 0.372-0.338 0.557-0.764 0.557-1.278s-0.185-0.94-0.557-1.277c-0.371-0.339-0.812-0.508-1.32-0.508h-1.274z" fill="#ffffff"/>
   </g>
   <g transform="translate(64.956 40.168)">
    <path d="m0 0h1.291c0.324 0 0.584 0.108 0.779 0.326 0.196 0.218 0.293 0.458 0.293 0.721s-0.097 0.503-0.293 0.721c-0.195 0.218-0.455 0.327-0.779 0.327h-1.291zm0-3.168h-0.771v6h2.045c0.508 0 0.949-0.169 1.32-0.507 0.372-0.338 0.557-0.764 0.557-1.278s-0.185-0.94-0.557-1.277c-0.371-0.339-0.812-0.508-1.32-0.508h-1.274z" fill="none" stroke="#ffffff" stroke-miterlimit="10" stroke-width=".2"/>
   </g>
   <g transform="translate(70.155 38.278)">
    <path d="m0 0c0.444-0.45 0.987-0.674 1.63-0.674 0.642 0 1.186 0.224 1.63 0.674s0.667 1.024 0.667 1.722-0.223 1.273-0.667 1.722c-0.444 0.45-0.988 0.675-1.63 0.675-0.643 0-1.186-0.225-1.63-0.675-0.443-0.449-0.666-1.024-0.666-1.722s0.223-1.272 0.666-1.722m3.83-0.502c-0.59-0.607-1.323-0.91-2.2-0.91s-1.61 0.303-2.199 0.91c-0.59 0.606-0.884 1.347-0.884 2.224s0.294 1.619 0.884 2.225c0.589 0.606 1.322 0.91 2.199 0.91 0.872 0 1.603-0.305 2.196-0.914 0.592-0.609 0.888-1.349 0.888-2.221 0-0.877-0.295-1.618-0.884-2.224" fill="#ffffff"/>
   </g>
   <g transform="translate(70.155 38.278)">
    <path d="m0 0c0.444-0.45 0.987-0.674 1.63-0.674 0.642 0 1.186 0.224 1.63 0.674s0.667 1.024 0.667 1.722-0.223 1.273-0.667 1.722c-0.444 0.45-0.988 0.675-1.63 0.675-0.643 0-1.186-0.225-1.63-0.675-0.443-0.449-0.666-1.024-0.666-1.722s0.223-1.272 0.666-1.722zm3.83-0.502c-0.59-0.607-1.323-0.91-2.2-0.91s-1.61 0.303-2.199 0.91c-0.59 0.606-0.884 1.347-0.884 2.224s0.294 1.619 0.884 2.225c0.589 0.606 1.322 0.91 2.199 0.91 0.872 0 1.603-0.305 2.196-0.914 0.592-0.609 0.888-1.349 0.888-2.221 0-0.877-0.295-1.618-0.884-2.224z" fill="none" stroke="#ffffff" stroke-miterlimit="10" stroke-width=".2"/>
   </g>
   <g transform="translate(75.951 37)">
    <path d="m0 0v6h0.938l2.917-4.667h0.033l-0.033 1.156v3.511h0.771v-6h-0.805l-3.05 4.894h-0.034l0.034-1.157v-3.737z" fill="#ffffff"/>
   </g>
   <g transform="translate(75.951 37)">
    <path d="m0 0v6h0.938l2.917-4.667h0.033l-0.033 1.156v3.511h0.771v-6h-0.805l-3.05 4.894h-0.034l0.034-1.157v-3.737z" fill="none" stroke="#ffffff" stroke-miterlimit="10" stroke-width=".2"/>
   </g>
   <path d="m81.951 43h0.771v-6h-0.771z" fill="#ffffff" stroke="#ffffff" stroke-miterlimit="10" stroke-width=".2"/>
   <g transform="translate(84.866 37.737)">
    <path d="m0 0h1.551c0.296 0 0.536 0.104 0.72 0.311 0.185 0.206 0.277 0.432 0.277 0.678s-0.095 0.471-0.285 0.675c-0.19 0.203-0.439 0.306-0.746 0.306h-1.517zm0 2.69h1.399c0.291 0 0.525 0.096 0.701 0.289 0.175 0.193 0.263 0.404 0.263 0.633s-0.085 0.439-0.256 0.628c-0.17 0.19-0.394 0.285-0.673 0.285h-1.434zm-0.771-3.427v6h2.17c0.47 0 0.876-0.156 1.22-0.465 0.344-0.311 0.516-0.7 0.516-1.169 0-0.285-0.074-0.537-0.223-0.755-0.147-0.218-0.345-0.382-0.591-0.494v-0.033c0.296-0.101 0.539-0.274 0.73-0.52 0.189-0.246 0.285-0.531 0.285-0.855 0-0.492-0.181-0.899-0.541-1.223s-0.786-0.486-1.278-0.486z" fill="#ffffff"/>
   </g>
   <g transform="translate(84.866 37.737)">
    <path d="m0 0h1.551c0.296 0 0.536 0.104 0.72 0.311 0.185 0.206 0.277 0.432 0.277 0.678s-0.095 0.471-0.285 0.675c-0.19 0.203-0.439 0.306-0.746 0.306h-1.517zm0 2.69h1.399c0.291 0 0.525 0.096 0.701 0.289 0.175 0.193 0.263 0.404 0.263 0.633s-0.085 0.439-0.256 0.628c-0.17 0.19-0.394 0.285-0.673 0.285h-1.434zm-0.771-3.427v6h2.17c0.47 0 0.876-0.156 1.22-0.465 0.344-0.311 0.516-0.7 0.516-1.169 0-0.285-0.074-0.537-0.223-0.755-0.147-0.218-0.345-0.382-0.591-0.494v-0.033c0.296-0.101 0.539-0.274 0.73-0.52 0.189-0.246 0.285-0.531 0.285-0.855 0-0.492-0.181-0.899-0.541-1.223s-0.786-0.486-1.278-0.486z" fill="none" stroke="#ffffff" stroke-miterlimit="10" stroke-width=".2"/>
   </g>
   <g transform="translate(89.241 37)">
    <path d="m0 0v6h0.77v-5.263h2.598v-0.737z" fill="#ffffff"/>
   </g>
   <g transform="translate(89.241 37)">
    <path d="m0 0v6h0.77v-5.263h2.598v-0.737z" fill="none" stroke="#ffffff" stroke-miterlimit="10" stroke-width=".2"/>
   </g>
   <g transform="translate(97.085 42.263)">
    <path d="m0 0h-2.732v-1.902h2.463v-0.721h-2.463v-1.902h2.732v-0.738h-3.503v6h3.503z" fill="#ffffff"/>
   </g>
   <g transform="translate(97.085 42.263)">
    <path d="m0 0h-2.732v-1.902h2.463v-0.721h-2.463v-1.902h2.732v-0.738h-3.503v6h3.503z" fill="none" stroke="#ffffff" stroke-miterlimit="10" stroke-width=".2"/>
   </g>
   <g transform="translate(103.81 42.263)">
    <path d="m0 0h-2.732v-1.902h2.463v-0.721h-2.463v-1.902h2.732v-0.738h-3.503v6h3.503z" fill="#ffffff"/>
   </g>
   <g transform="translate(103.81 42.263)">
    <path d="m0 0h-2.732v-1.902h2.463v-0.721h-2.463v-1.902h2.732v-0.738h-3.503v6h3.503z" fill="none" stroke="#ffffff" stroke-miterlimit="10" stroke-width=".2"/>
   </g>
   <g transform="translate(105.01 37)">
    <path d="m0 0v6h0.938l2.916-4.667h0.034l-0.034 1.156v3.511h0.772v-6h-0.805l-3.051 4.894h-0.033l0.033-1.157v-3.737z" fill="#ffffff"/>
   </g>
   <g transform="translate(105.01 37)">
    <path d="m0 0v6h0.938l2.916-4.667h0.034l-0.034 1.156v3.511h0.772v-6h-0.805l-3.051 4.894h-0.033l0.033-1.157v-3.737z" fill="none" stroke="#ffffff" stroke-miterlimit="10" stroke-width=".2"/>
   </g>
  </g>
 </g>
</svg>
