<?xml version="1.0" encoding="UTF-8"?>
<svg width="183.24mm" height="159.35mm" version="1.1" viewBox="0 0 183.24 159.35" xmlns="http://www.w3.org/2000/svg" xmlns:cc="http://creativecommons.org/ns#" xmlns:dc="http://purl.org/dc/elements/1.1/" xmlns:rdf="http://www.w3.org/1999/02/22-rdf-syntax-ns#">
 <metadata>
  <rdf:RDF>
   <cc:Work rdf:about="">
    <dc:format>image/svg+xml</dc:format>
    <dc:type rdf:resource="http://purl.org/dc/dcmitype/StillImage"/>
    <dc:title/>
   </cc:Work>
  </rdf:RDF>
 </metadata>
 <g transform="translate(-16.599 -50.655)">
  <path d="m96.119 100.63c-8.9196 13.112-23.923 25.99-40.922 20.8-20.234-6.1775-30.766-35.704-10.583-48.776 14.245-9.2266 32.782-4.9523 43.684 7.1617 7.6401 8.4885 11.218 19.189 16.792 28.928 4.1892 7.3191 10.262 14.007 16.783 19.311 7.9195 6.4414 17.098 10.173 27.164 11.48 2.933 0.381 7.8567 1.0682 10.552-0.45684 2.123-1.2016 3.6999-4.3857 5.0694-6.3454 4.1363-5.9189 8.5612-12.724 10.485-19.756-4.675 3.1965-8.5443 6.8019-14.111 8.5072-14.571 4.4634-30.222-4.9385-38.44-16.621-7.3582-10.461-10.578-22.934-18.591-33.161-13.883-17.719-35.634-25.073-57.269-18.899-25.354 7.2349-37.031 36.858-25.934 60.174 7.02 14.749 22.283 24.797 38.281 26.711 13.454 1.6087 26.904-4.457 37.042-12.816 2.4458-2.0165 8.6875-6.683 9.1158-10.014 0.1972-1.5346-1.6799-3.3948-2.4716-4.5861-2.4377-3.6682-4.0277-8.1841-6.6442-11.642m23.283-11.994h0.35278c6.0078-14.426 20.101-20.814 34.925-20.814 11.198 0 22.461 5.4931 26.337 16.581 3.731 10.674 1.0615 22.709-3.2576 32.808-9.0114 21.071-25.955 38.302-42.835 53.287-6.0053 5.3312-12.274 10.379-18.697 15.197-1.7438 1.3078-5.1241 4.905-7.4083 4.8182-2.3156-0.0882-5.2758-3.3186-7.0556-4.6408-6.0159-4.469-11.956-9.0435-17.639-13.935-6.0272-5.1869-12.181-10.448-17.607-16.274-3.4357-3.6883-6.7462-8.733-10.716-11.795-1.5406-1.1885-4.064-1.4023-5.8963-1.9717-3.5377-1.0996-6.9743-2.5157-10.231-4.2873-6.5048-3.5394-10.722-9.2135-16.581-13.343 11.528 27.69 35.9 50.189 58.914 68.438 5.6102 4.4485 11.328 8.8445 17.286 12.819 2.4881 1.6598 5.3823 4.1289 8.4667 4.4316 4.6433 0.45579 8.0571-2.5157 11.642-5.0514 7.2838-5.1534 14.313-10.633 21.167-16.344 28.957-24.131 59.743-56.601 59.265-96.748-0.0462-3.8777-0.86219-7.9371-1.9703-11.642-7.2746-24.314-33.02-32.39-55.884-28.603-9.1056 1.5082-17.787 5.5667-24.694 11.688-1.8221 1.6146-5.4758 4.1673-6.0089 6.6851-0.36265 1.7134 1.8006 3.8661 2.558 5.2917 2.2528 4.2404 4.4796 8.7034 5.5675 13.406z" fill="#5ffff3"/>
 </g>
</svg>
