<?xml version="1.0" encoding="UTF-8" standalone="no"?>
<!-- Created with Inkscape (http://www.inkscape.org/) -->

<svg
   version="1.1"
   id="svg824"
   xml:space="preserve"
   width="2745.0413"
   height="3258.4495"
   viewBox="0 0 2745.0413 3258.4495"
   sodipodi:docname="03.ai.svg"
   inkscape:version="1.1.2 (b8e25be8, 2022-02-05)"
   xmlns:inkscape="http://www.inkscape.org/namespaces/inkscape"
   xmlns:sodipodi="http://sodipodi.sourceforge.net/DTD/sodipodi-0.dtd"
   xmlns="http://www.w3.org/2000/svg"
   xmlns:svg="http://www.w3.org/2000/svg"><defs
     id="defs828"><clipPath
       clipPathUnits="userSpaceOnUse"
       id="clipPath840"><path
         d="M 0,0 H 1080 V 1920 H 0 Z"
         id="path838" /></clipPath><clipPath
       clipPathUnits="userSpaceOnUse"
       id="clipPath848"><path
         d="M -156.726,2127.04 H 1334.73 V 356.636 H -156.726 Z"
         id="path846" /></clipPath><clipPath
       clipPathUnits="userSpaceOnUse"
       id="clipPath888"><path
         d="M -415.948,2417.7 H 1642.83 V -26.1328 H -415.948 Z"
         id="path886" /></clipPath><clipPath
       clipPathUnits="userSpaceOnUse"
       id="clipPath904"><path
         d="M 0,1920 H 1080 V 0 H 0 Z"
         id="path902" /></clipPath><clipPath
       clipPathUnits="userSpaceOnUse"
       id="clipPath1120"><path
         d="M 0,1920 H 1080 V 0 H 0 Z"
         id="path1118" /></clipPath></defs><sodipodi:namedview
     id="namedview826"
     pagecolor="#505050"
     bordercolor="#eeeeee"
     borderopacity="1"
     inkscape:pageshadow="0"
     inkscape:pageopacity="0"
     inkscape:pagecheckerboard="0"
     showgrid="false"
     fit-margin-top="0"
     fit-margin-left="0"
     fit-margin-right="0"
     fit-margin-bottom="0"
     inkscape:zoom="0.24659476"
     inkscape:cx="1808.6354"
     inkscape:cy="1543.0174"
     inkscape:window-width="2560"
     inkscape:window-height="1387"
     inkscape:window-x="0"
     inkscape:window-y="25"
     inkscape:window-maximized="1"
     inkscape:current-layer="g830" /><g
     id="g830"
     inkscape:groupmode="layer"
     inkscape:label="Pantallas de inicio"
     transform="matrix(1.3333333,0,0,-1.3333333,554.59679,3223.6055)"><g
       id="g844" /><g
       id="g856"><g
         clip-path="url(#clipPath848)"
         opacity="0.800003"
         id="g854"><g
           transform="translate(1326.8862,1200.9185)"
           id="g852"><path
             d="m 0,0 c 14.671,-71.962 6.327,-146.507 -5.136,-219.054 -14.226,-90.104 -33.176,-179.472 -56.726,-267.598 -11.896,-44.516 -25.477,-89.77 -52.952,-126.761 -32.944,-44.355 -82.879,-72.799 -133.33,-95.34 -115.581,-51.631 -241.979,-78.884 -368.568,-79.449 -81.497,-0.363 -163.559,10.13 -244.128,-2.089 -68.804,-10.433 -134.247,-37.141 -202.849,-48.835 -68.603,-11.695 -145.721,-5.671 -197.482,40.844 -71.781,64.505 -67.896,177.443 -112.282,263.117 -18.929,36.537 -46.636,67.856 -66.695,103.777 -40.502,72.547 -47.302,159.291 -41.813,242.21 5.499,82.91 22.309,164.861 25.437,247.902 3.753,99.619 -12.028,200.66 7.628,298.402 73.384,364.875 333.656,465.645 416.293,504.148 0.021,0 0.041,0.01 0.051,0.02 252.281,103.554 573.84,77.28 770.383,-37.807 49.27,-28.847 96.784,-63.022 130.293,-109.255 54.809,-75.604 65.877,-174.043 66.12,-267.426 0.252,-93.383 -8.345,-188.33 14.055,-278.979 C -37.646,110.96 -11.704,57.392 0,0 m -1051.784,714.121 c -76.341,-46.878 -208.086,-162.782 -267.375,-323.405 -33.68,-91.244 -68.904,-185.899 -53.971,-282.006 9.656,-62.185 35.88,-122.089 35.103,-185.011 -1.07,-86.935 -53.306,-175.374 -22.158,-256.538 8.072,-21.048 21.32,-39.685 30.825,-60.127 23.59,-50.742 23.136,-110.162 47.131,-160.714 34.104,-71.851 113.371,-113.846 192.295,-123.734 78.914,-9.898 158.494,7.286 235.814,25.932 77.32,18.636 155.628,38.998 235.087,35.517 56.949,-2.493 113.866,-17.234 170.34,-9.465 44.194,6.085 86.34,26.255 118.79,56.868 32.52,30.684 54.637,70.519 76.23,109.668 23.439,42.499 46.878,84.988 70.318,127.487 28.918,52.438 58.098,105.502 73.828,163.287 15.72,57.776 16.921,121.645 -9.081,175.587 -21.24,44.083 -58.885,78.49 -81.124,122.089 -46.071,90.306 -18.172,198.39 -15.609,299.734 1.967,77.502 -14.096,159.987 -67.28,216.401 -44.982,47.726 -110.052,70.357 -173.407,87.278 -114.703,30.634 -233.554,48.12 -352.172,43.176 -81.427,-3.391 -169.24,-19.131 -243.584,-62.024"
             style="fill:#00e3de;fill-opacity:1;fill-rule:nonzero;stroke:none"
             id="path850" /></g></g></g><g
       id="g862"
       transform="translate(335.0171,1824.6128)"><path
         d="m 0,0 c 62.498,45.092 145.902,69.288 223.504,68.31 79.177,-1.009 156.698,-22.42 231.606,-48.1 45.456,-15.579 91.426,-33.418 127.549,-65.11 54.738,-48.019 80.003,-122.675 84.08,-195.373 3.673,-65.344 -7.78,-131.695 4.712,-195.938 10.625,-54.679 37.938,-104.392 59.773,-155.629 30.744,-72.123 50.743,-155.366 21.25,-228.014 -23.54,-57.987 -75.535,-100.225 -131.514,-128.225 -55.979,-28 -117.003,-44.103 -175.627,-66.048 -83.212,-31.168 -161.702,-74.172 -245.561,-103.544 -83.868,-29.363 -176.524,-44.558 -261.371,-18.153 -84.847,26.407 -158.303,102.818 -159.483,191.66 -0.495,36.698 9.454,78.37 -14.086,106.521 -8.889,10.635 -21.532,17.577 -30.673,28.01 -43.751,49.976 18.212,131.735 -7.407,193.022 -6.387,15.297 -17.98,28.151 -23.267,43.871 -14.863,44.114 23.318,86.31 40.915,129.405 11.916,29.16 14.449,61.135 19.736,92.192 C -211.719,-209.227 -121.807,-81.547 0,0 m 0.858,-99.508 0.05,-0.07 c -63.234,-47.575 -108.437,-117.034 -122.563,-195.03 -7.689,-42.419 -7.043,-87.279 -25.468,-126.246 -16.345,-34.559 -47.755,-70.409 -32.57,-105.492 3.703,-8.556 9.959,-15.801 13.975,-24.226 12.673,-26.637 0.736,-57.664 -7.083,-86.108 -9.273,-33.781 -10.625,-74.687 14.741,-98.852 19.645,-18.727 51.288,-23.005 66.856,-45.223 26.961,-38.474 -14.751,-95.987 7.861,-137.164 6.75,-12.28 18.414,-21.088 30.502,-28.182 60.167,-35.315 134.742,-35.819 203.556,-24.377 68.814,11.442 135.741,33.73 205.14,40.754 56.111,5.69 116.59,2.31 164.134,32.631 28.979,18.484 49.522,47.564 66.302,77.541 25.76,46.011 44.77,99.801 32.248,151.028 -7.769,31.763 -26.941,59.45 -38.736,89.952 -42.519,109.961 15.68,236.157 -12.3,350.689 C 540.371,-116.812 432.267,-37.404 319.047,-21.401 208.631,-5.792 97.339,-26.98 0.858,-99.508"
         style="fill:#00cfff;fill-opacity:1;fill-rule:nonzero;stroke:none"
         id="path864" /></g><g
       id="g866"
       transform="translate(295.0811,1571.0508)"><path
         d="m 0,0 0.242,-0.182 c -20.442,-28.06 -32.661,-62.013 -34.801,-96.662 -1.735,-28.071 2.765,-57.655 -8.788,-83.293 -7.971,-17.688 -22.823,-31.491 -31.299,-48.937 -8.476,-17.446 -7.628,-42.691 9.596,-51.6 5.963,-3.088 14.61,-5.822 14.015,-12.512 -0.283,-3.168 -2.836,-5.61 -4.309,-8.435 -3.632,-6.983 0.727,-16.81 8.335,-18.798 -6.095,-5.327 -12.754,-13.662 -8.466,-20.523 2.018,-3.239 5.913,-4.792 8.385,-7.688 4.389,-5.116 3.299,-12.815 1.574,-19.323 -3.864,-14.509 -9.707,-28.635 -11.039,-43.589 -1.341,-14.963 2.906,-31.622 15.257,-40.168 13.319,-9.232 31.127,-6.377 47.271,-4.884 16.134,1.494 35.446,-0.403 43.64,-14.378 3.369,-5.741 4.167,-12.592 4.661,-19.232 2.493,-33.528 -0.989,-67.512 -10.251,-99.84 148.353,-47.07 317.22,-24.569 448.087,59.702 23.581,15.186 48.19,36.405 48.362,64.455 0.141,22.471 -15.559,41.369 -26.719,60.873 -17.385,30.391 -24.649,66.453 -20.401,101.203 4.086,33.388 18.293,64.617 26.556,97.228 11.473,45.284 11.352,92.757 7.336,139.313 C 521.109,3.844 504.249,50.379 453.153,100.214 397.647,154.347 166.344,197.573 42.67,51.136 28.343,34.165 13.107,17.849 0,0 m 40.844,153.984 -0.05,0.07 c 96.481,72.528 207.773,93.717 318.189,78.107 113.22,-16.003 221.324,-95.411 248.456,-206.482 27.98,-114.532 -30.219,-240.728 12.3,-350.689 11.795,-30.502 30.967,-58.189 38.736,-89.952 12.522,-51.227 -6.488,-105.017 -32.248,-151.028 -16.78,-29.977 -37.323,-59.057 -66.302,-77.541 -47.544,-30.321 -108.023,-26.941 -164.134,-32.631 -69.399,-7.024 -136.326,-29.312 -205.14,-40.754 -68.814,-11.442 -143.389,-10.938 -203.556,24.377 -12.088,7.094 -23.752,15.902 -30.502,28.182 -22.612,41.177 19.1,98.69 -7.861,137.164 -15.568,22.218 -47.211,26.496 -66.856,45.223 -25.366,24.165 -24.014,65.071 -14.741,98.852 7.819,28.444 19.756,59.471 7.083,86.108 -4.016,8.425 -10.272,15.67 -13.975,24.226 -15.185,35.083 16.225,70.933 32.57,105.492 18.425,38.967 17.779,83.827 25.468,126.246 14.126,77.996 59.329,147.455 122.563,195.03"
         style="fill:#7a9dff;fill-opacity:1;fill-rule:nonzero;stroke:none"
         id="path868" /></g><g
       id="g870"
       transform="translate(755.1353,1122.3271)"><path
         d="m 0,0 c 0.707,4.793 -1.745,9.435 -4.117,13.652 -29.109,51.802 -59.854,110.748 -43.185,167.777 7.85,26.86 25.488,49.623 37.707,74.787 28.968,59.662 25.074,134.066 -9.969,190.379 -35.043,56.302 -100.073,92.666 -166.395,93.03 -35.537,0.191 -74.041,-2.604 -107.368,-14.954 -53.134,-19.686 -104.431,-60.439 -132.663,-110.304 -30.462,-45.153 -3.29,-119.486 -34.882,-167.323 -5.953,-9 -14.004,-16.608 -18.898,-26.234 -4.884,-9.626 -5.711,-22.662 2.088,-30.119 8.082,-7.708 23.974,-8.808 25.367,-19.877 0.646,-5.136 -2.593,-9.908 -3.391,-15.014 -0.746,-4.853 3.249,-11.089 7.568,-9.666 -9.747,-4.409 -9.818,-21.552 0.242,-25.709 -7.275,-20.806 -10.816,-42.913 -10.413,-64.96 0.071,-4.127 0.353,-8.486 2.603,-11.957 2.301,-3.561 6.307,-5.61 10.222,-7.244 30.038,-12.562 63.9,-9.767 96.44,-8.849 3.299,0.101 6.841,0.101 9.576,-1.746 2.885,-1.947 4.177,-5.499 5.236,-8.818 8.496,-26.779 16.831,-59.854 17.264,-87.955 l 0.636,-0.091 C -212.809,-104.744 -92.818,-81.779 -8.99,-12.39 -4.964,-9.051 -0.756,-5.166 0,0 m 53.699,43.71 c 11.16,-19.504 26.86,-38.402 26.718,-60.873 -0.171,-28.05 -24.78,-49.27 -48.361,-64.455 -130.868,-84.272 -299.734,-106.773 -448.087,-59.703 9.262,32.329 12.743,66.312 10.251,99.841 -0.494,6.639 -1.292,13.49 -4.661,19.231 -8.194,13.976 -27.506,15.873 -43.64,14.379 -16.144,-1.493 -33.953,-4.349 -47.272,4.884 -12.35,8.546 -16.598,25.204 -15.256,40.168 1.332,14.953 7.174,29.079 11.039,43.589 1.725,6.508 2.815,14.207 -1.575,19.322 -2.471,2.896 -6.366,4.45 -8.384,7.689 -4.288,6.861 2.371,15.196 8.466,20.523 -7.608,1.987 -11.967,11.815 -8.335,18.798 1.473,2.825 4.026,5.267 4.309,8.435 0.595,6.69 -8.053,9.424 -14.015,12.511 -17.224,8.91 -18.072,34.155 -9.596,51.601 8.475,17.446 23.328,31.248 31.299,48.936 11.553,25.639 7.053,55.223 8.788,83.293 2.139,34.65 14.359,68.602 34.801,96.663 l -0.242,0.182 c 13.107,17.849 28.343,34.164 42.67,51.136 123.674,146.436 354.977,103.211 410.483,49.077 51.095,-49.834 67.956,-96.369 74.09,-167.483 4.017,-46.556 4.138,-94.03 -7.335,-139.313 C 51.59,209.53 37.384,178.301 33.297,144.913 29.049,110.163 36.314,74.101 53.699,43.71"
         style="fill:#ffd997;fill-opacity:1;fill-rule:nonzero;stroke:none"
         id="path872" /></g><g
       id="g874"
       transform="translate(370.8169,1508.4424)"><path
         d="m 0,0 c -13.773,-22.4 -16.689,-42.187 -17.224,-66.382 -0.635,-28.706 -0.968,-60.137 -19.514,-82.053 -7.114,-8.404 -17.193,-16.356 -16.85,-27.354 0.242,-8.051 6.538,-14.923 13.874,-18.283 7.275,-3.329 14.549,-3.814 22.53,-4.288 v -0.071 c 2.664,-2.129 1.847,-8.848 1.514,-11.896 -0.504,-4.631 -3.027,-7.052 -4.944,-10.907 -3.582,-7.194 -0.182,-13.783 7.547,-15.337 -3.451,-4.137 -7.042,-11.876 -7.527,-17.304 -0.272,-3.148 -0.192,-5.57 1.534,-8.133 2.421,-3.602 6.054,-3.723 9.111,-5.912 l -0.626,-0.646 c 1.998,-9.848 -12.198,-40.038 -8.495,-46.162 3.037,-5.015 7.961,-7.437 13.026,-9.485 21.774,-8.829 68.683,1.867 72.779,2.674 5.953,1.181 9.192,-3.552 12.966,-7.537 29.13,-30.704 31.168,-90.427 31.168,-92.848 l 0.282,-0.031 c 88.288,-24.075 148.445,7.124 163.731,21.895 7.749,7.487 12.482,16.881 14.853,27.395 l -0.242,0.252 c -6.993,23.016 -12.815,46.384 -17.426,69.995 -3.128,16.002 -5.711,32.378 -3.763,48.563 4.853,40.38 36.374,72.174 50.137,110.445 5.398,15.024 8.001,30.926 9.384,46.828 2.209,25.306 1.352,51.177 -5.903,75.524 C 302.862,42.802 238.498,88.237 171.924,91.486 105.36,94.745 36.132,56.221 0.04,-0.021 Z m -41.672,28.252 c 28.232,49.865 79.529,90.618 132.664,110.304 33.327,12.35 71.83,15.145 107.367,14.953 66.322,-0.363 131.352,-36.727 166.395,-93.03 35.043,-56.312 38.937,-130.716 9.969,-190.378 -12.219,-25.164 -29.856,-47.928 -37.706,-74.788 -16.669,-57.028 14.075,-115.974 43.185,-167.776 2.371,-4.218 4.823,-8.859 4.116,-13.652 -0.756,-5.166 -4.964,-9.051 -8.99,-12.39 C 291.5,-467.895 171.51,-490.859 67.986,-457.31 l -0.635,0.091 c -0.434,28.1 -8.768,61.176 -17.265,87.954 -1.059,3.32 -2.35,6.871 -5.236,8.819 -2.734,1.846 -6.276,1.846 -9.576,1.745 -32.54,-0.918 -66.402,-3.713 -96.44,8.849 -3.915,1.635 -7.92,3.684 -10.221,7.245 -2.25,3.471 -2.533,7.83 -2.603,11.957 -0.404,22.046 3.137,44.154 10.412,64.96 -10.059,4.156 -9.988,21.299 -0.241,25.709 0.232,0.081 0.464,0.181 0.706,0.302 -0.242,-0.091 -0.474,-0.191 -0.706,-0.302 -4.319,-1.423 -8.315,4.813 -7.568,9.666 0.797,5.106 4.036,9.878 3.39,15.014 -1.392,11.069 -17.284,12.169 -25.366,19.877 -7.8,7.457 -6.972,20.493 -2.089,30.119 4.894,9.626 12.946,17.234 18.899,26.234 31.592,47.837 4.419,122.17 34.881,167.323"
         style="fill:#ffa697;fill-opacity:1;fill-rule:nonzero;stroke:none"
         id="path876" /></g><g
       id="g878"
       transform="translate(481.686,1086.5181)"><path
         d="m 0,0 c 0,2.421 -2.039,62.144 -31.168,92.848 -3.774,3.985 -7.013,8.718 -12.966,7.537 -4.096,-0.807 -51.005,-11.502 -72.779,-2.674 -5.066,2.049 -9.989,4.471 -13.026,9.485 -3.704,6.125 10.493,36.314 8.495,46.162 l 0.626,0.646 c -3.057,2.189 -6.69,2.31 -9.111,5.913 -1.726,2.562 -1.806,4.984 -1.534,8.132 0.484,5.429 4.076,13.168 7.527,17.305 -7.729,1.553 -11.129,8.142 -7.547,15.336 1.917,3.855 4.44,6.276 4.944,10.908 0.333,3.047 1.15,9.767 -1.514,11.896 v 0.07 c -7.981,0.475 -15.256,0.959 -22.53,4.289 -7.336,3.359 -13.632,10.231 -13.875,18.283 -0.342,10.998 9.737,18.949 16.851,27.354 18.545,21.915 18.878,53.346 19.514,82.052 0.535,24.196 3.451,43.982 17.224,66.382 l 0.04,-0.02 c 36.092,56.242 105.32,94.765 171.884,91.506 66.573,-3.249 130.938,-48.684 149.998,-112.544 7.255,-24.347 8.112,-50.218 5.903,-75.524 -1.383,-15.902 -3.986,-31.803 -9.384,-46.827 -13.763,-38.272 -45.284,-70.065 -50.137,-110.446 -1.948,-16.184 0.635,-32.56 3.763,-48.563 4.611,-23.61 10.433,-46.979 17.426,-69.994 l 0.242,-0.253 C 176.495,38.746 171.762,29.352 164.013,21.865 148.727,7.093 88.57,-24.105 0.282,-0.03 Z"
         style="fill:#5a319b;fill-opacity:1;fill-rule:nonzero;stroke:none"
         id="path880" /></g><g
       id="g884" /><path
       d="m 1632.0024,1139.2983 c 20.251,-99.335 8.733,-202.236 -7.09,-302.378 -19.638,-124.378 -45.795,-247.739 -78.303,-369.386 -16.421,-61.451 -35.169,-123.919 -73.095,-174.979 -45.475,-61.228 -114.405,-100.491 -184.045,-131.606 -159.546,-71.271 -334.023,-108.89 -508.765,-109.67 -112.496,-0.501 -225.774,13.984 -336.989,-2.883 -94.976,-14.401 -185.313,-51.269 -280.01,-67.412 -94.697,-16.143 -201.149,-7.827 -272.6,56.381 -99.084,89.042 -93.722,244.939 -154.992,363.202 -26.129,50.434 -64.375,93.666 -92.064,143.25 -55.907,100.144 -65.295,219.883 -57.718,334.344 7.59,114.447 30.795,227.571 35.112,342.199 5.182,137.511 -16.602,276.987 10.53,411.908 101.299,503.667 460.573,642.766 574.644,695.916 0.028,0 0.056,0.014 0.07,0.028 348.243,142.943 792.117,106.675 1063.422,-52.189 68.011,-39.82 133.598,-86.995 179.853,-150.813 75.657,-104.363 90.936,-240.245 91.27,-369.149 0.349,-128.905 -11.518,-259.968 19.402,-385.097 19.402,-78.499 55.211,-152.443 71.368,-231.666 m -1451.862,985.759 c -105.38,-64.71 -287.239,-224.701 -369.08,-446.423 -46.492,-125.951 -95.115,-256.61 -74.501,-389.275 13.329,-85.839 49.528,-168.53 48.456,-255.385 -1.477,-120.005 -73.582,-242.084 -30.586,-354.121 11.142,-29.055 29.429,-54.779 42.55,-82.998 32.564,-70.044 31.937,-152.066 65.058,-221.846 47.077,-99.181 156.496,-157.15 265.441,-170.799 108.931,-13.664 218.782,10.055 325.513,35.795 106.731,25.724 214.826,53.832 324.51,49.026 78.61,-3.44 157.178,-23.789 235.133,-13.065 61.006,8.399 119.183,36.242 163.976,78.499 44.89,42.356 75.42,97.343 105.226,151.384 32.355,58.665 64.71,117.317 97.065,175.982 39.918,72.384 80.198,145.632 101.912,225.397 21.7,79.753 23.357,167.917 -12.536,242.377 -29.318,60.852 -81.284,108.346 -111.982,168.529 -63.595,124.657 -25.084,273.854 -21.546,413.747 2.716,106.982 -19.457,220.844 -92.872,298.716 -62.092,65.88 -151.914,97.12 -239.368,120.478 -158.335,42.285 -322.393,66.423 -486.132,59.598 -112.399,-4.68 -233.615,-26.408 -336.237,-85.616"
       style="opacity:0.800003;fill:#00e3de;fill-opacity:1;fill-rule:nonzero;stroke:none"
       id="path890" /><g
       id="g898"><g
         id="g900"
         clip-path="url(#clipPath904)"><g
           id="g906"
           transform="translate(512.7695,1526.6982)"><path
             d="m 0,0 c 6.625,-2.3 12.992,-5.27 19.013,-8.863 0.277,-0.165 0.529,0.267 0.253,0.432 C 13.208,-4.816 6.797,-1.832 0.133,0.482 -0.172,0.588 -0.303,0.105 0,0"
             style="fill:#ffffff;fill-opacity:1;fill-rule:nonzero;stroke:none"
             id="path908" /></g><g
           id="g910"
           transform="translate(526.7417,1533.6548)"><path
             d="m 0,0 c -4.866,-7.257 -8.726,-15.136 -11.484,-23.426 -0.101,-0.306 0.381,-0.438 0.482,-0.133 2.745,8.25 6.591,16.085 11.434,23.307 C 0.611,0.016 0.178,0.267 0,0"
             style="fill:#ffffff;fill-opacity:1;fill-rule:nonzero;stroke:none"
             id="path912" /></g><g
           id="g914"
           transform="translate(517.3701,1533.5352)"><path
             d="m 0,0 c 2.727,-9.019 5.453,-18.039 8.18,-27.058 0.093,-0.307 0.576,-0.176 0.482,0.133 C 5.936,-17.906 3.209,-8.886 0.482,0.133 0.389,0.44 -0.094,0.31 0,0"
             style="fill:#ffffff;fill-opacity:1;fill-rule:nonzero;stroke:none"
             id="path916" /></g><g
           id="g918"
           transform="translate(509.7554,1517.7114)"><path
             d="m 0,0 c 7.638,3.807 15.275,7.614 22.913,11.42 0.288,0.144 0.035,0.576 -0.252,0.433 C 15.023,8.045 7.385,4.239 -0.252,0.432 -0.541,0.289 -0.288,-0.143 0,0"
             style="fill:#ffffff;fill-opacity:1;fill-rule:nonzero;stroke:none"
             id="path920" /></g><g
           id="g922"
           transform="translate(548.6948,1328.2051)"><path
             d="m 0,0 c 4.236,-3.162 8.472,-6.325 12.708,-9.487 0.259,-0.193 0.508,0.241 0.253,0.432 C 8.725,-5.893 4.489,-2.73 0.252,0.432 -0.006,0.625 -0.255,0.19 0,0"
             style="fill:#ffffff;fill-opacity:1;fill-rule:nonzero;stroke:none"
             id="path924" /></g><g
           id="g926"
           transform="translate(562.4126,1334.4761)"><path
             d="m 0,0 c -6.265,-5.699 -10.797,-13.121 -13.011,-21.295 -0.084,-0.311 0.398,-0.444 0.483,-0.133 2.193,8.097 6.677,15.43 12.882,21.074 C 0.592,-0.136 0.238,0.216 0,0"
             style="fill:#ffffff;fill-opacity:1;fill-rule:nonzero;stroke:none"
             id="path928" /></g><g
           id="g930"
           transform="translate(552.0972,1336.0801)"><path
             d="m 0,0 4.176,-24.06 c 0.055,-0.316 0.537,-0.182 0.483,0.133 -1.392,8.02 -2.784,16.04 -4.177,24.06 C 0.427,0.449 -0.055,0.315 0,0"
             style="fill:#ffffff;fill-opacity:1;fill-rule:nonzero;stroke:none"
             id="path932" /></g><g
           id="g934"
           transform="translate(546.709,1321.8467)"><path
             d="m 0,0 c 6.368,1.627 12.736,3.255 19.104,4.883 0.312,0.08 0.18,0.562 -0.133,0.482 C 12.603,3.738 6.235,2.11 -0.133,0.482 -0.444,0.402 -0.312,-0.08 0,0"
             style="fill:#ffffff;fill-opacity:1;fill-rule:nonzero;stroke:none"
             id="path936" /></g><g
           id="g938"
           transform="translate(392.8125,1373.9121)"><path
             d="m 0,0 c 7.968,-2.608 15.477,-6.437 22.272,-11.346 0.261,-0.189 0.511,0.244 0.252,0.431 C 15.694,-5.98 8.141,-2.139 0.133,0.482 -0.174,0.583 -0.305,0.1 0,0"
             style="fill:#ffffff;fill-opacity:1;fill-rule:nonzero;stroke:none"
             id="path940" /></g><g
           id="g942"
           transform="translate(409.46,1383.8589)"><path
             d="m 0,0 -8.401,-27.368 c -0.094,-0.308 0.388,-0.44 0.483,-0.132 l 8.4,27.367 C 0.577,0.175 0.095,0.307 0,0"
             style="fill:#ffffff;fill-opacity:1;fill-rule:nonzero;stroke:none"
             id="path944" /></g><g
           id="g946"
           transform="translate(399.9731,1378.5815)"><path
             d="m 0,0 9.888,-21.097 c 0.136,-0.291 0.568,-0.037 0.431,0.253 L 0.432,0.252 C 0.295,0.543 -0.136,0.29 0,0"
             style="fill:#ffffff;fill-opacity:1;fill-rule:nonzero;stroke:none"
             id="path948" /></g><g
           id="g950"
           transform="translate(395.5474,1366.1133)"><path
             d="M 0,0 C 7.682,0.721 14.915,4.29 20.142,9.969 20.36,10.206 20.007,10.56 19.789,10.323 14.655,4.745 7.55,1.208 0,0.5 -0.317,0.47 -0.321,-0.03 0,0"
             style="fill:#ffffff;fill-opacity:1;fill-rule:nonzero;stroke:none"
             id="path952" /></g><g
           id="g954"
           transform="translate(551.373,1150.1899)"><path
             d="m 0,0 c 6.225,-2.42 12.11,-5.632 17.521,-9.547 0.261,-0.189 0.51,0.245 0.252,0.432 C 12.326,-5.174 6.399,-1.955 0.133,0.482 -0.167,0.599 -0.297,0.116 0,0"
             style="fill:#ffffff;fill-opacity:1;fill-rule:nonzero;stroke:none"
             id="path956" /></g><g
           id="g958"
           transform="translate(564.6597,1155.7324)"><path
             d="m 0,0 c -2.941,-6.303 -4.563,-13.129 -4.765,-20.082 -0.009,-0.322 0.491,-0.321 0.5,0 0.199,6.861 1.794,13.609 4.697,19.83 C 0.567,0.038 0.136,0.292 0,0"
             style="fill:#ffffff;fill-opacity:1;fill-rule:nonzero;stroke:none"
             id="path960" /></g><g
           id="g962"
           transform="translate(556.1553,1157.8877)"><path
             d="m 0,0 10.293,-24.646 c 0.123,-0.292 0.607,-0.164 0.483,0.133 L 0.482,0.133 C 0.36,0.426 -0.124,0.297 0,0"
             style="fill:#ffffff;fill-opacity:1;fill-rule:nonzero;stroke:none"
             id="path964" /></g><g
           id="g966"
           transform="translate(549.0718,1144.4448)"><path
             d="M 0,0 C 8.019,0.145 15.964,1.474 23.593,3.95 23.897,4.049 23.767,4.532 23.46,4.432 15.872,1.969 7.977,0.644 0,0.5 -0.321,0.494 -0.322,-0.006 0,0"
             style="fill:#ffffff;fill-opacity:1;fill-rule:nonzero;stroke:none"
             id="path968" /></g><g
           id="g970"
           transform="translate(646.9692,1442.2612)"><path
             d="m 0,0 c 3.933,-2.308 7.865,-4.616 11.798,-6.925 0.278,-0.163 0.53,0.269 0.252,0.432 L 0.252,0.432 C -0.026,0.595 -0.277,0.163 0,0"
             style="fill:#ffffff;fill-opacity:1;fill-rule:nonzero;stroke:none"
             id="path972" /></g><g
           id="g974"
           transform="translate(655.6958,1446.9316)"><path
             d="m 0,0 c -1.042,-6.195 -3.071,-12.174 -6.023,-17.72 -0.151,-0.284 0.281,-0.537 0.432,-0.252 2.971,5.582 5.024,11.603 6.073,17.839 C 0.535,0.182 0.053,0.317 0,0"
             style="fill:#ffffff;fill-opacity:1;fill-rule:nonzero;stroke:none"
             id="path976" /></g><g
           id="g978"
           transform="translate(650.7314,1446.6968)"><path
             d="m 0,0 c 1.676,-6.013 3.75,-11.904 6.203,-17.644 0.126,-0.295 0.557,-0.041 0.432,0.252 C 4.199,-11.692 2.146,-5.838 0.482,0.133 0.396,0.442 -0.087,0.311 0,0"
             style="fill:#ffffff;fill-opacity:1;fill-rule:nonzero;stroke:none"
             id="path980" /></g><g
           id="g982"
           transform="translate(647.1079,1435.9863)"><path
             d="m 0,0 c 5.889,1.586 11.778,3.172 17.667,4.759 0.31,0.083 0.178,0.566 -0.133,0.482 C 11.645,3.654 5.756,2.068 -0.133,0.482 -0.443,0.398 -0.312,-0.084 0,0"
             style="fill:#ffffff;fill-opacity:1;fill-rule:nonzero;stroke:none"
             id="path984" /></g><g
           id="g986"
           transform="translate(560.1587,1433.5112)"><path
             d="M 0,0 C 1.287,0 1.289,2 0,2 -1.287,2 -1.289,0 0,0"
             style="fill:#ffffff;fill-opacity:1;fill-rule:nonzero;stroke:none"
             id="path988" /></g><g
           id="g990"
           transform="translate(587.6807,1506.436)"><path
             d="M 0,0 V -1.24 C 0,-1.496 0.112,-1.766 0.293,-1.947 0.384,-2.044 0.491,-2.113 0.615,-2.154 0.734,-2.216 0.862,-2.245 1,-2.24 1.259,-2.229 1.527,-2.144 1.707,-1.947 1.887,-1.751 2,-1.511 2,-1.24 V 0 C 2,0.256 1.889,0.526 1.707,0.707 1.617,0.805 1.509,0.874 1.385,0.914 1.266,0.977 1.138,1.005 1,1 0.742,0.989 0.473,0.904 0.293,0.707 0.113,0.512 0,0.271 0,0"
             style="fill:#ffffff;fill-opacity:1;fill-rule:nonzero;stroke:none"
             id="path992" /></g><g
           id="g994"
           transform="translate(635.8042,1361.5859)"><path
             d="M 0,0 C 1.287,0 1.289,2 0,2 -1.287,2 -1.289,0 0,0"
             style="fill:#ffffff;fill-opacity:1;fill-rule:nonzero;stroke:none"
             id="path996" /></g><g
           id="g998"
           transform="translate(459.7119,1303.3022)"><path
             d="M 0,0 C 1.287,0 1.289,2 0,2 -1.287,2 -1.289,0 0,0"
             style="fill:#ffffff;fill-opacity:1;fill-rule:nonzero;stroke:none"
             id="path1000" /></g><g
           id="g1002"
           transform="translate(415.0688,1485.1147)"><path
             d="M 0,0 H -1.24 C -1.497,0 -1.766,-0.112 -1.947,-0.293 -2.045,-0.384 -2.114,-0.491 -2.154,-0.615 -2.217,-0.734 -2.246,-0.862 -2.24,-1 -2.229,-1.259 -2.144,-1.527 -1.947,-1.707 -1.752,-1.887 -1.511,-2 -1.24,-2 H 0 c 0.256,0 0.525,0.111 0.707,0.293 0.097,0.09 0.167,0.198 0.207,0.322 C 0.976,-1.266 1.005,-1.138 1,-1 0.988,-0.742 0.903,-0.473 0.707,-0.293 0.511,-0.113 0.271,0 0,0"
             style="fill:#ffffff;fill-opacity:1;fill-rule:nonzero;stroke:none"
             id="path1004" /></g><g
           id="g1006"
           transform="translate(498.1543,1411.1895)"><path
             d="M 0,0 C 1.287,0 1.289,2 0,2 -1.287,2 -1.289,0 0,0"
             style="fill:#ffffff;fill-opacity:1;fill-rule:nonzero;stroke:none"
             id="path1008" /></g><g
           id="g1010"
           transform="translate(389.0269,1236.3374)"><path
             d="M 0,0 C 1.287,0 1.289,2 0,2 -1.287,2 -1.289,0 0,0"
             style="fill:#ffffff;fill-opacity:1;fill-rule:nonzero;stroke:none"
             id="path1012" /></g><g
           id="g1014"
           transform="translate(340.6636,1314.4629)"><path
             d="M 0,0 H 1.24 C 1.497,0 1.766,0.111 1.947,0.293 2.044,0.383 2.113,0.491 2.154,0.615 2.216,0.734 2.245,0.862 2.24,1 2.229,1.259 2.144,1.527 1.947,1.707 1.751,1.887 1.511,2 1.24,2 H 0 C -0.256,2 -0.526,1.888 -0.707,1.707 -0.805,1.617 -0.874,1.509 -0.914,1.385 -0.977,1.266 -1.005,1.138 -1,1 -0.989,0.741 -0.904,0.473 -0.707,0.293 -0.512,0.113 -0.271,0 0,0"
             style="fill:#ffffff;fill-opacity:1;fill-rule:nonzero;stroke:none"
             id="path1016" /></g><g
           id="g1018"
           transform="translate(410.1084,1314.4629)"><path
             d="M 0,0 C 1.287,0 1.289,2 0,2 -1.287,2 -1.289,0 0,0"
             style="fill:#ffffff;fill-opacity:1;fill-rule:nonzero;stroke:none"
             id="path1020" /></g><g
           id="g1022"
           transform="translate(372.9058,1422.3506)"><path
             d="M 0,0 H 1.24 C 1.497,0 1.766,0.111 1.947,0.292 2.044,0.383 2.114,0.491 2.154,0.615 2.216,0.734 2.245,0.862 2.24,1 2.229,1.258 2.144,1.527 1.947,1.707 1.751,1.887 1.511,2 1.24,2 H 0 C -0.256,2 -0.526,1.888 -0.707,1.707 -0.805,1.616 -0.874,1.509 -0.914,1.385 -0.977,1.266 -1.005,1.138 -1,1 -0.988,0.741 -0.903,0.473 -0.707,0.292 -0.512,0.113 -0.271,0 0,0"
             style="fill:#ffffff;fill-opacity:1;fill-rule:nonzero;stroke:none"
             id="path1024" /></g><g
           id="g1026"
           transform="translate(464.6724,1205.335)"><path
             d="M 0,0 C 1.287,0 1.289,2 0,2 -1.287,2 -1.289,0 0,0"
             style="fill:#ffffff;fill-opacity:1;fill-rule:nonzero;stroke:none"
             id="path1028" /></g><g
           id="g1030"
           transform="translate(410.1084,1189.2139)"><path
             d="M 0,0 C 1.287,0 1.289,2 0,2 -1.287,2 -1.289,0 0,0"
             style="fill:#ffffff;fill-opacity:1;fill-rule:nonzero;stroke:none"
             id="path1032" /></g><g
           id="g1034"
           transform="translate(544.0376,1237.5776)"><path
             d="M 0,0 C 1.287,0 1.289,2 0,2 -1.287,2 -1.289,0 0,0"
             style="fill:#ffffff;fill-opacity:1;fill-rule:nonzero;stroke:none"
             id="path1036" /></g><g
           id="g1038"
           transform="translate(591.1611,1248.7383)"><path
             d="M 0,0 C 1.287,0 1.289,2 0,2 -1.287,2 -1.289,0 0,0"
             style="fill:#ffffff;fill-opacity:1;fill-rule:nonzero;stroke:none"
             id="path1040" /></g><g
           id="g1042"
           transform="translate(516.7559,1145.811)"><path
             d="M 0,0 C 1.287,0 1.289,2 0,2 -1.287,2 -1.289,0 0,0"
             style="fill:#ffffff;fill-opacity:1;fill-rule:nonzero;stroke:none"
             id="path1044" /></g><g
           id="g1046"
           transform="translate(563.8789,1088.7671)"><path
             d="M 0,0 C 1.287,0 1.289,2 0,2 -1.287,2 -1.289,0 0,0"
             style="fill:#ffffff;fill-opacity:1;fill-rule:nonzero;stroke:none"
             id="path1048" /></g><g
           id="g1050"
           transform="translate(628.6035,1112.0884)"><path
             d="M 0,0 V -1.24 C 0,-1.496 0.112,-1.766 0.293,-1.947 0.384,-2.044 0.491,-2.113 0.615,-2.154 0.734,-2.216 0.862,-2.245 1,-2.24 1.259,-2.229 1.527,-2.144 1.707,-1.947 1.887,-1.751 2,-1.511 2,-1.24 V 0 C 2,0.257 1.889,0.526 1.707,0.708 1.617,0.805 1.509,0.874 1.385,0.914 1.266,0.977 1.138,1.005 1,1 0.742,0.989 0.473,0.904 0.293,0.708 0.113,0.512 0,0.271 0,0"
             style="fill:#ffffff;fill-opacity:1;fill-rule:nonzero;stroke:none"
             id="path1052" /></g><g
           id="g1054"
           transform="translate(518.5269,1366.2803)"><path
             d="M 0,0 C 1.287,0 1.289,2 0,2 -1.287,2 -1.289,0 0,0"
             style="fill:#ffffff;fill-opacity:1;fill-rule:nonzero;stroke:none"
             id="path1056" /></g><g
           id="g1058"
           transform="translate(486.3193,1472.4458)"><path
             d="M 0,0 C 1.287,0 1.289,2 0,2 -1.287,2 -1.289,0 0,0"
             style="fill:#ffffff;fill-opacity:1;fill-rule:nonzero;stroke:none"
             id="path1060" /></g><g
           id="g1062"
           transform="translate(892.1699,1698.8931)"><path
             d="M 0,0 C -2.117,13.37 -1.479,21.818 0.578,35.197 5.229,24.284 11.931,14.248 20.229,5.77 33.889,12.591 48.545,17.413 63.586,20.034 56.498,13.338 39.232,-4.109 39.232,-4.109 c 0,0 27.95,-21.989 37.476,-33.095 -13.492,-0.472 -27.103,3.489 -38.235,11.127 -2.31,-21.623 -4.621,-43.245 -6.932,-64.868 -4.562,16.472 -9.124,32.944 -13.686,49.416 -4.932,0.524 -9.442,-2.566 -13.437,-5.506 -10.027,-7.38 -20.054,-14.759 -30.081,-22.139 4.76,15.43 16.065,27.828 27.041,39.67 -20.566,5.854 -38.946,19.094 -51.012,36.747 17.936,0.523 32.859,-0.928 49.695,-7.132"
             style="fill:#00fff4;fill-opacity:1;fill-rule:nonzero;stroke:none"
             id="path1064" /></g><g
           id="g1066"
           transform="translate(892.7725,1699.0596)"><path
             d="m 0,0 c -0.903,5.77 -1.417,11.585 -1.254,17.429 0.163,5.85 0.947,11.657 1.832,17.436 -0.381,-0.05 -0.762,-0.1 -1.142,-0.15 C 4.141,23.744 10.854,13.712 19.185,5.162 19.388,4.952 19.693,4.94 19.942,5.063 33.579,11.849 48.149,16.628 63.15,19.265 62.948,19.613 62.745,19.961 62.542,20.309 55.02,13.195 47.754,5.801 40.459,-1.544 c -0.758,-0.763 -1.515,-1.525 -2.271,-2.289 -0.217,-0.22 -0.268,-0.674 0,-0.884 9.948,-7.829 19.752,-15.93 29.025,-24.552 2.931,-2.725 5.836,-5.509 8.451,-8.544 0.148,0.356 0.295,0.711 0.442,1.067 -13.447,-0.423 -26.801,3.47 -37.92,11.042 -0.431,0.293 -0.894,-0.11 -0.94,-0.54 -1.8,-16.836 -3.599,-33.672 -5.398,-50.507 -0.512,-4.787 -1.023,-9.574 -1.535,-14.36 0.41,0.055 0.819,0.111 1.228,0.166 -4.562,16.472 -9.124,32.944 -13.686,49.416 -0.078,0.283 -0.325,0.435 -0.603,0.459 -3.857,0.33 -7.405,-1.302 -10.569,-3.358 -3.724,-2.419 -7.229,-5.212 -10.803,-7.842 -7.487,-5.51 -14.974,-11.021 -22.461,-16.53 0.306,-0.236 0.612,-0.471 0.918,-0.706 4.846,15.496 16.072,27.731 26.88,39.394 0.319,0.344 0.188,0.911 -0.276,1.045 -15.868,4.554 -30.383,13.431 -41.726,25.423 -3.255,3.442 -6.23,7.132 -8.911,11.036 -0.18,-0.314 -0.36,-0.627 -0.54,-0.941 8.403,0.237 16.833,0.074 25.176,-1.033 8.324,-1.104 16.471,-3.189 24.352,-6.076 0.756,-0.277 1.083,0.931 0.333,1.206 -7.939,2.908 -16.136,4.983 -24.519,6.099 -8.399,1.118 -16.881,1.293 -25.342,1.054 -0.443,-0.012 -0.82,-0.533 -0.54,-0.94 9.538,-13.889 22.843,-25.086 38.152,-32.126 4.281,-1.968 8.705,-3.608 13.233,-4.908 -0.092,0.348 -0.184,0.696 -0.276,1.044 -10.959,-11.826 -22.288,-24.234 -27.201,-39.945 -0.153,-0.488 0.472,-1.034 0.918,-0.706 7.22,5.314 14.439,10.627 21.658,15.94 3.499,2.574 6.948,5.238 10.522,7.705 3.277,2.261 6.915,4.266 11.022,3.915 -0.2,0.153 -0.401,0.305 -0.602,0.458 4.562,-16.471 9.124,-32.944 13.686,-49.415 0.199,-0.721 1.156,-0.505 1.227,0.166 1.8,16.836 3.599,33.672 5.398,50.507 0.512,4.787 1.023,9.573 1.535,14.36 -0.314,-0.18 -0.627,-0.36 -0.941,-0.54 11.287,-7.686 24.903,-11.641 38.551,-11.212 0.565,0.018 0.793,0.66 0.442,1.067 -5.075,5.89 -11.065,11.043 -16.929,16.121 -5.571,4.824 -11.251,9.523 -16.994,14.141 -1.181,0.949 -2.363,1.896 -3.553,2.834 v -0.884 c 6.096,6.16 12.218,12.297 18.399,18.372 1.971,1.938 3.947,3.871 5.955,5.77 0.49,0.463 -0.035,1.146 -0.608,1.045 C 47.71,17.815 33.044,12.976 19.311,6.143 19.563,6.11 19.816,6.078 20.068,6.045 11.808,14.524 5.181,24.468 0.515,35.346 0.311,35.822 -0.549,35.71 -0.627,35.197 -1.529,29.309 -2.337,23.39 -2.504,17.429 -2.671,11.473 -2.125,5.547 -1.205,-0.333 -1.081,-1.125 0.124,-0.789 0,0"
             style="fill:#000000;fill-opacity:1;fill-rule:nonzero;stroke:none"
             id="path1068" /></g><g
           id="g1070"
           transform="translate(74.5566,1214.3081)"><path
             d="m 0,0 c -4.953,10.468 -8.772,21.475 -11.374,32.759 4.25,-5.348 8.83,-10.366 13.447,-15.394 4.074,-3.27 6.074,-8.27 11.074,-10.27 13,4 25,10 37.164,16.502 -0.201,-0.26 -5.642,-3.284 0,0 -0.201,-0.26 -3.144,-3.868 -3.781,-3.076 -0.637,0.792 3.442,2.91 3.781,3.076 -3.582,-4.609 -7.163,-9.219 -10.744,-13.828 -1.42,-3.674 -5.42,-5.674 -6.42,-9.674 11,-12 23,-24 34.142,-36.353 -0.066,-0.079 0.084,-0.079 0,0 -12.142,-0.647 -22.142,6.353 -31.142,12.353 -1,1 -3,-1 -4,-3 -4,-14 -7,-29 -9.636,-42.839 -3.363,12.943 -6.078,26.055 -8.132,39.268 -9.586,-7.23 -20.969,-12.053 -32.832,-13.91 5.336,9.934 14.612,17.669 25.343,21.133 -15.514,1.299 -30.624,7.066 -43.029,16.479 11.535,4.272 23.792,6.587 36.091,6.831"
             style="fill:#00fff4;fill-opacity:1;fill-rule:nonzero;stroke:none"
             id="path1072" /></g><g
           id="g1074"
           transform="translate(75.0962,1214.6235)"><path
             d="m 0,0 c -4.919,10.436 -8.703,21.372 -11.311,32.61 l -1.044,-0.608 c 3.458,-4.338 7.138,-8.489 10.876,-12.586 0.887,-0.974 1.741,-2.035 2.711,-2.923 0.8,-0.733 1.584,-1.445 2.31,-2.255 1.372,-1.53 2.595,-3.189 4.027,-4.665 1.277,-1.316 2.799,-2.582 4.528,-3.251 0.961,-0.372 2.165,0.32 3.103,0.629 1.387,0.457 2.767,0.937 4.14,1.439 4.879,1.782 9.659,3.829 14.361,6.036 5.546,2.602 10.983,5.43 16.385,8.316 l -0.757,0.982 c -0.211,-0.211 -0.818,-0.516 -1.169,-0.721 -0.262,-0.152 -0.526,-0.3 -0.788,-0.451 -0.079,-0.046 -0.527,-0.268 -0.318,-0.187 0.257,-0.256 0.513,-0.512 0.769,-0.768 -0.294,-0.845 -0.365,-0.3 -0.145,-0.277 0.136,0.014 0.352,0.213 0.47,0.284 0.643,0.385 1.291,0.761 1.938,1.138 l -0.757,0.982 c -0.378,-0.48 -0.784,-0.941 -1.2,-1.388 -0.34,-0.365 -0.69,-0.728 -1.068,-1.055 -0.28,-0.241 -0.917,-0.484 -0.679,-0.756 0.247,-0.28 0.492,0.208 0.787,0.446 0.373,0.299 0.786,0.555 1.193,0.805 0.561,0.345 1.136,0.671 1.724,0.966 l -0.757,0.982 C 45.847,19.242 42.365,14.761 38.884,10.279 38.295,9.521 37.979,8.615 37.429,7.82 36.773,6.876 35.98,6.038 35.218,5.181 34.002,3.813 32.826,2.382 32.211,0.632 c -0.388,-1.106 -0.017,-1.326 0.749,-2.159 1.013,-1.1 2.03,-2.197 3.05,-3.289 1.842,-1.973 3.693,-3.935 5.551,-5.892 3.863,-4.072 7.75,-8.121 11.615,-12.19 2.217,-2.333 4.427,-4.673 6.621,-7.027 1.096,-1.175 2.188,-2.353 3.274,-3.536 0.489,-0.532 0.976,-1.064 1.462,-1.597 0.27,-0.296 0.539,-0.592 0.808,-0.889 0.1,-0.11 0.805,-0.824 0.79,-0.686 0.088,-0.79 1.339,-0.799 1.25,0 -0.002,0.02 -0.004,0.04 -0.006,0.06 -0.036,0.323 -0.258,0.642 -0.625,0.625 -11.069,-0.51 -20.534,5.396 -29.389,11.307 -0.681,0.455 -1.495,1.277 -2.365,1.311 -0.86,0.035 -1.654,-0.621 -2.226,-1.187 -1.972,-1.951 -2.382,-4.685 -3.069,-7.263 -1.601,-6.007 -3.016,-12.062 -4.326,-18.138 -1.432,-6.639 -2.734,-13.304 -4.006,-19.975 h 1.206 c -3.356,12.947 -6.071,26.053 -8.133,39.268 -0.058,0.374 -0.616,0.6 -0.918,0.374 -9.599,-7.196 -20.835,-11.957 -32.682,-13.848 0.235,-0.306 0.471,-0.612 0.706,-0.918 5.329,9.816 14.35,17.365 24.968,20.846 0.689,0.226 0.532,1.168 -0.166,1.228 -15.445,1.334 -30.34,7.056 -42.713,16.393 l -0.15,-1.142 c 11.516,4.236 23.658,6.54 35.925,6.808 0.803,0.018 0.806,1.268 0,1.25 -12.372,-0.271 -24.641,-2.579 -36.257,-6.853 -0.535,-0.197 -0.586,-0.813 -0.149,-1.142 12.554,-9.474 27.683,-15.211 43.344,-16.564 -0.055,0.409 -0.111,0.818 -0.166,1.228 -10.92,-3.58 -20.23,-11.318 -25.716,-21.421 -0.279,-0.515 0.179,-1.002 0.706,-0.918 11.938,1.905 23.308,6.722 32.981,13.973 l -0.918,0.374 c 2.062,-13.215 4.776,-26.321 8.132,-39.268 0.148,-0.571 1.088,-0.62 1.206,0 2.17,11.39 4.433,22.77 7.269,34.016 0.702,2.784 1.32,5.654 2.239,8.376 0.352,1.042 1.359,2.761 2.495,3.143 0.921,0.309 2.546,-1.294 3.283,-1.783 4.087,-2.715 8.245,-5.368 12.736,-7.374 5.1,-2.279 10.543,-3.609 16.153,-3.351 -0.209,0.208 -0.417,0.417 -0.625,0.625 0.002,-0.02 0.004,-0.04 0.006,-0.06 0.088,-0.79 1.339,-0.799 1.25,0 -0.069,0.628 -0.759,1.133 -1.156,1.57 -0.754,0.831 -1.511,1.66 -2.27,2.486 -1.413,1.538 -2.834,3.069 -4.262,4.594 -2.968,3.171 -5.962,6.319 -8.96,9.463 -5.929,6.215 -11.877,12.413 -17.684,18.742 0.054,-0.203 0.108,-0.406 0.161,-0.608 0.572,2.075 1.949,3.627 3.353,5.197 0.607,0.68 1.208,1.365 1.747,2.101 0.622,0.85 0.995,1.832 1.607,2.675 3.279,4.519 6.871,8.843 10.296,13.253 0.425,0.546 -0.088,1.316 -0.757,0.981 -0.952,-0.475 -5.18,-2.434 -3.956,-3.994 1.24,-1.582 4.063,2.186 4.713,3.013 0.412,0.524 -0.097,1.366 -0.757,0.981 -0.75,-0.437 -1.518,-0.856 -2.248,-1.324 -0.245,-0.156 -0.488,-0.273 -0.59,-0.568 -0.148,-0.425 0.332,-0.94 0.769,-0.769 0.911,0.356 2.132,0.986 2.826,1.68 0.511,0.51 -0.137,1.313 -0.757,0.981 C 40.383,18.975 31.198,14.281 21.593,10.567 19.156,9.625 16.694,8.745 14.208,7.94 13.559,7.73 12.933,7.398 12.244,7.618 11.812,7.756 11.372,8.075 10.991,8.319 10.105,8.888 9.313,9.585 8.575,10.333 c -1.36,1.378 -2.526,2.93 -3.795,4.389 -1.44,1.653 -3.094,3.082 -4.573,4.699 -4.012,4.385 -7.973,8.817 -11.678,13.465 -0.416,0.521 -1.174,-0.054 -1.045,-0.608 C -9.883,20.933 -6.045,9.903 -1.079,-0.631 -0.736,-1.358 0.342,-0.725 0,0"
             style="fill:#000000;fill-opacity:1;fill-rule:nonzero;stroke:none"
             id="path1076" /></g><g
           id="g1078"
           transform="translate(135.2505,1699.6143)"><path
             d="m 0,0 c 5.024,2.991 5.796,10.429 2.273,14.868 -4.58,5.771 -13.838,3.466 -18.821,-0.43 -5.544,-4.334 -8.553,-11.431 -7.418,-18.411 1.136,-6.987 6.22,-13.147 12.541,-16.167 6.721,-3.212 14.518,-2.71 21.171,0.421 6.472,3.045 11.488,8.514 14.015,15.189 4.644,12.269 0.758,27.618 -10.159,35.245 -10.788,7.536 -26.539,6.415 -36.557,-1.905 -1.27,-1.055 -2.424,-2.232 -3.472,-3.508 -1.013,-1.234 0.745,-3.012 1.768,-1.767 7.431,9.047 20.658,11.986 31.494,7.93 C 18.109,27.246 24.056,15.272 23.065,3.642 22.57,-2.171 20.237,-7.844 16.174,-12.07 c -4.587,-4.773 -11.104,-7.78 -17.76,-7.784 -6.45,-0.004 -12.6,3.12 -16.436,8.313 -3.757,5.087 -4.915,11.746 -2.132,17.559 2.662,5.563 8.26,9.922 14.612,9.759 C -2.543,15.7 0.142,14.473 1.327,11.608 2.225,9.436 2.189,6.742 1.087,4.648 0.535,3.6 -0.243,2.765 -1.262,2.159 -2.643,1.336 -1.387,-0.826 0,0"
             style="fill:#5a319b;fill-opacity:1;fill-rule:nonzero;stroke:none"
             id="path1080" /></g><g
           id="g1082"
           transform="translate(975.7256,1319.7603)"><path
             d="M 0,0 C 9.962,0.982 11.695,15.861 4.049,20.955 -0.677,24.104 -6.977,23.303 -11.644,20.477 -16.806,17.351 -19.788,11.975 -20.17,6 c -0.392,-6.129 1.952,-12.389 6.106,-16.882 4.488,-4.856 11.043,-7.414 17.564,-7.792 11.629,-0.673 22.016,5.815 27.557,15.862 5.063,9.181 6.147,20.835 1.36,30.354 -2.921,5.808 -7.927,10.41 -13.401,13.786 -5.969,3.681 -12.872,6.343 -19.729,7.782 -3.826,0.803 -7.781,1.087 -11.627,0.254 -3.616,-0.783 -6.993,-2.522 -10.007,-4.631 -5.091,-3.563 -9.391,-8.16 -12.725,-13.398 -6.47,-10.166 -9.316,-22.713 -7.774,-34.671 1.568,-12.157 7.789,-23.12 17.304,-30.837 9.456,-7.669 21.58,-12.134 33.799,-11.879 2.973,0.062 5.938,0.419 8.846,1.035 1.573,0.334 0.908,2.744 -0.665,2.411 -21.826,-4.627 -46.257,8.163 -54.226,29.163 -3.898,10.271 -3.838,21.762 -0.465,32.166 3.484,10.75 10.846,20.958 21.044,26.212 3.252,1.675 6.758,2.532 10.423,2.437 3.612,-0.094 7.151,-0.979 10.586,-2.046 6.037,-1.875 11.937,-4.456 17.037,-8.237 4.476,-3.318 8.392,-7.731 10.385,-12.993 1.674,-4.416 2.122,-9.218 1.528,-13.892 -1.194,-9.41 -6.624,-18.587 -15.019,-23.252 -9.932,-5.519 -24.455,-3.965 -31.415,5.612 -3.302,4.545 -4.857,10.524 -3.609,16.062 1.172,5.206 4.906,9.44 9.997,11.136 4.28,1.427 9.862,0.841 12.344,-3.397 C 7.013,13.008 6.765,8.179 4.411,5.064 3.341,3.648 1.781,2.675 0,2.5 -1.586,2.344 -1.603,-0.158 0,0"
             style="fill:#5a319b;fill-opacity:1;fill-rule:nonzero;stroke:none"
             id="path1084" /></g><g
           id="g1086"
           transform="translate(551.8433,1752.7271)"><path
             d="m 0,0 c -3.475,-2.561 -4.22,-7.238 -2.737,-11.139 1.595,-4.201 5.485,-7.073 10.084,-6.275 4.861,0.845 8.597,5.536 9.055,10.319 0.413,4.315 -2.273,8.383 -6.371,9.741 C 4.818,4.374 -0.076,1.08 -2.653,-3.313 c -0.653,-1.112 1.075,-2.12 1.726,-1.009 1.886,3.214 5.151,5.934 9.101,5.363 3.192,-0.462 5.785,-3.042 6.212,-6.249 0.532,-3.994 -2.153,-8.225 -5.811,-9.77 -3.507,-1.481 -7.104,0.052 -8.882,3.299 -1.688,3.085 -1.762,7.683 1.316,9.952 C 2.034,-0.971 1.038,0.765 0,0"
             style="fill:#ffffff;fill-opacity:1;fill-rule:nonzero;stroke:none"
             id="path1088" /></g><g
           id="g1090"
           transform="translate(1004.7349,1811.8315)"><path
             d="m 0,0 c -4.792,-1.104 -7.266,-6.363 -7.793,-10.834 -0.279,-2.367 -0.025,-4.845 1.013,-7.011 1.064,-2.219 3.113,-3.798 5.42,-4.569 4.874,-1.628 10.861,0.344 13.691,4.655 3.18,4.844 1.313,11.461 -2.803,15.125 C 7.183,-0.546 3.934,0.838 0.764,0.23 -2.8,-0.453 -5.489,-3.45 -6.723,-6.723 c -0.455,-1.206 1.478,-1.727 1.929,-0.531 0.922,2.448 2.903,4.674 5.476,5.408 2.32,0.662 4.812,-0.227 6.698,-1.606 3.658,-2.673 5.864,-8.069 3.765,-12.351 -1.869,-3.814 -6.636,-5.802 -10.727,-5.009 -1.981,0.385 -3.915,1.42 -5.019,3.158 -1.026,1.615 -1.343,3.572 -1.293,5.458 0.107,3.988 2.092,9.269 6.426,10.268 C 1.786,-1.64 1.255,0.29 0,0"
             style="fill:#ffffff;fill-opacity:1;fill-rule:nonzero;stroke:none"
             id="path1092" /></g><g
           id="g1094"
           transform="translate(899.3955,1077.4155)"><path
             d="m 0,0 c 2.5,8.097 6.142,18.91 16.099,19.744 3.962,0.332 7.999,-1.194 9.526,-5.11 1.608,-4.121 1.208,-8.83 4.721,-12.054 5.417,-4.972 14.566,-3.416 20.063,0.58 3.779,2.748 6.588,6.662 9.188,10.483 2.749,4.04 5.339,8.485 9.064,11.724 2.522,2.192 6.224,3.402 9.076,1.134 2.014,-1.601 3.12,-4.224 4.033,-6.551 2.047,-5.219 3.359,-11.801 7.89,-15.545 2.077,-1.717 4.803,-2.601 7.49,-2.198 2.709,0.406 4.984,2.117 6.863,4.02 4.387,4.44 7.288,10.45 12.447,14.12 2.36,1.678 5.241,2.623 8.138,2.005 3.01,-0.644 5.444,-2.695 7.536,-4.848 4.601,-4.733 8.192,-10.86 14.083,-14.17 1.356,-0.762 2.818,-1.327 4.343,-1.637 1.256,-0.257 1.794,1.671 0.531,1.928 -6.775,1.381 -11.026,7.868 -15.249,12.765 -4.033,4.678 -9.175,9.428 -15.863,7.812 C 113.761,22.7 109.866,16.606 106.199,11.877 103.045,7.81 98.488,2.078 92.671,4.822 c -2.517,1.187 -4.089,3.627 -5.266,6.05 -1.359,2.799 -2.267,5.792 -3.358,8.699 C 82.234,24.402 79.427,30.3 73.299,29.702 68.507,29.234 65.123,24.901 62.463,21.316 59.472,17.284 56.976,12.88 53.705,9.056 50.885,5.759 47.614,3.16 43.358,2.059 39.884,1.16 35.848,1.189 32.757,3.216 28.63,5.923 29.122,11.038 27.554,15.166 26.137,18.898 22.912,21.172 18.999,21.673 15.241,22.154 11.24,21.104 8.213,18.822 4.417,15.959 2.073,11.646 0.364,7.304 -0.509,5.085 -1.226,2.809 -1.929,0.532 -2.309,-0.701 -0.379,-1.228 0,0"
             style="fill:#ffffff;fill-opacity:1;fill-rule:nonzero;stroke:none"
             id="path1096" /></g><g
           id="g1098"
           transform="translate(72.9976,1866.7568)"><path
             d="m 0,0 c -2.034,5.781 -4.509,13.357 0.615,18.313 3.08,2.98 7.218,2.28 9.885,-0.709 4.731,-5.306 5.728,-13.678 11.985,-17.712 3.747,-2.415 8.269,-1.663 11.598,1.102 3.84,3.19 5.911,8.038 7.252,12.721 0.615,2.144 1.17,4.306 1.891,6.418 0.626,1.836 1.36,3.842 2.69,5.3 1.114,1.221 2.606,1.645 4.152,0.93 1.837,-0.85 2.509,-3.013 2.928,-4.831 1.03,-4.479 0.968,-8.992 3.245,-13.12 2.466,-4.471 7.088,-8.772 12.581,-7.842 7.326,1.242 9.633,10.054 11.909,15.938 1.12,2.895 2.374,6.287 4.882,8.288 3.053,2.435 7.107,1.302 9.476,-1.507 3.298,-3.91 3.88,-9.112 5.863,-13.652 1.808,-4.14 5.298,-9.232 10.358,-9.251 0.933,-0.004 2.429,0.09 3.031,0.876 0.477,0.623 0.762,1.528 1.111,2.23 0.444,0.892 0.889,1.783 1.333,2.675 1.704,3.419 3.407,6.838 5.111,10.257 l 2.222,4.459 c 0.716,1.436 1.38,3 2.459,4.211 1.905,2.137 4.727,2.057 7.123,0.814 5.434,-2.818 6.617,-9.231 10.011,-13.825 2.629,-3.557 7.157,-5.904 11.594,-4.272 1.831,0.673 3.176,2.02 3.726,3.905 0.361,1.238 -1.569,1.766 -1.928,0.532 -1.044,-3.581 -5.925,-3.394 -8.607,-1.96 -4.058,2.17 -5.611,7.485 -7.769,11.231 -2.057,3.571 -5.429,6.862 -9.733,7.267 -5.116,0.481 -7.233,-4.144 -9.158,-8.009 -3.074,-6.168 -6.148,-12.337 -9.222,-18.505 0.199,0.153 0.399,0.306 0.598,0.459 -4.232,-1.394 -7.519,2.312 -9.408,5.653 -2.028,3.586 -2.707,7.706 -4.364,11.458 -1.435,3.251 -3.594,6.576 -7.088,7.834 -2.563,0.923 -5.547,0.496 -7.727,-1.131 C 80.25,23.281 78.866,16.973 76.939,12.167 74.889,7.054 70.972,0.187 64.307,3.077 60.389,4.776 57.503,9.098 56.461,13.129 55.565,16.596 55.635,20.282 54.472,23.685 53.51,26.501 51.29,28.974 48.059,28.707 45.143,28.466 43.404,25.753 42.327,23.322 39.259,16.396 39.051,8.116 33.051,2.74 30.344,0.314 26.637,-0.407 23.495,1.619 21.129,3.144 19.594,5.729 18.276,8.144 15.794,12.693 13.709,19.236 8.61,21.542 5.505,22.947 1.964,22.218 -0.545,19.965 -4.04,16.828 -4.874,12.019 -4.202,7.562 -3.782,4.78 -2.859,2.113 -1.929,-0.531 -1.504,-1.737 0.429,-1.218 0,0"
             style="fill:#ffffff;fill-opacity:1;fill-rule:nonzero;stroke:none"
             id="path1100" /></g></g></g></g></svg>
