<?xml version="1.0" encoding="UTF-8"?>
<svg version="1.1" viewBox="0 0 1913.8 1898.9" xmlns="http://www.w3.org/2000/svg">
 <defs>
  <clipPath id="clipPath886">
   <path d="m321.78 1598.5h441.59v-567.52h-441.59z"/>
  </clipPath>
  <clipPath id="clipPath1114">
   <path d="m418.27 1257.7h41.735v-18.34h-41.735z"/>
  </clipPath>
 </defs>
 <g transform="matrix(1.3333 0 0 -1.3333 277.88 2723.1)">
  <g transform="translate(155.78 1752.3)">
   <path d="m0 0c79.067 56.059 140.04 155.6 213.55 212.16 73.51 56.552 174.21 105.34 255.17 60.097 50.712-28.336 77.272-85.815 120.54-124.58 93.577-83.83 253.64-71.641 330.13-171.3 67.189-87.541 34.06-212.86 53.627-321.46 12.083-67.071 44.858-128.29 69.287-191.91s40.557-134.95 18.288-199.36c-34.005-98.354-145.13-147.61-248.2-161.97-103.07-14.359-210.44-5.628-308.83-39.536-123.18-42.451-218.38-147.24-343.45-183.75-69.444-20.27-147.33-17.077-210.7 17.824-89.636 49.368-136.38 151.54-161.66 250.7-25.281 99.159-35.664 203.43-80.135 295.59-25.571 52.993-62.519 102.52-70.264 160.84-6.732 50.698 9.46 101.81 31.227 148.09 72.77 154.72 210.72 136.77 371.64 281.87" fill="#6f6fe2"/>
  </g>
  <g transform="translate(554.64 891.33)">
   <path d="m0 0c27.411 4.621 55.385-0.449 82.968-3.899 126.13-15.776 262.51 5.835 360.46 86.854 97.944 81.02 144.3 229.81 84.224 341.82-23.697 44.181-61.6 80.412-79.589 127.21-25.682 66.804-13.801 157.09-74.386 195.2-36.416 22.901-84.271 14.841-124.76 29.362-94.556 33.908-111.34 169.91-198.65 219.58-57.049 32.456-130.58 18.562-187.63-13.897-57.046-32.46-102.87-81.026-153.86-122.35-81.147-65.77-184.28-125.3-204.23-227.84-12.488-64.184 12.25-130.09 7.709-195.32-5.506-79.089-53.328-150.13-61.462-228.99-12.524-121.43 78.07-238.44 192.94-279.75 114.87-41.307 237.26 51.409 356.58 72.119" fill="#8787f9"/>
  </g>
  <g transform="translate(249.74 1019.9)">
   <path d="m0 0c-32.745 37.175-96.229 82.263-93.954 139.88 1.621 41.009 30.031 75.184 48.392 111.89 23.74 47.458 31.152 102.9 20.714 154.93-7.454 37.151-23.734 73.062-22.969 110.95 1.437 71.195 74.339 132.16 144.67 120.98 15.48-2.461 30.898-7.849 46.442-5.83 23.073 2.997 40.607 21.236 58.371 36.263 25.838 21.858 55.909 38.691 88.05 49.289 45.549 15.019 106.54 11.237 127.75-31.776 13.28-26.92 5.979-60.653 19.822-87.287 28.704-55.229 119.24-39.463 160.44-86.118 27.771-31.451 22.91-78.688 22.331-120.64-0.17-12.363 0.297-25.234 5.981-36.215 9.893-19.11 32.26-27.249 50.586-38.527 38.139-23.472 62.995-67.152 63.69-111.93 0.76-48.907-24.988-94.104-53.161-134.09-31.006-44.006-68.3-86.94-118.73-105.77-49.308-18.408-104.2-11.212-155.75-0.587-38.254 7.884-78.406 17.464-115.66 5.725-41.26-13.002-71.702-50.164-113.25-62.211-37.546-10.886-79.009 0.508-111.42 22.368-31.851 21.481-56.663 51.788-83.622 81.61" fill="#9a9afc"/>
  </g>
  <g clip-path="url(#clipPath886)">
   <g transform="translate(375.18 1092.5)">
    <path d="m0 0c1.579-18.066 2.653-36.039 1.844-53.919v-0.199c-18.888-0.278-30.998-0.53-33.134-0.636l-0.783 0.464c-43.042 174.98-38.784 501.61 184.82 555.28 172.82 41.463 233.89-184.5 235.38-318.05 0.942-84.16-10.001-160.43-10.001-244.2l-0.04-0.266c-8.595 1.446-20.254 2.64-34.195 3.648 1.327 18.239 3.236 39.713 4.908 61.015 1.127 14.259 2.122 28.425 2.785 41.49 0.133 2.773 0.305 5.558 0.478 8.343 1.273 20.029 3.409 40.31 4.708 60.578 1.168 18.517 1.632 37.02 0.054 55.324-0.027 0.239-0.04 0.465-0.067 0.703-1.485 17.522-2.785 37.074-4.589 57.434-1.22 13.808-2.666 28-4.576 42.18-6.274 46.928-17.496 93.777-41.583 126.76-20.255 27.709-54.396 67.037-87.265 73.775-37.975 7.786-77.423 0.067-109.59-18.37-79.492-45.576-100.25-137.72-110.56-223.69-5.743-47.963-4.576-96.178-4.576-144.76 0-27.88 3.582-55.497 5.969-82.9" fill="#ffffff"/>
   </g>
   <g transform="translate(624.85 1261.3)">
    <path d="m0 0c10.227 0.358 20.559 0.822 31.21 1.379 23.08 1.221 49.555 0.903 74.584-0.702l1.3 0.106c0.027-0.239 0.04-0.465 0.067-0.703 1.578-18.305 1.114-36.808-0.054-55.325l-1.737 0.106c-49.767 0-111.54 6.101-165.32 6.818 3.051 12.084 1.233 31.502 0.053 47.088v0.185c20.652 0 40.084 0.332 59.901 1.048" fill="#00fff4"/>
   </g>
   <g transform="translate(564.89 1213)">
    <path d="m0 0c53.786-0.716 115.56-6.817 165.32-6.817l1.738-0.107c-1.3-20.267-3.436-40.548-4.709-60.577-37.179 0.862-80.394 4.112-115.04 2.348-35.043-1.778-70.22-0.982-105.05-0.677-0.039 18.172-1.087 45.297-2.188 63.018l-0.04 0.318c17.8 2.216 38.24 2.799 59.967 2.494" fill="#00fff4"/>
   </g>
   <g transform="translate(731.94 1262.1)">
    <path d="m0 0-1.3-0.106c-25.029 1.605-51.504 1.923-74.584 0.703-10.651-0.557-20.984-1.021-31.21-1.38 0 16.156 0.132 46.359 0.132 56.121h0.133c16.7 1.141 33.717 1.658 50.762 1.87 17.018 0.226 34.062 0.172 50.854 0.172l0.624 0.054c1.804-20.361 3.104-39.912 4.589-57.434" fill="#00fff4"/>
   </g>
   <g transform="translate(727.35 1319.5)">
    <path d="m0 0-0.624-0.053c-16.792 0-33.836 0.053-50.854-0.173v0.319c-0.372 12.242 1.419 39.567 1.406 39.315l-0.04 0.331c14.737 1.937 29.937 2.401 45.271 2.401l0.265 0.04c1.91-14.18 3.356-28.372 4.576-42.18" fill="#00fff4"/>
   </g>
   <g transform="translate(507.15 1147.2)">
    <path d="m0 0c34.832-0.305 70.008-1.101 105.05 0.676 34.646 1.764 77.861-1.485 115.04-2.347-0.173-2.786-0.345-5.571-0.478-8.344-0.663-13.065-1.658-27.231-2.785-41.49-92.133-0.013-185.27-6.021-277.13-5.292l0.014 1.088c-4.099 9.576-3.701 17.508-4.59 27.602-0.384 4.391-0.119 25.693-0.026 25.693l-0.067 1.685c21.435 0.928 43.135 0.928 64.968 0.729" fill="#00fff4"/>
   </g>
   <g transform="translate(723.98 1095.7)">
    <path d="m0 0c-1.671-21.302-3.581-42.776-4.908-61.015-88.127 6.38-267.66 4.895-342.06 3.767v0.199c0.809 17.88-0.265 35.853-1.844 53.919 23.783-1.34 47.685-1.976 71.68-2.162 91.854-0.729 185 5.279 277.13 5.292" fill="#00fff4"/>
   </g>
   <g transform="translate(435.7 1170.6)">
    <path d="m0 0c1.817 7.269 1.923 14.949 0.318 22.257-6.804-2.878-14.365-7.375-21.156-10.253l-0.027-0.239c6.42-4.775 13.45-8.741 20.865-11.765m134.19 158.6c3.595 0.968 7.189 1.937 10.784 2.905-3.767 2.507-8.569 3.409-12.986 2.427 1.804 4.072 3.873 8.025 6.195 11.832-3.542-2.719-7.07-5.438-10.599-8.144-0.544-0.425-1.18-0.876-1.87-0.756-0.676 0.106-1.14 0.729-1.525 1.3-1.897 2.785-3.78 5.57-5.677 8.356 0.358-4.218 0.968-8.41 1.83-12.548l-0.013-0.053c-5 0.862-9.55 1.486-14.564 2.361 2.719-2.918 5.823-5.478 9.219-7.587-3.277-0.451-6.381-2.016-8.715-4.364 4.218-0.849 8.542-1.194 12.84-1.021-0.65-4.629-1.247-9.603 0.875-13.782 1.924 4.749 3.833 9.497 5.743 14.246 2.918-4.165 6.619-7.773 10.864-10.584-1.274 4.084-2.533 8.17-3.807 12.255-0.265 0.836-0.491 1.857 0.093 2.507 0.331 0.372 0.835 0.518 1.313 0.65m-139.17-66.32c2.507-0.451 4.947-0.584 7.361-0.478 4.431 0.199 8.795 1.234 13.291 2.865 2.202 0.796 7.64 3.926 7.375 4.537-0.053 0.132-7.733 6.937-17.403 8.634-2.427 0.425-4.974 0.531-7.56 0.133-5.001-0.782-10.134-3.475-14.75-9.391-0.769-0.981 2.255-4.377 11.699-6.194zm0.61 42.06c2.494-0.451 4.947-0.584 7.362-0.477 4.417 0.199 8.78 1.233 13.277 2.851 2.215 0.809 7.653 3.927 7.388 4.55-0.053 0.119-7.733 6.924-17.402 8.622-2.428 0.424-4.974 0.53-7.561 0.132-5.001-0.782-10.134-3.462-14.75-9.377-0.769-0.995 2.255-4.378 11.699-6.195zm-0.398-21.183c2.494-0.437 4.934-0.583 7.362-0.464 4.417 0.186 8.78 1.221 13.29 2.852 2.202 0.796 7.64 3.926 7.388 4.549-0.052 0.12-7.746 6.924-17.402 8.622-2.427 0.425-4.987 0.531-7.574 0.133-5.001-0.796-10.134-3.475-14.75-9.391-0.769-0.982 2.255-4.377 11.699-6.181zm87.756 218.65c4.934 4.603 9.868 9.179 14.802 13.781-6.274 0.77-12.561 1.486-18.848 2.149 1.074-4.536 2.839-11.274 3.913-15.797zm-21.979-66.135c-4.576-2.4-8.396-5.969-10.107-10.373-4.165-6.366-6.739-14.046-6.633-21.249l-0.968-0.026c-6.499-3.263-11.765-8.9-14.59-15.585-0.491-1.167-0.916-2.441-0.677-3.675 0.664-3.329 5.133-3.899 8.502-3.594 5.876 0.53 11.713 1.406 17.483 2.626 7.136-6.287 17.137-9.47 26.501-7.587 13.159 2.666 23.571 15.015 24.473 28.319 7.467 4.709 14.511 10.054 21.037 15.997 1.26 1.153 2.639 2.706 2.188 4.363-0.637 2.308-6.247 5.213-27.908-0.636l-0.544-0.345c-0.092 0.159-0.185 0.318-0.291 0.477-5.239 8.065-14.007 14.127-23.597 14.71-4.788 0.279-10.214-0.968-14.869-3.422m-54.529-289.82 0.066-1.684c-0.093 0-0.358-21.303 0.027-25.693 0.889-10.094 0.491-18.026 4.589-27.603l-0.013-1.087c-23.995 0.185-47.897 0.822-71.679 2.162-2.388 27.403-5.969 55.019-5.969 82.9 0 48.587-1.168 96.802 4.576 144.76 10.306 85.965 31.064 178.11 110.56 223.69 32.165 18.437 71.612 26.157 109.59 18.371 32.868-6.738 67.01-46.066 87.264-73.775 24.088-32.988 35.309-79.837 41.583-126.76l-0.265-0.04c-15.333 0-30.534-0.464-45.27-2.401l0.04-0.331c0.013 0.252-1.778-27.073-1.407-39.315v-0.319c-17.044-0.212-34.062-0.729-50.761-1.87h-0.133c0-9.762-0.133-39.965-0.133-56.12-19.816-0.717-39.248-1.048-59.9-1.048v-0.186c1.18-15.585 2.997-35.004-0.054-47.088-21.726 0.305-42.166-0.278-59.966-2.493l0.039-0.319c1.101-17.72 2.149-44.845 2.189-63.017-21.833 0.198-43.533 0.198-64.968-0.73" fill="#a55aff"/>
   </g>
   <g transform="translate(556.03 1334.5)">
    <path d="m0 0 0.013 0.053c-0.862 4.138-1.472 8.33-1.83 12.548 1.897-2.786 3.78-5.571 5.677-8.356 0.385-0.571 0.849-1.194 1.525-1.3 0.69-0.12 1.326 0.331 1.87 0.756 3.529 2.706 7.057 5.425 10.599 8.144-2.322-3.807-4.391-7.76-6.195-11.832 4.417 0.982 9.219 0.08 12.986-2.427-3.595-0.968-7.189-1.937-10.784-2.905-0.478-0.132-0.982-0.278-1.313-0.65-0.584-0.65-0.358-1.671-0.093-2.507 1.274-4.085 2.533-8.17 3.807-12.255-4.245 2.811-7.946 6.419-10.864 10.584-1.91-4.749-3.819-9.497-5.743-14.246-2.122 4.179-1.525 9.153-0.875 13.782-4.298-0.173-8.622 0.172-12.84 1.021 2.334 2.348 5.438 3.913 8.715 4.364-3.396 2.109-6.5 4.669-9.219 7.587 5.014-0.875 9.564-1.499 14.564-2.361" fill="#ffa697"/>
   </g>
   <g transform="translate(563.92 1425.5)">
    <path d="m0 0c0.451-1.658-0.928-3.21-2.188-4.364-6.526-5.942-13.57-11.287-21.038-15.996 0.08 1.127 0.093 2.268 0.027 3.409-0.318 5.65-2.228 11.168-5.253 15.97l0.544 0.344c21.66 5.85 27.271 2.945 27.908 0.637" fill="#a55aff"/>
   </g>
   <g transform="translate(486.61 1425.9)">
    <path d="m0 0c2.772 4.218 6.234 7.853 10.107 10.373 4.656 2.454 10.081 3.7 14.869 3.422 9.59-0.584 18.358-6.646 23.597-14.71 0.106-0.159 0.199-0.318 0.292-0.478 3.024-4.801 4.934-10.319 5.253-15.969 0.066-1.141 0.052-2.282-0.027-3.409-15.585-9.869-32.935-16.938-50.974-20.732-3.741 3.289-6.699 7.441-8.37 12.163-0.915 2.547-1.352 5.279-1.379 8.091-0.106 7.203 2.467 14.882 6.632 21.249" fill="#ffa697"/>
   </g>
   <g transform="translate(533.5 1516.2)">
    <path d="m0 0c-4.935-4.603-9.869-9.179-14.803-13.781l-0.133 0.132c-1.074 4.524-2.838 11.261-3.913 15.798 6.288-0.663 12.575-1.379 18.849-2.149" fill="#a55aff"/>
   </g>
   <g transform="translate(489.73 1384.4)">
    <path d="M 0,0 C 18.039,3.794 35.389,10.863 50.974,20.732 50.072,7.428 39.66,-4.921 26.501,-7.587 17.137,-9.47 7.136,-6.287 0,0" fill="#ffa697"/>
   </g>
   <g transform="translate(481.36 1396.5)">
    <path d="m0 0c1.671-4.722 4.629-8.874 8.37-12.164-5.77-1.22-11.606-2.095-17.482-2.626-3.369-0.305-7.839 0.266-8.503 3.595-0.239 1.234 0.186 2.507 0.677 3.674 2.825 6.685 8.091 12.322 14.59 15.585l0.969 0.027c0.026-2.812 0.464-5.545 1.379-8.091" fill="#a55aff"/>
   </g>
   <g transform="translate(459.36 1311.9)">
    <path d="m0 0c0.265-0.624-5.173-3.741-7.388-4.55-4.497-1.618-8.861-2.653-13.278-2.851l-0.066 2.414c1.923 3.209 6.075 6.857 4.099 10.054-0.279 0.451-0.69 0.65-1.167 0.65l0.398 2.905c9.669-1.698 17.349-8.503 17.402-8.622" fill="#ffffff"/>
   </g>
   <g transform="translate(458.98 1290.7)">
    <path d="m0 0c0.252-0.623-5.186-3.753-7.388-4.549-4.51-1.632-8.874-2.666-13.291-2.852l-0.066 2.401c1.936 3.223 6.075 6.871 4.112 10.054-0.279 0.451-0.703 0.65-1.167 0.65l0.398 2.918c9.656-1.698 17.349-8.502 17.402-8.622" fill="#ffffff"/>
   </g>
   <g transform="translate(458.75 1269.8)">
    <path d="m0 0c0.266-0.61-5.173-3.741-7.375-4.537-4.496-1.631-8.86-2.666-13.291-2.864l-0.065 2.414c1.923 3.21 6.074 6.87 4.111 10.054-0.278 0.451-0.703 0.65-1.167 0.65l0.385 2.918c9.669-1.698 17.349-8.503 17.402-8.635" fill="#ffffff"/>
   </g>
   <g transform="translate(437.97 1313.6)">
    <path d="m0 0c-0.186 1.777 2.029 3.939 3.595 3.939 0.477 0 0.888-0.199 1.167-0.649 1.976-3.197-2.176-6.845-4.099-10.055-2.746 1.698-4.987 4.218-6.38 7.136-0.292 0.624-0.557 1.3-0.477 1.99 0.132 1.34 1.644 2.242 2.984 2.042 0.12-0.026 0.252-0.052 0.372-0.092 1.405-0.438 2.652-2.839 2.798-4.311z" fill="#000000"/>
   </g>
   <g transform="translate(437.58 1292.4)">
    <path d="m0 0c-0.199 1.764 2.003 3.939 3.595 3.939 0.464 0 0.888-0.198 1.167-0.649 1.963-3.184-2.176-6.832-4.112-10.055-2.746 1.711-4.987 4.219-6.367 7.15-0.292 0.623-0.557 1.3-0.491 1.99 0.146 1.353 1.659 2.228 2.985 2.029 0.133-0.013 0.252-0.04 0.371-0.08 1.419-0.437 2.653-2.851 2.812-4.324z" fill="#000000"/>
   </g>
   <g transform="translate(437.36 1271.6)">
    <path d="m0 0c-0.186 1.764 2.016 3.939 3.608 3.939 0.464 0 0.889-0.199 1.167-0.649 1.963-3.184-2.188-6.845-4.111-10.055-2.747 1.711-4.988 4.218-6.368 7.149-0.304 0.624-0.556 1.301-0.49 1.99 0.146 1.353 1.645 2.229 2.984 2.029 0.133-0.013 0.252-0.039 0.372-0.079 1.406-0.451 2.652-2.852 2.798-4.324z" fill="#000000"/>
   </g>
   <g transform="translate(441.96 1320.5)">
    <path d="m0 0-0.398-2.905c-1.565 0-3.78-2.162-3.595-3.939h-0.04c-0.145 1.472-1.392 3.873-2.798 4.31-0.12 0.04-0.252 0.067-0.372 0.093l-0.358 2.573c2.587 0.398 5.133 0.292 7.561-0.132" fill="#ffffff"/>
   </g>
   <g transform="translate(441.58 1299.3)">
    <path d="m0 0-0.398-2.918c-1.592 0-3.793-2.176-3.595-3.94h-0.039c-0.159 1.473-1.393 3.887-2.812 4.324-0.12 0.04-0.239 0.067-0.372 0.08l-0.358 2.586c2.587 0.398 5.147 0.292 7.574-0.132" fill="#ffffff"/>
   </g>
   <g transform="translate(441.35 1278.4)">
    <path d="m0 0-0.385-2.918c-1.592 0-3.793-2.175-3.608-3.939h-0.039c-0.146 1.472-1.393 3.873-2.799 4.323-0.119 0.04-0.239 0.067-0.372 0.08l-0.358 2.587c2.587 0.398 5.134 0.291 7.561-0.133" fill="#ffffff"/>
   </g>
   <g transform="translate(438.63 1306.9)">
    <path d="m0 0 0.066-2.414c-2.414-0.107-4.867 0.026-7.361 0.477l0.013 0.106c-9.444 1.817-12.468 5.2-11.699 6.195 4.616 5.915 9.749 8.595 14.75 9.377l0.358-2.573c-1.34 0.199-2.852-0.703-2.984-2.043-0.08-0.689 0.185-1.366 0.477-1.989 1.393-2.918 3.634-5.438 6.38-7.136" fill="#ffffff"/>
   </g>
   <g transform="translate(438.23 1285.7)">
    <path d="m0 0 0.066-2.401c-2.427-0.119-4.867 0.027-7.361 0.464l0.013 0.12c-9.444 1.804-12.468 5.199-11.699 6.181 4.616 5.916 9.749 8.595 14.75 9.391l0.358-2.587c-1.326 0.2-2.838-0.676-2.984-2.029-0.067-0.69 0.198-1.366 0.49-1.99 1.38-2.931 3.621-5.438 6.367-7.149" fill="#ffffff"/>
   </g>
   <g transform="translate(438.02 1264.8)">
    <path d="m0 0 0.066-2.414c-2.414-0.107-4.855 0.026-7.361 0.477l0.013 0.106c-9.444 1.817-12.468 5.213-11.699 6.195 4.616 5.915 9.749 8.608 14.75 9.391l0.357-2.587c-1.339 0.199-2.838-0.676-2.984-2.029-0.066-0.69 0.186-1.367 0.491-1.99 1.38-2.931 3.621-5.438 6.367-7.149" fill="#ffffff"/>
   </g>
   <g transform="translate(436.02 1192.8)">
    <path d="m0 0c1.605-7.309 1.499-14.988-0.318-22.257-7.415 3.024-14.445 6.99-20.865 11.765l0.027 0.239c6.791 2.878 14.351 7.375 21.156 10.253" fill="#ffa697"/>
   </g>
  </g>
  <g transform="translate(378.82 1038.5)">
   <path d="m0 0c1.015 23.555-1.112 47.067-3.394 70.489-2.304 23.661-4.393 47.233-4.425 71.026-0.066 47.738-0.878 95.573 4.944 143.05 4.292 35.007 10.234 70.086 21.467 103.61 10.914 32.569 27.301 63.728 51.856 88.107 28.181 27.978 65.974 45.942 105.79 48.207 19.545 1.112 40.259-0.579 57.666-10.17 16.6-9.146 30.685-22.616 43.321-36.575 11.665-12.889 23.034-26.698 31.776-41.772 8.745-15.079 15.019-31.466 19.886-48.168 10.325-35.429 14.616-72.38 17.8-109.04 1.484-17.081 2.657-34.186 4.069-51.272 1.903-23.037 1.426-45.897-0.282-68.935-1.711-23.077-3.698-46.103-5.071-69.206-1.275-21.451-3.121-42.865-4.891-64.28-0.806-9.757-1.604-19.515-2.312-29.281-0.178-2.467 3.666-2.456 3.844 0 1.539 21.244 3.465 42.457 5.115 63.691 1.744 22.462 2.711 44.972 4.56 67.424 1.988 24.134 4.396 48.285 4.284 72.528-0.088 19.124-2.208 38.247-3.682 57.305-2.861 37-6.12 74.178-14.208 110.47-3.902 17.505-8.981 34.793-16.084 51.283-6.779 15.739-15.804 29.757-26.34 43.217-11.939 15.25-25.006 29.88-40.004 42.196-7.081 5.815-14.621 11.168-22.814 15.305-8.166 4.125-16.626 6.43-25.657 7.749-41.557 6.068-84.252-5.504-118.18-29.935-28.373-20.43-49.356-48.959-63.581-80.679-14.599-32.553-22.666-67.637-28.158-102.76-3.152-20.159-5.654-40.445-7.055-60.804-1.681-24.412-1.989-48.894-1.993-73.356-4e-3 -24.263-0.438-48.598 1.282-72.814 1.706-24.025 4.832-47.932 6.223-71.983 0.667-11.53 0.907-23.083 0.409-34.625-0.106-2.473 3.738-2.468 3.844 0" fill="#000000"/>
  </g>
  <g transform="translate(343.76 1035.8)">
   <path d="m0 0c3.925 0.18 7.861 0.205 11.789 0.281 8.788 0.169 17.577 0.307 26.365 0.432 12.68 0.182 25.361 0.332 38.042 0.458 15.429 0.153 30.86 0.269 46.29 0.348 17.198 0.087 34.396 0.127 51.594 0.111 17.937-0.017 35.874-0.095 53.811-0.256 17.648-0.158 35.296-0.394 52.942-0.751 16.398-0.332 32.795-0.765 49.186-1.385 13.977-0.528 27.951-1.18 41.906-2.135 10.462-0.716 21.285-1.581 31.475-2.982 1.945-0.267 3.885-0.56 5.821-0.887 2.419-0.408 3.459 3.295 1.021 3.707-9.619 1.623-19.36 2.538-29.078 3.321-13.181 1.06-26.39 1.769-39.6 2.35-15.881 0.697-31.772 1.185-47.665 1.566-17.404 0.418-34.813 0.7-52.221 0.9-18.038 0.206-36.077 0.321-54.116 0.371-17.555 0.048-35.11 0.033-52.665-0.032-15.964-0.059-31.928-0.161-47.892-0.301-13.422-0.118-26.844-0.264-40.266-0.441-9.885-0.131-19.771-0.276-29.655-0.452-5.241-0.094-10.483-0.175-15.723-0.332-0.453-0.014-0.907-0.027-1.361-0.047-2.463-0.114-2.477-3.958 0-3.844" fill="#000000"/>
  </g>
  <g transform="translate(344.83 1038.7)">
   <path d="m0 0c-9.043 36.829-14.817 74.462-18.119 112.23-3.682 42.123-4.256 84.579-1.131 126.76 3.136 42.308 10.021 84.534 22.584 125.11 11.77 38.015 28.742 74.924 53.241 106.48 23.883 30.763 54.905 55.556 90.916 70.634 37.485 15.696 80.233 22.85 119.52 9.61 36.031-12.142 64.162-39.661 84.617-70.943 22.68-34.683 37.404-74.261 47.6-114.25 9.883-38.761 15.667-78.726 16.973-118.71 2.205-67.453-5.537-134.81-8.523-202.12-0.773-17.419-1.242-34.85-1.252-52.287-2e-3 -2.473 3.842-2.477 3.844 0 0.02 36.116 2.109 72.172 4.453 108.2 2.315 35.583 4.77 71.171 5.427 106.83 0.434 23.56 0.092 47.064-2.064 70.538-1.878 20.441-4.838 40.793-8.871 60.92-4.205 20.989-9.585 41.76-16.377 62.064-6.633 19.831-14.612 39.268-24.387 57.765-9.284 17.57-20.251 34.344-33.383 49.292-12.321 14.026-26.681 26.415-42.963 35.634-16.367 9.267-34.462 15.069-53.158 17.098-21.2 2.3-42.576-0.395-63.087-5.918-19.841-5.343-39.025-13.227-56.739-23.657-16.804-9.895-32.257-22.059-45.958-35.929-13.725-13.894-25.712-29.48-36.02-46.055-10.593-17.032-19.411-35.124-26.812-53.753-7.741-19.485-13.896-39.583-18.792-59.963-5.031-20.94-8.722-42.187-11.373-63.555-2.672-21.537-4.255-43.206-4.914-64.896-0.654-21.529-0.397-43.085 0.694-64.597 1.046-20.653 2.86-41.269 5.452-61.786 2.405-19.025 5.454-37.972 9.286-56.763 1.707-8.37 3.572-16.707 5.609-25.003 0.59-2.401 4.298-1.384 3.707 1.022" fill="#000000"/>
  </g>
  <g transform="translate(376.91 1091.1)">
   <path d="m0 0c44.92-2.515 89.932-2.678 134.91-1.934 45.2 0.749 90.379 2.4 135.57 3.49 25.543 0.616 51.093 1.05 76.645 1.054 2.473 0 2.477 3.844 0 3.844-45.315-7e-3 -90.613-1.379-135.9-2.683-45.085-1.297-90.185-2.522-135.29-2.2-25.321 0.181-50.641 0.857-75.925 2.273-2.472 0.138-2.464-3.706 0-3.844" fill="#000000"/>
  </g>
  <g transform="translate(444.08 1142.6)">
   <path d="m0 0c0 1.342 0.256 2.886-0.977 3.777-0.83 0.598-2.164 0.152-2.63-0.69-0.332-0.599-0.289-1.348-0.305-2.015-0.026-1.03-0.041-2.06-0.055-3.091-0.044-3.144-0.068-6.29-0.075-9.435-7e-3 -3.063-6e-3 -6.129 0.068-9.192 0.096-3.924 0.474-7.847 0.749-11.762 0.48-6.831 1.542-13.405 4.233-19.741 0.406-0.956 1.815-1.166 2.63-0.69 0.989 0.579 1.097 1.67 0.69 2.63-2.213 5.21-3.162 10.765-3.604 16.377-0.323 4.103-0.7 8.232-0.83 12.346-0.193 6.037-0.107 12.09-0.035 18.129 0.016 1.27 0.033 2.54 0.059 3.81 8e-3 0.378 0.015 0.756 0.028 1.135 4e-3 0.115 0.017 0.234 0.013 0.349-0.015 0.459-0.217-0.737-0.247-0.79-0.877-0.23-1.753-0.46-2.629-0.689 0 0 0-1e-3 1e-3 -1e-3 -0.294 0.382-0.589 0.766-0.883 1.148-0.236 0.801-0.056 0.346-0.051-0.05 7e-3 -0.518 6e-3 -1.037 6e-3 -1.555 1e-3 -2.473 3.844-2.478 3.844 0" fill="#000000"/>
  </g>
  <path d="m441.67 1144.4c19.21 0.833 38.443 0.924 57.669 0.799 19.461-0.126 38.921-0.467 58.384-0.501 19.37-0.034 38.686 0.51 58.037 1.287 17.202 0.691 34.438 0.281 51.637-0.314 17.802-0.616 35.595-1.511 53.402-2.032 2.14-0.063 4.28-0.119 6.42-0.169 2.475-0.058 2.474 3.786 0 3.844-17.689 0.413-35.362 1.285-53.043 1.955-17.423 0.66-34.873 1.191-52.309 0.757-9.116-0.227-18.22-0.792-27.336-1.053-9.814-0.282-19.632-0.403-29.449-0.428-19.481-0.052-38.959 0.27-58.439 0.442-19.262 0.17-38.532 0.198-57.786-0.463-2.396-0.082-4.792-0.176-7.187-0.28-2.464-0.107-2.478-3.951 0-3.844" fill="#000000"/>
  <g transform="translate(502.92 1210.1)">
   <path d="m0 0c0.989-16.004 1.77-32.028 2.13-48.06 0.097-4.299 0.158-8.6 0.16-12.9 0-2.474 3.844-2.478 3.843 0-5e-3 16.042-0.7 32.089-1.551 48.106-0.228 4.286-0.474 8.571-0.738 12.854-0.152 2.458-3.997 2.475-3.844 0" fill="#000000"/>
  </g>
  <path d="m504.8 1208.5c13.07 1.618 26.248 2.268 39.409 2.49 14.727 0.247 29.459-0.061 44.176-0.599 15.565-0.569 31.119-1.407 46.669-2.284 15.374-0.867 30.746-1.781 46.126-2.524 14.611-0.706 29.233-1.27 43.861-1.385 1.682-0.013 3.365-0.019 5.048-0.02 2.473 0 2.477 3.843 0 3.844-14.402 0-28.799 0.486-43.185 1.137-15.379 0.695-30.75 1.592-46.121 2.467-15.588 0.887-31.179 1.759-46.781 2.392-14.796 0.601-29.606 0.996-44.415 0.881-13.45-0.104-26.921-0.606-40.3-2.037-1.497-0.16-2.993-0.333-4.487-0.518-1.03-0.128-1.922-0.792-1.922-1.922 0-0.94 0.885-2.05 1.922-1.922" fill="#000000"/>
  <g transform="translate(562.9 1260)">
   <path d="m0 0c0.806-15.291 1.166-30.588 0.694-45.897-0.076-2.474 3.768-2.472 3.844 0 0.471 15.309 0.112 30.606-0.694 45.897-0.13 2.461-3.974 2.476-3.844 0" fill="#000000"/>
  </g>
  <g transform="translate(564.66 1258.3)">
   <path d="m0 0c21.819 2e-3 43.636 0.399 65.439 1.245 10.862 0.421 21.713 1.073 32.574 1.498 10.419 0.408 20.85 0.51 31.276 0.382 12.199-0.15 24.396-0.62 36.571-1.402 1.037-0.067 1.922 0.931 1.922 1.922 0 1.095-0.882 1.855-1.922 1.921-21.316 1.37-42.714 1.839-64.065 1.155-10.77-0.345-21.528-1.028-32.295-1.471-10.747-0.441-21.498-0.782-32.251-1.014-12.415-0.269-24.832-0.391-37.249-0.392-2.474 0-2.478-3.844 0-3.844" fill="#000000"/>
  </g>
  <g transform="translate(622.93 1317.4)">
   <path d="m0 0v-52.199c0-2.473 3.844-2.477 3.844 0v52.199c0 2.473-3.844 2.477-3.844 0" fill="#000000"/>
  </g>
  <g transform="translate(624.99 1315.4)">
   <path d="m0 0c13.119 0.893 26.261 1.396 39.406 1.682 13.31 0.29 26.624 0.358 39.937 0.369 7.423 7e-3 14.846-5e-3 22.269-5e-3 2.473 0 2.478 3.844 0 3.844-13.197 1e-3 -26.394 0.035-39.591-0.056-13.298-0.091-26.597-0.308-39.885-0.823-7.384-0.285-14.764-0.665-22.136-1.167-1.036-0.071-1.922-0.833-1.922-1.922 0-0.986 0.881-1.993 1.922-1.922" fill="#000000"/>
  </g>
  <g transform="translate(679.07 1358.9)">
   <path d="m0 0v2e-3c0.072 2.139-3.314 2.648-3.775 0.511-0.204-0.947-0.253-1.961-0.368-2.92-0.252-2.101-0.487-4.204-0.711-6.309-0.638-6.013-1.19-12.039-1.51-18.078-0.166-3.138-0.277-6.285-0.185-9.427 0.072-2.468 3.916-2.479 3.843 0-0.17 5.835 0.264 11.695 0.745 17.507 0.426 5.153 0.955 10.3 1.559 15.436 0.092 0.789 0.187 1.579 0.285 2.367 0.044 0.356 0.242 1.296 0.049 0.402-1.259 0.17-2.517 0.341-3.776 0.511v-2e-3c-0.083-2.474 3.761-2.471 3.844 0" fill="#000000"/>
  </g>
  <g transform="translate(677.05 1357.3)">
   <path d="m0 0c15.025 1.972 30.198 2.401 45.337 2.405 2.473 1e-3 2.477 3.845 0 3.844-15.139-3e-3 -30.312-0.434-45.337-2.405-1.029-0.135-1.922-0.787-1.922-1.922 0-0.933 0.886-2.058 1.922-1.922" fill="#000000"/>
  </g>
  <g transform="translate(496.39 1438.3)">
   <path d="m0 0c-5.941-3.635-10.625-9.222-13.797-15.376-3.183-6.177-5.146-13.289-4.587-20.277 1.144-14.318 13.655-25.831 27.516-27.993 7.195-1.123 14.468 0.201 20.712 3.997 6.218 3.779 11.086 9.578 13.881 16.278 3.047 7.304 3.153 15.432 0.517 22.883-2.736 7.736-7.952 14.532-14.897 18.945-6.377 4.051-13.911 5.639-21.339 4.181-6.797-1.335-13.54-4.947-17.633-10.64-0.957-1.331-1.684-2.785-2.254-4.319-0.362-0.973 0.403-2.106 1.342-2.364 1.076-0.295 2.001 0.366 2.364 1.342 2.04 5.488 7.63 9.248 12.989 11.126 6.106 2.138 12.62 2.138 18.59-0.495 13.121-5.788 21.762-21.408 18.019-35.534-3.265-12.321-14.684-22.197-27.677-21.981-12.246 0.203-24.685 8.863-27.7 21.007-1.486 5.989-0.42 12.431 1.778 18.147 2.235 5.815 5.905 11.214 10.656 15.261 1.085 0.926 2.244 1.749 3.46 2.493 2.106 1.289 0.178 4.615-1.94 3.319" fill="#000000"/>
  </g>
  <g transform="translate(477.91 1406.2)">
   <path d="m0 0c-5.784-2.946-10.682-7.661-13.84-13.335-1.576-2.832-3.567-6.646-1.642-9.773 1.52-2.469 4.564-3.241 7.278-3.386 3.166-0.17 6.448 0.444 9.576 0.871 3.369 0.459 6.722 1.03 10.053 1.714 6.662 1.367 13.233 3.179 19.657 5.413 12.902 4.488 25.244 10.624 36.558 18.284 5.677 3.843 11.111 8.06 16.231 12.621 2.104 1.875 4.889 4.385 3.785 7.544-0.338 0.966-1.023 1.709-1.854 2.284-2.068 1.43-4.92 1.647-7.347 1.68-5.189 0.069-10.428-0.957-15.46-2.115-1.849-0.426-3.687-0.893-5.518-1.385-2.387-0.641-1.374-4.35 1.022-3.706 5.443 1.463 11.059 2.806 16.585 3.239 1.691 0.132 3.398 0.185 5.09 0.043 0.157-0.014 0.313-0.028 0.47-0.045 0.093-0.011 0.564-0.074 0.251-0.029-0.312 0.046 0.134-0.023 0.222-0.038 0.15-0.027 0.299-0.053 0.447-0.084 0.486-0.1 0.955-0.238 1.424-0.395 0.533-0.178-0.308 0.18 0.147-0.06 0.171-0.091 0.34-0.181 0.508-0.278 0.065-0.038 0.125-0.095 0.192-0.127 0.271-0.13-0.281 0.287-0.165 0.131 0.076-0.102 0.228-0.227 0.33-0.309 0.339-0.274-0.343 0.382-0.051 0.073 0.024-0.025 0.171-0.321 0.177-0.32-0.085-0.016-0.076 0.39-0.153 0.36-3e-3 -2e-3 0.033-0.071 0.028-0.08-0.016-0.029 0.052-0.132 0.049-0.168-0.054-0.554-0.352-1-0.719-1.433-1.016-1.192-2.316-2.197-3.495-3.223-1.203-1.046-2.422-2.073-3.657-3.08-2.386-1.945-4.834-3.81-7.338-5.598-10.238-7.309-21.386-13.389-33.099-17.979-11.699-4.584-23.989-7.805-36.462-9.365-2.652-0.332-5.604-0.856-8.198-0.546-0.55 0.066-1.104 0.198-1.631 0.368-0.333 0.107-0.933 0.398-1.094 0.52-0.819 0.622-0.956 1.448-0.606 2.641 0.797 2.712 2.49 5.367 4.217 7.578 1.739 2.227 3.825 4.245 6.135 5.872 1.222 0.861 2.506 1.624 3.837 2.302 2.205 1.123 0.262 4.44-1.94 3.319" fill="#000000"/>
  </g>
  <g transform="translate(556.84 1334.8)">
   <path d="m0 0c-0.829 4.061-1.427 8.16-1.789 12.289-0.597-0.162-1.193-0.324-1.791-0.485 1.472-2.167 2.942-4.335 4.413-6.502 0.982-1.447 2.148-4.028 4.309-3.594 1.058 0.212 1.893 1.023 2.723 1.661 1.059 0.814 2.118 1.629 3.178 2.443 2.118 1.629 4.236 3.258 6.355 4.886l-1.315 1.315c-2.313-3.806-4.378-7.753-6.188-11.823-0.343-0.769 0.217-1.593 1.084-1.411 4.229 0.888 8.628 0.018 12.239-2.337 0.077 0.586 0.153 1.171 0.23 1.757-2.515-0.678-5.03-1.356-7.544-2.034-1.259-0.339-2.582-0.597-3.807-1.047-0.909-0.334-1.569-0.972-1.755-1.94-0.192-0.999 0.18-2.001 0.472-2.941l1.177-3.784c0.802-2.582 1.605-5.165 2.408-7.747 0.471 0.361 0.941 0.723 1.412 1.085-4.1 2.735-7.674 6.207-10.518 10.233-0.504 0.715-1.441 0.553-1.756-0.229-1.912-4.748-3.825-9.496-5.738-14.243 0.586 0.076 1.171 0.153 1.757 0.229-1.987 4.041-1.379 8.745-0.781 13.042 0.082 0.585-0.235 1.242-0.926 1.217-4.224-0.159-8.435 0.16-12.583 0.98 0.141-0.536 0.283-1.071 0.424-1.606 2.27 2.248 5.133 3.649 8.288 4.125 0.867 0.131 0.865 1.36 0.229 1.756-3.33 2.076-6.346 4.569-9.021 7.438-0.312-0.535-0.624-1.07-0.936-1.606 4.936-0.865 9.898-1.558 14.833-2.423 1.21-0.213 1.729 1.639 0.511 1.853-4.934 0.865-9.898 1.558-14.833 2.423-0.924 0.163-1.625-0.866-0.934-1.605 2.782-2.985 5.947-5.581 9.41-7.739 0.076 0.586 0.153 1.171 0.23 1.757-3.462-0.523-6.652-2.16-9.136-4.621-0.486-0.48-0.298-1.463 0.424-1.605 4.313-0.853 8.7-1.214 13.094-1.049-0.309 0.405-0.618 0.811-0.927 1.216-0.678-4.867-1.271-9.955 0.974-14.523 0.405-0.824 1.479-0.461 1.756 0.23 1.913 4.748 3.826 9.495 5.738 14.243-0.585-0.076-1.171-0.153-1.756-0.229 3.042-4.308 6.82-7.996 11.207-10.924 0.696-0.464 1.654 0.306 1.411 1.085-0.671 2.162-1.344 4.325-2.016 6.487-0.654 2.104-1.545 4.256-1.968 6.419-0.089 0.458-0.139 0.842 0.297 1.121 0.396 0.252 1.076 0.321 1.515 0.44l3.233 0.871 6.646 1.792c0.829 0.223 0.906 1.315 0.229 1.756-4.048 2.64-8.999 3.522-13.719 2.53 0.362-0.47 0.723-0.941 1.085-1.412 1.81 4.071 3.876 8.016 6.189 11.823 0.466 0.769-0.526 1.922-1.315 1.315-3.568-2.743-7.086-5.569-10.712-8.234-0.3-0.221-0.704-0.582-1.096-0.52-0.397 0.064-0.649 0.502-0.866 0.811-0.648 0.916-1.261 1.858-1.891 2.786-1.261 1.858-2.522 3.715-3.783 5.573-0.486 0.716-1.88 0.541-1.79-0.485 0.376-4.299 0.994-8.572 1.856-12.8 0.248-1.211 2.101-0.698 1.854 0.511" fill="#000000"/>
  </g>
  <g transform="translate(518.35 1502.2)">
   <path d="m0 0c-1.077 4.525-2.749 11.568-3.826 16.093 6.286-0.663 12.567-1.377 18.841-2.142-4.994-4.653-9.988-9.305-14.982-13.958" fill="#ffa697"/>
  </g>
  <g transform="translate(519.28 1502.4)">
   <path d="m0 0c-1.276 5.364-2.549 10.729-3.826 16.093-0.309-0.405-0.617-0.811-0.926-1.217 6.285-0.664 12.566-1.377 18.84-2.141l-0.679 1.64c-4.994-4.653-9.988-9.306-14.982-13.958-0.907-0.845 0.454-2.202 1.359-1.359 4.994 4.652 9.988 9.305 14.982 13.958 0.673 0.628 0.084 1.548-0.68 1.641-6.274 0.763-12.555 1.477-18.84 2.141-0.65 0.069-1.058-0.666-0.927-1.216 1.277-5.364 2.549-10.729 3.825-16.093 0.287-1.202 2.141-0.694 1.854 0.511" fill="#000000"/>
  </g>
  <g transform="translate(617.43 1465.3)">
   <path d="m0 0c-2.635-3.486-4.577-7.492-5.686-11.72-0.557-2.125-0.932-4.342-1.031-6.538-0.093-2.052 0.356-4.085 1.799-5.61 2.336-2.469 6.271-2.803 9.46-2.519 3.192 0.284 7.736 1.381 10.249-1.293 2.504-2.666 0.852-7.174-0.252-10.091-1.249-3.3-2.5-6.916-1.625-10.477 0.845-3.439 3.751-5.112 6.988-5.835 1.455-0.325 2.945-0.513 4.375-0.942 1-0.301 2.03-0.755 2.433-1.783 0.415-1.058-0.019-2.264-0.387-3.268-0.445-1.214-0.983-2.393-1.501-3.577-1.021-2.338-2.061-4.713-2.542-7.232-0.782-4.089-0.09-8.892 3.322-11.653 0.61-0.493 1.44-0.585 2.039 0 0.511 0.501 0.604 1.55 0 2.039-2.813 2.275-3.214 6.178-2.439 9.513 0.511 2.203 1.412 4.282 2.315 6.347 0.851 1.944 1.907 3.962 2.17 6.09 0.441 3.557-2.096 5.674-5.258 6.472-2.518 0.635-6.08 0.587-7.871 2.767-2.052 2.498-0.803 6.574 0.175 9.248 1.259 3.443 2.752 7.046 1.991 10.787-0.784 3.846-4.19 5.837-7.87 6.129-3.446 0.274-6.896-0.884-10.326-0.262-1.476 0.268-3.068 0.824-3.86 2.194-1.095 1.894-0.412 4.796-0.012 6.818 0.931 4.715 2.937 9.11 5.833 12.941 0.473 0.626 0.094 1.606-0.517 1.972-0.734 0.44-1.505 0.101-1.972-0.517" fill="#000000"/>
  </g>
  <g transform="translate(415.22 1181.7)">
   <path d="m0 0c7.214 3.074 13.938 7.177 21.152 10.251-0.471 0.192-0.942 0.383-1.412 0.575 1.546-7.173 1.434-14.616-0.312-21.742l1.182 0.672c-7.335 3.008-14.267 6.951-20.634 11.671-0.995 0.737-1.954-0.93-0.971-1.659 6.512-4.827 13.597-8.79 21.094-11.866 0.472-0.193 1.07 0.214 1.182 0.672 1.83 7.467 1.931 15.248 0.312 22.762-0.144 0.671-0.881 0.801-1.411 0.575-7.215-3.074-13.938-7.178-21.152-10.252-1.134-0.483-0.156-2.139 0.97-1.659" fill="#000000"/>
  </g>
  <g transform="translate(427.21 1304.8)">
   <path d="m0 0c5.132-1.453 10.426-1.751 15.692-0.922 4.403 0.692 8.818 1.973 12.736 4.124 1.074 0.59 5.821 2.74 4.218 4.536-0.82 0.92-2.015 1.649-3.013 2.349-4.438 3.116-9.556 5.583-14.931 6.491-3.312 0.56-6.713 0.526-9.973-0.337-3.682-0.974-7.001-2.974-9.782-5.554-0.966-0.896-1.865-1.864-2.704-2.879-0.434-0.525-0.987-1.031-1.006-1.756-0.022-0.876 0.609-1.659 1.211-2.226 2.93-2.757 7.497-3.831 11.305-4.577 1.208-0.236 1.726 1.616 0.511 1.854-3.337 0.653-6.966 1.524-9.784 3.535-0.331 0.236-0.644 0.498-0.923 0.796-0.137 0.145-0.187 0.218-0.228 0.272-0.042 0.054-0.079 0.119-0.112 0.18-0.117 0.222 0.053-0.069-0.039 0.072-0.077 0.12-0.083 0.037-0.018 0.094-0.026-0.023-0.175-0.311-6e-3 -0.157 0.766 0.698 1.373 1.652 2.101 2.403 4.716 4.868 10.97 7.346 17.736 6.597 5.071-0.562 9.919-2.729 14.178-5.464 1.288-0.827 2.499-1.684 3.573-2.578 0.156-0.129 0.404-0.454 0.595-0.522 0.587-0.212-0.486 0.922-0.13 1.01-0.042-0.01-0.103-0.124-0.145-0.152-0.167-0.108-0.318-0.276-0.48-0.399-0.601-0.455-1.255-0.847-1.902-1.231-8.318-4.94-18.875-6.337-28.169-3.706-1.192 0.337-1.701-1.517-0.511-1.853" fill="#000000"/>
  </g>
  <g transform="translate(438.8 1313.5)">
   <path d="m0 0c-0.062 0.552 0.074 0.936 0.382 1.428 0.299 0.479 0.724 0.91 1.187 1.21 0.25 0.162 0.444 0.271 0.671 0.338 0.038 0.011 0.402 0.083 0.233 0.066 0.036 3e-3 0.415 9e-3 0.202 0.015 0.058-0.012 0.116-0.026 0.172-0.045-0.094 0.044-0.09 0.04 0.01-0.012 0.057-0.036 0.086-0.067 0.062-0.035 0.194-0.262 0.322-0.575 0.392-0.892 0.309-1.416-0.661-2.883-1.41-3.996-0.976-1.452-2.123-2.787-3.033-4.284l1.314 0.345c-1.479 0.93-2.789 2.087-3.905 3.433-0.548 0.661-1.032 1.375-1.464 2.117-0.41 0.707-0.937 1.548-1.019 2.379-0.114 1.162 1.488 1.827 2.355 1.296 1.008-0.617 1.757-2.198 1.891-3.29 0.063-0.515 0.397-0.961 0.961-0.961 0.47 0 1.024 0.442 0.961 0.961-0.344 2.801-2.657 6.435-5.923 5.113-1.684-0.682-2.523-2.354-1.993-4.11 0.514-1.697 1.606-3.291 2.705-4.659 1.249-1.555 2.774-2.878 4.461-3.939 0.445-0.28 1.052-0.088 1.315 0.345 1.627 2.677 4.491 5.145 4.746 8.445 0.103 1.336-0.466 3.075-1.833 3.567-1.228 0.441-2.54-0.238-3.47-1.007-1.084-0.894-2.057-2.363-1.892-3.828 0.058-0.516 0.401-0.961 0.961-0.961 0.475 0 1.02 0.442 0.961 0.961" fill="#000000"/>
  </g>
  <g transform="translate(426.82 1283.6)">
   <path d="m0 0c5.132-1.453 10.426-1.75 15.692-0.922 4.403 0.693 8.818 1.973 12.736 4.125 1.074 0.589 5.82 2.74 4.218 4.536-0.82 0.919-2.015 1.648-3.013 2.349-4.438 3.116-9.556 5.583-14.931 6.491-3.312 0.559-6.714 0.525-9.973-0.338-3.683-0.974-7.001-2.974-9.782-5.554-0.966-0.896-1.865-1.863-2.704-2.879-0.434-0.525-0.987-1.03-1.006-1.756-0.022-0.876 0.608-1.659 1.21-2.225 2.93-2.758 7.498-3.832 11.306-4.577 1.208-0.237 1.725 1.615 0.511 1.853-3.337 0.653-6.966 1.525-9.784 3.535-0.332 0.237-0.644 0.498-0.923 0.796-0.137 0.146-0.188 0.219-0.228 0.272-0.043 0.055-0.079 0.119-0.112 0.18-0.117 0.222 0.053-0.069-0.039 0.073-0.077 0.119-0.083 0.036-0.019 0.093-0.025-0.022-0.174-0.31-5e-3 -0.156 0.765 0.697 1.373 1.652 2.101 2.403 4.716 4.867 10.97 7.346 17.735 6.596 5.072-0.562 9.92-2.729 14.179-5.464 1.288-0.827 2.499-1.683 3.573-2.577 0.155-0.13 0.404-0.455 0.595-0.523 0.587-0.211-0.487 0.923-0.13 1.01-0.042-0.01-0.103-0.124-0.145-0.151-0.168-0.109-0.318-0.277-0.48-0.399-0.601-0.455-1.256-0.848-1.902-1.231-8.318-4.94-18.875-6.337-28.169-3.706-1.192 0.337-1.701-1.517-0.511-1.854" fill="#000000"/>
  </g>
  <g transform="translate(438.41 1292.3)">
   <path d="m0 0c-0.062 0.552 0.074 0.936 0.381 1.427 0.3 0.48 0.724 0.911 1.188 1.211 0.25 0.162 0.444 0.271 0.671 0.338 0.038 0.011 0.402 0.083 0.233 0.066 0.036 3e-3 0.414 9e-3 0.202 0.015 0.058-0.012 0.115-0.026 0.171-0.045-0.093 0.044-0.09 0.04 0.01-0.012 0.058-0.036 0.086-0.067 0.063-0.035 0.194-0.262 0.322-0.575 0.392-0.892 0.309-1.416-0.661-2.884-1.41-3.996-0.977-1.452-2.124-2.787-3.034-4.284 0.439 0.115 0.877 0.229 1.315 0.345-1.479 0.93-2.789 2.087-3.905 3.433-0.548 0.66-1.033 1.375-1.464 2.117-0.411 0.707-0.937 1.547-1.019 2.378-0.114 1.163 1.487 1.828 2.354 1.297 1.008-0.617 1.758-2.198 1.892-3.29 0.063-0.515 0.396-0.961 0.96-0.961 0.471 0 1.025 0.442 0.961 0.961-0.343 2.801-2.656 6.435-5.922 5.113-1.685-0.682-2.523-2.354-1.993-4.11 0.513-1.697 1.606-3.291 2.705-4.659 1.249-1.555 2.773-2.878 4.461-3.939 0.445-0.28 1.052-0.088 1.315 0.345 1.627 2.677 4.491 5.145 4.745 8.445 0.103 1.336-0.465 3.075-1.833 3.567-1.227 0.441-2.539-0.238-3.47-1.007-1.084-0.894-2.056-2.363-1.891-3.828 0.058-0.516 0.4-0.961 0.961-0.961 0.474 0 1.02 0.442 0.961 0.961" fill="#000000"/>
  </g>
  <g transform="translate(426.6 1262.7)">
   <path d="m0 0c5.132-1.453 10.426-1.75 15.692-0.922 4.403 0.692 8.818 1.973 12.736 4.124 1.074 0.59 5.82 2.741 4.218 4.536-0.82 0.92-2.015 1.649-3.013 2.349-4.438 3.116-9.556 5.583-14.931 6.491-3.312 0.56-6.714 0.526-9.973-0.337-3.683-0.974-7.001-2.974-9.782-5.554-0.966-0.896-1.865-1.864-2.705-2.879-0.433-0.525-0.986-1.031-1.005-1.756-0.022-0.876 0.608-1.659 1.21-2.225 2.93-2.758 7.498-3.832 11.305-4.577 1.209-0.237 1.726 1.615 0.512 1.853-3.337 0.653-6.966 1.525-9.784 3.535-0.332 0.237-0.644 0.498-0.923 0.796-0.137 0.146-0.188 0.219-0.229 0.272-0.042 0.055-0.078 0.119-0.111 0.18-0.117 0.222 0.052-0.069-0.039 0.072-0.077 0.12-0.084 0.037-0.019 0.094-0.025-0.023-0.174-0.31-5e-3 -0.156 0.765 0.697 1.373 1.652 2.101 2.403 4.716 4.867 10.97 7.346 17.735 6.596 5.072-0.562 9.92-2.729 14.179-5.464 1.288-0.827 2.499-1.683 3.573-2.578 0.155-0.129 0.404-0.454 0.594-0.522 0.588-0.211-0.486 0.922-0.129 1.01-0.042-0.01-0.103-0.124-0.145-0.152-0.168-0.108-0.319-0.276-0.48-0.398-0.601-0.455-1.256-0.848-1.902-1.232-8.318-4.939-18.875-6.337-28.169-3.706-1.193 0.338-1.701-1.516-0.511-1.853" fill="#000000"/>
  </g>
  <g transform="translate(438.2 1271.4)">
   <path d="m0 0c-0.062 0.553 0.074 0.936 0.381 1.428 0.3 0.479 0.724 0.91 1.188 1.211 0.25 0.161 0.444 0.27 0.671 0.337 0.038 0.012 0.402 0.084 0.233 0.066 0.035 3e-3 0.414 9e-3 0.202 0.015 0.058-0.011 0.115-0.026 0.171-0.045-0.093 0.044-0.09 0.04 0.01-0.012 0.058-0.035 0.086-0.067 0.063-0.035 0.194-0.262 0.322-0.575 0.391-0.892 0.31-1.416-0.66-2.883-1.409-3.996-0.977-1.452-2.124-2.786-3.034-4.284 0.438 0.115 0.877 0.23 1.315 0.345-1.48 0.93-2.789 2.087-3.905 3.433-0.548 0.661-1.033 1.375-1.464 2.117-0.411 0.707-0.937 1.548-1.019 2.379-0.114 1.163 1.487 1.827 2.354 1.296 1.008-0.616 1.758-2.198 1.892-3.29 0.063-0.515 0.396-0.961 0.96-0.961 0.471 0 1.025 0.443 0.961 0.961-0.343 2.802-2.656 6.435-5.922 5.113-1.685-0.682-2.523-2.353-1.993-4.109 0.513-1.698 1.605-3.291 2.704-4.66 1.25-1.555 2.774-2.878 4.462-3.938 0.445-0.28 1.052-0.088 1.315 0.344 1.627 2.677 4.491 5.145 4.745 8.445 0.103 1.336-0.465 3.075-1.833 3.567-1.227 0.442-2.539-0.238-3.47-1.006-1.084-0.895-2.056-2.364-1.891-3.829 0.058-0.516 0.4-0.961 0.961-0.961 0.474 0 1.019 0.442 0.961 0.961" fill="#000000"/>
  </g>
  <g clip-path="url(#clipPath1114)">
   <g transform="translate(420.15 1246.8)">
    <path d="m0 0c0-8e-3 8e-3 -8e-3 0.015-0.015-0.046-0.077-0.122-0.238 0.016-0.116 0.015 0.016 0.023 0.024 0.038 0.039h8e-3c7e-3 -8e-3 7e-3 -0.015 7e-3 -0.015 0-8e-3 8e-3 -0.024 0.016-0.031 0.031-0.062 0.069-0.131 0.108-0.185 0.038-0.053 0.092-0.123 0.23-0.269 0.277-0.3 0.592-0.561 0.923-0.8 2.813-2.006 6.442-2.882 9.778-3.536 0.131-0.023 0.246-0.069 0.339-0.131-1.384 0.208-2.752 0.508-4.09 0.885-1.038 0.292-1.553-1.069-0.884-1.653-2.645 0.738-5.258 1.822-7.181 3.628-0.599 0.562-1.23 1.345-1.206 2.222 0.015 0.73 0.569 1.23 1.007 1.761 0.837 1.014 1.737 1.983 2.706 2.875 2.775 2.583 6.096 4.582 9.778 5.558 3.26 0.861 6.658 0.891 9.971 0.338 5.374-0.915 10.494-3.375 14.937-6.496 0.992-0.7 2.191-1.43 3.006-2.345 1.606-1.798-3.137-3.951-4.213-4.535-3.921-2.153-8.333-3.437-12.738-4.129-5.266-0.83-10.563-0.53-15.691 0.923-0.153 0.046-0.276 0.115-0.376 0.2 1.399-0.392 2.813-0.692 4.128-0.953 1.076-0.208 1.599 1.238 0.846 1.721 2.198-0.345 4.435-0.476 6.672-0.399 6.112 0.192 12.201 1.899 17.413 4.989 0.645 0.385 1.299 0.777 1.898 1.23 0.039 0.031 0.078 0.062 0.116 0.1 0.015-0.015 0.03-0.023 0.046-0.038 0.154-0.123 0.4-0.454 0.592-0.515 0.523-0.193-0.254 0.676-0.2 0.938 0.015 0.015 0.023 0.03 0.039 0.046-0.024 0-0.039-0.023-0.039-0.046-0.023-0.031-0.054-0.07-0.077-0.085-0.123-0.085-0.246-0.2-0.361-0.3-1.061 0.884-2.253 1.73-3.529 2.545-4.258 2.737-9.11 4.897-14.175 5.466-2.33 0.253-4.605 0.13-6.773-0.347-4.121-0.899-7.872-3.059-10.963-6.25-0.715-0.737-1.314-1.668-2.06-2.359 0 0-8e-3 0-8e-3 7e-3v-0.015s-7e-3 8e-3 -0.015 0.023c-0.015 0.023-0.031 0.038-0.039 0.054 8e-3 0.023 0.016 0.031 0.024 0.038-0.024-0.015-0.031-0.023-0.039-0.023" fill="#000000"/>
   </g>
   <g transform="translate(458.17 1248)">
    <path d="m0 0c-0.054-0.262 0.723-1.13 0.2-0.938-0.192 0.062-0.438 0.392-0.592 0.515-0.016 0.015-0.031 0.023-0.046 0.038 0.115 0.1 0.238 0.216 0.361 0.3 0.023 0.016 0.054 0.054 0.077 0.085" fill="#000000"/>
   </g>
   <g transform="translate(457.73 1247.7)">
    <path d="m0 0c-0.038-0.038-0.077-0.069-0.115-0.1-0.6-0.453-1.253-0.845-1.899-1.23-5.212-3.09-11.3-4.797-17.412-4.989l-8e-3 0.469c0.338 0 0.677 0.184 0.861 0.476 1.622 2.684 4.49 5.151 4.743 8.449 0.1 1.338-0.469 3.075-1.837 3.567-1.222 0.439-2.537-0.238-3.467-1.007-0.339-0.277-0.661-0.599-0.938-0.968-0.907 1.645-2.414 2.913-4.29 2.529l-0.115 0.469c2.168 0.476 4.443 0.599 6.773 0.346 5.066-0.569 9.917-2.729 14.176-5.466 1.276-0.815 2.467-1.661 3.528-2.545" fill="#ffffff"/>
   </g>
   <g transform="translate(441.31 1252.5)">
    <path d="m0 0c-0.046-8e-3 -0.115-8e-3 -0.162-8e-3 0-8e-3 -0.253-0.061-0.284-0.069-0.223-0.069-0.415-0.177-0.669-0.338-0.461-0.3-0.884-0.731-1.184-1.207-0.307-0.492-0.446-0.877-0.384-1.43 0.061-0.523-0.484-0.961-0.961-0.961-0.377 0-0.653 0.2-0.807 0.492 0.161-0.254 0.423-0.423 0.768-0.423 0.47 0 1.023 0.446 0.961 0.961-0.107 0.907-0.43 1.907-0.93 2.791 0.277 0.369 0.6 0.692 0.938 0.968 0.93 0.769 2.245 1.446 3.467 1.007 1.369-0.491 1.937-2.229 1.838-3.567-0.254-3.298-3.121-5.765-4.743-8.448-0.185-0.292-0.523-0.477-0.862-0.477-0.161 0-0.315 0.039-0.461 0.131-1.683 1.06-3.206 2.39-4.459 3.944-1.099 1.368-2.191 2.959-2.706 4.658-0.53 1.753 0.308 3.429 1.999 4.105 0.239 0.093 0.469 0.169 0.7 0.208 1.876 0.384 3.382-0.884 4.289-2.529-0.638-0.83-1.068-1.845-0.953-2.86 0.016-0.131 0.046-0.254 0.1-0.369-0.077 0.13-0.123 0.284-0.139 0.438-0.13 1.092-0.883 2.675-1.891 3.29-0.868 0.531-2.467-0.13-2.352-1.291 0.077-0.83 0.607-1.676 1.015-2.383 0.431-0.738 0.914-1.453 1.468-2.114 0.923-1.107 1.968-2.099 3.144-2.922-0.192-0.284-0.376-0.569-0.553-0.861 0.438 0.116 0.876 0.231 1.314 0.346-0.261 0.162-0.515 0.331-0.761 0.515 0.792 1.169 1.692 2.26 2.476 3.429 0.753 1.107 1.722 2.576 1.414 3.997-0.069 0.308-0.192 0.616-0.384 0.877-8e-3 0-0.031 0.023-0.069 0.046-0.015 8e-3 -0.023 0.015-0.031 0.015h0.016c-0.078 0.031-0.085 0.039-0.031 8e-3 -0.039 0.015-0.085 0.023-0.131 0.031" fill="#000000"/>
   </g>
   <g transform="translate(441.94 1251.5)">
    <path d="m0 0c0.308-1.422-0.661-2.891-1.415-3.998-0.784-1.168-1.683-2.26-2.475-3.428-1.176 0.822-2.222 1.814-3.144 2.921-0.554 0.661-1.038 1.376-1.468 2.114-0.408 0.707-0.938 1.553-1.015 2.383-0.116 1.161 1.483 1.822 2.352 1.292 1.007-0.615 1.761-2.199 1.891-3.29 0.016-0.154 0.062-0.308 0.139-0.438 0.015-0.031 0.031-0.07 0.053-0.1 0.154-0.292 0.431-0.493 0.808-0.493 0.476 0 1.022 0.439 0.961 0.961-0.062 0.554 0.077 0.938 0.384 1.43 0.3 0.477 0.722 0.908 1.184 1.208 0.254 0.161 0.446 0.269 0.669 0.337 0.031 8e-3 0.284 0.062 0.284 0.07 0.046 0 0.115 0 0.162 8e-3 0.046-8e-3 0.092-0.016 0.13-0.031 8e-3 0 8e-3 0 0.016-8e-3 7e-3 0 0.015-8e-3 0.03-0.015 0.039-0.024 0.062-0.047 0.07-0.047 0.192-0.261 0.315-0.568 0.384-0.876" fill="#000000"/>
   </g>
   <g transform="translate(441.47 1252.5)">
    <path d="m0 0h-0.016c-7e-3 8e-3 -7e-3 8e-3 -0.015 8e-3 -0.054 0.031-0.046 0.023 0.031-8e-3" fill="#000000"/>
   </g>
   <g transform="translate(438.81 1243.6)">
    <path d="m0 0c-0.438-0.115-0.876-0.23-1.314-0.346 0.176 0.292 0.361 0.577 0.553 0.861 0.246-0.184 0.5-0.353 0.761-0.515" fill="#000000"/>
   </g>
   <g transform="translate(438.59 1249.5)">
    <path d="m0 0c0.062-0.515-0.492-0.961-0.961-0.961-0.346 0-0.607 0.169-0.768 0.423-0.023 0.031-0.039 0.069-0.054 0.1-0.054 0.115-0.085 0.238-0.1 0.369-0.116 1.015 0.315 2.029 0.953 2.86 0.5-0.884 0.823-1.884 0.93-2.791" fill="#000000"/>
   </g>
   <g transform="translate(438.3 1241.8)">
    <path d="m0 0 8e-3 -0.469c-2.237-0.077-4.474 0.054-6.673 0.4-0.092 0.061-0.208 0.108-0.338 0.131-3.337 0.653-6.965 1.529-9.779 3.536-0.33 0.238-0.646 0.5-0.923 0.799-0.138 0.146-0.191 0.216-0.23 0.27-0.039 0.053-0.077 0.123-0.107 0.184-8e-3 7e-3 -0.016 0.023-0.016 0.031 0 0 0 7e-3 -8e-3 0.015v8e-3c0.746 0.692 1.346 1.622 2.061 2.36 3.09 3.19 6.841 5.35 10.962 6.25l0.115-0.469c-0.23-0.039-0.461-0.115-0.699-0.208-1.691-0.676-2.529-2.352-1.999-4.105 0.515-1.699 1.607-3.29 2.706-4.658 1.253-1.554 2.775-2.884 4.459-3.944 0.146-0.092 0.3-0.131 0.461-0.131" fill="#ffffff"/>
   </g>
   <g transform="translate(431.63 1241.7)">
    <path d="m0 0c0.753-0.484 0.23-1.929-0.846-1.722-1.314 0.262-2.729 0.561-4.128 0.953-0.669 0.585-0.153 1.945 0.884 1.653 1.338-0.376 2.706-0.676 4.09-0.884" fill="#000000"/>
   </g>
   <g transform="translate(420.21 1246.7)">
    <path d="m0 0c8e-3 -0.015 0.016-0.023 0.016-0.023-0.016-0.015-0.024-0.023-0.039-0.039-0.138-0.122-0.061 0.039-0.016 0.116 8e-3 -0.015 0.024-0.031 0.039-0.054" fill="#000000"/>
   </g>
  </g>
  <g transform="translate(403.08 1233.5)">
   <path d="m0 0c2.473 0 2.477 3.844 0 3.844-2.474 0-2.478-3.844 0-3.844" fill="#ffffff"/>
  </g>
  <g transform="translate(478.3 1195.8)">
   <path d="m0 0c2.474 0 2.478 3.844 0 3.844-2.473 0-2.477-3.844 0-3.844" fill="#ffffff"/>
  </g>
  <g transform="translate(510.64 1314.6)">
   <path d="m0 0c2.473 0 2.478 3.844 0 3.844-2.473 0-2.478-3.844 0-3.844" fill="#ffffff"/>
  </g>
  <g transform="translate(601.7 1506.6)">
   <path d="m0 0c2.474 0 2.478 3.844 0 3.844-2.473 0-2.477-3.844 0-3.844" fill="#ffffff"/>
  </g>
  <g transform="translate(459.17 1459.8)">
   <path d="m0 0c2.474 0 2.478 3.844 0 3.844-2.473 0-2.477-3.844 0-3.844" fill="#ffffff"/>
  </g>
  <g transform="translate(686.83 1390.5)">
   <path d="m0 0c2.473 0 2.477 3.844 0 3.844-2.474 0-2.478-3.844 0-3.844" fill="#ffffff"/>
  </g>
  <g transform="translate(893.98 1337.2)">
   <path d="m0 0c16.886-8.941 33.771-17.882 50.657-26.823 2.132-1.129 4.029 2.107 1.893 3.238-16.886 8.94-33.772 17.882-50.657 26.823-2.132 1.128-4.029-2.107-1.893-3.238" fill="#00fff4"/>
  </g>
  <g transform="translate(906.39 1299.9)">
   <path d="m0 0c5.46 15.273 12.994 29.78 22.313 43.055 2.628 3.742 5.4 7.377 8.308 10.905 0.649 0.788 0.756 1.879 0 2.652-0.657 0.671-2.009 0.779-2.652 0-10.617-12.882-19.511-27.138-26.292-42.397-1.928-4.339-3.695-8.748-5.293-13.218-0.814-2.277 2.808-3.257 3.616-0.997" fill="#00fff4"/>
  </g>
  <g transform="translate(905.88 1359.8)">
   <path d="m0 0 14.764-58.541c1.383-5.483 2.766-10.966 4.149-16.45 0.589-2.338 4.207-1.347 3.616 0.997l-14.764 58.541c-1.384 5.483-2.766 10.967-4.149 16.45-0.59 2.338-4.207 1.347-3.616-0.997" fill="#00fff4"/>
  </g>
  <g transform="translate(887.15 1316.8)">
   <path d="m0 0c17.599 8.538 37.143 12.928 56.698 12.844 5.466-0.023 10.939-0.381 16.357-1.113 1.01-0.137 2.001 0.243 2.306 1.31 0.249 0.871-0.306 2.17-1.31 2.306-20.131 2.722-40.785 0.848-60.061-5.61-5.427-1.819-10.733-4.001-15.883-6.499-2.17-1.053-0.271-4.288 1.893-3.238" fill="#00fff4"/>
  </g>
  <g transform="translate(148.3 1742.9)">
   <path d="m 0,0 c 15.907,-9.209 31.815,-18.419 47.722,-27.628 2.092,-1.212 3.983,2.027 1.893,3.237 C 33.708,-15.181 17.8,-5.971 1.893,3.238 -0.2,4.45 -2.09,1.21 0,0" fill="#00fff4"/>
  </g>
  <g transform="translate(189.83 1763.4)">
   <path d="m0 0c-11.045-15.77-19.279-33.509-24.209-52.121-1.381-5.214-2.493-10.495-3.35-15.82 1.228-0.166 2.455-0.332 3.683-0.498 0.077 2.289 0.153 4.579 0.23 6.869 0.08 2.414-3.67 2.411-3.75 0-0.077-2.29-0.153-4.58-0.23-6.869-0.069-2.065 3.342-2.617 3.683-0.499 3.01 18.708 9.286 36.835 18.566 53.36 2.641 4.703 5.521 9.267 8.615 13.685 1.387 1.981-1.862 3.857-3.238 1.893" fill="#00fff4"/>
  </g>
  <g transform="translate(161.35 1759.6)">
   <path d="m0 0c6.349-16.382 12.698-32.764 19.046-49.146 1.797-4.637 3.594-9.273 5.391-13.91 0.364-0.94 1.261-1.602 2.307-1.309 0.9 0.252 1.678 1.354 1.309 2.306-6.349 16.382-12.698 32.765-19.046 49.146-1.797 4.637-3.594 9.273-5.391 13.91-0.364 0.94-1.261 1.602-2.306 1.309-0.9-0.252-1.679-1.353-1.31-2.306" fill="#00fff4"/>
  </g>
  <g transform="translate(149.43 1721.5)">
   <path d="m0 0 68.324 15.312c2.354 0.528 1.358 4.144-0.997 3.616-17.767-3.982-35.535-7.964-53.302-11.945-5.007-1.123-10.015-2.245-15.022-3.367-2.354-0.527-1.357-4.143 0.997-3.616" fill="#00fff4"/>
  </g>
  <g transform="translate(856.88 1765.1)">
   <path d="m0 0c0.019 0.21 0.227 1.525 0.07 0.749-0.151-0.75 0.073 0.374 0.107 0.562 0.151 0.813 0.338 1.619 0.56 2.416 0.206 0.74 0.442 1.471 0.706 2.191 0.082 0.225 0.543 1.358 0.27 0.721-0.275-0.642 0.236 0.502 0.329 0.696 0.717 1.495 1.557 2.93 2.504 4.29 0.118 0.168 0.626 0.674 0.625 0.864 0-0.018-0.595-0.74-0.239-0.308 0.151 0.183 0.297 0.37 0.448 0.552 0.531 0.639 1.086 1.256 1.665 1.85 0.538 0.553 1.095 1.085 1.672 1.596 0.265 0.236 0.535 0.467 0.809 0.693 0.134 0.11 0.482 0.32 0.553 0.446-0.126-0.225-0.714-0.528-0.164-0.136 1.303 0.928 2.642 1.784 4.067 2.513 0.369 0.189 0.743 0.363 1.116 0.542 0.862 0.413-0.784-0.291 0.108 0.054 0.773 0.298 1.55 0.578 2.344 0.815 0.739 0.221 1.487 0.408 2.242 0.564 0.406 0.083 0.815 0.151 1.223 0.224 0.863 0.153-0.935-0.094 0.254 0.024 1.587 0.158 3.187 0.179 4.778 0.07 0.412-0.028 0.823-0.08 1.235-0.111 0.583-0.043-0.454 0.069-0.449 0.069 0.215 1e-3 0.498-0.073 0.701-0.107 0.818-0.134 1.63-0.302 2.434-0.502 0.747-0.187 1.487-0.4 2.219-0.641 0.337-0.111 0.673-0.228 1.007-0.351 0.167-0.061 0.334-0.123 0.5-0.187 0.059-0.023 1.105-0.483 0.39-0.151-0.648 0.301 0.374-0.179 0.539-0.257 0.375-0.177 0.747-0.362 1.115-0.554 0.735-0.384 1.455-0.797 2.157-1.238 0.653-0.41 1.272-0.865 1.907-1.3 0.461-0.316-0.294 0.238-0.305 0.245 0.19-0.124 0.38-0.302 0.552-0.445 0.32-0.262 0.634-0.532 0.942-0.808 0.572-0.512 1.124-1.046 1.655-1.601 0.285-0.299 0.563-0.605 0.836-0.916 0.16-0.183 0.577-0.893 0.796-0.95-0.075 0.019-0.693 0.944-0.133 0.168 0.103-0.144 0.208-0.287 0.311-0.431 0.205-0.29 0.405-0.584 0.599-0.881 0.468-0.719 0.9-1.461 1.306-2.217 0.723-1.344 1.37-2.728 1.993-4.121 2.602-5.81 4.988-12.011 10.192-16.033 6.185-4.777 14.233-4.927 20.892-0.987 6.295 3.725 11.072 10.03 14.373 16.448 2.886 5.613 4.953 11.539 8.445 16.85 0.405 0.615 0.824 1.221 1.26 1.815 0.13 0.177 0.285 0.353 0.403 0.538-2e-3 -4e-3 -0.629-0.764-0.269-0.356 0.255 0.288 0.487 0.598 0.738 0.889 0.98 1.136 2.048 2.164 3.189 3.135 0.693 0.589-0.778-0.529-0.027-0.029 0.298 0.199 0.587 0.408 0.89 0.599 0.602 0.381 1.246 0.668 1.862 1.02 0.448 0.256-0.496-0.201-0.503-0.201 0.129 0.01 0.299 0.122 0.423 0.164 0.335 0.114 0.666 0.236 1.006 0.336 0.293 0.086 0.588 0.163 0.886 0.23 0.2 0.046 0.403 0.078 0.603 0.123 0.704 0.159-0.228-0.102-0.406-0.041 0.499-0.17 1.538 0.106 2.081 0.093 0.238-5e-3 0.477-0.016 0.714-0.032 0.227-0.015 1.342-0.15 0.304-8e-3 -1.02 0.14 0.453-0.096 0.782-0.173 0.466-0.109 0.926-0.242 1.378-0.396 0.223-0.076 0.441-0.177 0.665-0.246 0.297-0.091-1.236 0.574-0.455 0.187 0.421-0.208 0.84-0.412 1.247-0.647 0.378-0.218 0.747-0.452 1.106-0.7 0.195-0.133 0.38-0.284 0.576-0.414 0.125-0.083-1.014 0.833-0.29 0.212 0.742-0.636 1.452-1.298 2.116-2.016 0.317-0.342 0.623-0.693 0.922-1.051 0.14-0.167 0.275-0.338 0.414-0.507 0.628-0.764-0.692 0.943-0.107 0.138 1.224-1.684 2.339-3.432 3.363-5.245 2.199-3.89 4.055-7.96 6.032-11.964 3.929-7.958 8.648-16.431 17.339-19.836 4.907-1.923 10.566-1.39 15.271 0.814 4.774 2.237 8.262 6.653 10.955 11.044 2.778 4.53 4.925 9.411 7.482 14.063 1.273 2.315 2.683 4.504 4.201 6.662 0.309 0.438-0.38-0.48-0.349-0.447 0.126 0.134 0.236 0.3 0.353 0.444 0.178 0.22 0.358 0.437 0.541 0.652 0.424 0.497 0.863 0.98 1.32 1.447 0.42 0.43 0.854 0.845 1.304 1.243 0.141 0.125 0.749 0.501 0.807 0.683-0.012-0.039-0.746-0.533-0.283-0.226 0.254 0.168 0.496 0.354 0.751 0.523 0.661 0.436 1.348 0.833 2.055 1.19 0.326 0.166 0.66 0.314 0.99 0.469 0.523 0.246-0.339-0.162-0.351-0.151 0.02-0.021 0.76 0.282 0.859 0.315 0.75 0.259 1.514 0.479 2.287 0.656 0.358 0.082 0.717 0.155 1.078 0.22 0.198 0.035 0.559 0.039 0.724 0.117-0.264-0.125-0.924-0.098-0.237-0.045 0.794 0.06 1.584 0.112 2.381 0.107 0.367-2e-3 0.734-0.014 1.1-0.034 0.244-0.013 0.488-0.03 0.731-0.051 0.145-0.013 0.981-0.057 0.246-0.011-0.747 0.046 0.602-0.107 0.782-0.142 0.358-0.07 0.716-0.149 1.071-0.237 0.831-0.207 1.635-0.478 2.441-0.764 0.712-0.253-0.153-0.089-0.18 0.087 6e-3 -0.042 0.447-0.205 0.498-0.229 0.33-0.158 0.656-0.324 0.978-0.499 0.747-0.408 1.431-0.887 2.14-1.353 0.575-0.378-0.682 0.582-0.164 0.13 0.134-0.116 0.276-0.225 0.411-0.341 0.27-0.231 0.535-0.47 0.792-0.715 0.604-0.574 1.155-1.191 1.7-1.82 0.57-0.658-0.481 0.69 0.196-0.258 0.242-0.339 0.475-0.683 0.697-1.035 0.445-0.704 0.852-1.433 1.217-2.181 0.144-0.297 0.25-0.714 0.447-0.974-0.087 0.115-0.399 1.047-0.102 0.201 0.059-0.169 0.124-0.335 0.183-0.504 0.276-0.786 0.509-1.587 0.698-2.398 0.081-0.348 0.153-0.698 0.217-1.049 0.235-1.283-0.034 0.668 0.054-0.258 0.073-0.768 0.126-1.536 0.127-2.309 1e-3 -0.647-0.307-1.724-0.123-2.309-4e-3 0.015 0.165 1.01 0.061 0.447-0.032-0.175-0.056-0.353-0.088-0.528-0.086-0.469-0.192-0.932-0.308-1.394-0.631-2.534 0.816-5.541 3.493-6.151 2.589-0.59 5.474 0.777 6.151 3.492 1.826 7.332 0.42 15.466-3.884 21.706-4.666 6.762-11.755 10.766-19.933 11.412-7.58 0.598-15.279-2.262-20.692-7.567-4.07-3.989-6.964-9.05-9.56-14.069-2.428-4.693-4.628-9.585-7.742-13.879-0.121-0.167-0.798-1.062-0.242-0.334 0.529 0.689-0.048-0.048-0.176-0.204-0.405-0.488-0.827-0.964-1.27-1.419-0.375-0.386-0.764-0.757-1.168-1.111-0.207-0.182-0.479-0.342-0.657-0.55-0.034-0.04 0.948 0.665 0.53 0.413-0.17-0.102-0.33-0.239-0.493-0.35-0.432-0.294-0.879-0.567-1.339-0.814-0.248-0.133-0.506-0.247-0.755-0.378-0.664-0.35 1.158 0.408 0.183 0.083-0.552-0.183-1.095-0.367-1.663-0.5-0.248-0.058-0.499-0.103-0.749-0.153-1.093-0.222 1.144 0.067 0.031 6e-3 -0.537-0.028-1.07-0.067-1.608-0.06-0.251 3e-3 -0.502 0.013-0.753 0.028-0.269 0.017-1.29 0.143-0.277 1e-3 1.033-0.145-0.417 0.086-0.743 0.162-0.485 0.113-0.964 0.253-1.434 0.418-0.185 0.066-0.366 0.148-0.553 0.208-0.286 0.094 1.257-0.597 0.386-0.151-0.408 0.209-0.815 0.413-1.209 0.647-0.397 0.235-0.774 0.497-1.155 0.756-0.809 0.551 0.528-0.438 0.298-0.24-0.178 0.153-0.364 0.296-0.542 0.449-0.729 0.628-1.411 1.311-2.052 2.028-0.331 0.371-0.648 0.753-0.963 1.138-0.503 0.615 0.028 0.01 0.248-0.327-0.16 0.244-0.352 0.47-0.522 0.707-1.257 1.746-2.363 3.597-3.397 5.482-4.439 8.09-7.617 16.885-13.512 24.103-2.863 3.506-6.628 6.332-10.992 7.654-5.897 1.787-12.538 0.566-17.491-3.06-5.564-4.073-9.375-9.962-12.4-16.067-1.44-2.904-2.622-5.921-4.016-8.845-0.759-1.593-1.604-3.146-2.529-4.649-0.437-0.709-0.892-1.407-1.367-2.092-0.255-0.369-0.516-0.733-0.782-1.094-0.104-0.141-0.214-0.345-0.345-0.461 0.46 0.403 0.329 0.42-0.044-0.038-1.06-1.304-2.203-2.545-3.444-3.679-0.312-0.285-0.63-0.562-0.954-0.833-0.07-0.058-0.396-0.258-0.416-0.34 0.073 0.302 0.717 0.523 0.168 0.136-0.66-0.465-1.326-0.917-2.028-1.317-0.342-0.195-0.691-0.373-1.042-0.549-1.035-0.521 0.636 0.189-0.171-0.088-0.717-0.246-1.428-0.483-2.173-0.637-0.156-0.032-0.319-0.048-0.473-0.088-0.646-0.165 1.042 0.047 0.377 0.055-0.318 3e-3 -0.641-0.046-0.961-0.051-0.379-5e-3 -0.752 0.024-1.13 0.037-0.151 5e-3 -0.733 0.082 0.015-0.015 0.845-0.109-0.132 0.04-0.315 0.08-0.331 0.073-0.66 0.16-0.985 0.259-0.172 0.053-1.385 0.551-0.707 0.229 0.653-0.311-0.39 0.208-0.588 0.317-0.371 0.203-0.734 0.425-1.084 0.662-0.128 0.087-0.251 0.196-0.384 0.273-0.45 0.261 0.403-0.257 0.393-0.303 0.019 0.081-0.701 0.615-0.817 0.726-0.533 0.509-0.989 1.074-1.484 1.617-0.438 0.481 0.555-0.808 0.201-0.258-0.085 0.133-0.188 0.259-0.28 0.389-0.216 0.308-0.423 0.621-0.625 0.938-0.411 0.646-0.793 1.309-1.156 1.983-0.749 1.387-1.413 2.819-2.055 4.258-1.271 2.848-2.447 5.751-3.977 8.475-1.751 3.118-4.064 6.015-6.745 8.385-5.733 5.07-12.725 8.081-20.295 8.997-14.597 1.767-29.082-7.392-34.81-20.746-1.544-3.598-2.469-7.182-2.825-11.09-0.238-2.612 2.47-5.114 5-5 2.913 0.13 4.745 2.202 5 5" fill="#00fff4"/>
  </g>
  <g transform="translate(146.86 991.25)">
   <path d="m 0,0 c 11.018,-6.379 22.037,-12.758 33.055,-19.137 2.092,-1.211 3.982,2.028 1.892,3.238 L 1.893,3.238 C -0.2,4.449 -2.09,1.21 0,0" fill="#00fff4"/>
  </g>
  <g transform="translate(175.43 1006.2)">
   <path d="m0 0c-9.821-14.039-16.415-30.282-19.146-47.196 1.227-0.167 2.455-0.333 3.683-0.499 0.052 1.586 0.106 3.172 0.158 4.758 0.081 2.414-3.669 2.411-3.75 0-0.052-1.586-0.106-3.172-0.158-4.758-0.069-2.064 3.34-2.616 3.683-0.498 2.687 16.64 9.106 32.488 18.768 46.3 1.387 1.982-1.863 3.858-3.238 1.893" fill="#00fff4"/>
  </g>
  <g transform="translate(155.64 1003.2)">
   <path d="m0 0c5.642-14.559 11.284-29.117 16.926-43.675 0.365-0.94 1.261-1.602 2.306-1.309 0.9 0.252 1.679 1.353 1.31 2.306-5.642 14.558-11.284 29.116-16.926 43.675-0.365 0.94-1.261 1.602-2.306 1.309-0.9-0.252-1.679-1.353-1.31-2.306" fill="#00fff4"/>
  </g>
  <g transform="translate(148.09 976.35)">
   <path d="m0 0c15.775 3.535 31.549 7.07 47.324 10.606 2.354 0.527 1.358 4.144-0.997 3.616-15.774-3.535-31.549-7.071-47.324-10.606-2.354-0.528-1.357-4.144 0.997-3.616" fill="#00fff4"/>
  </g>
  <g transform="translate(460.99 1487.3)">
   <path d="m0 0c-1.241 5.217-3.169 13.336-4.41 18.553 7.246-0.765 14.487-1.588 21.72-2.469-5.757-5.364-11.514-10.729-17.271-16.092" fill="#ffa697"/>
  </g>
  <g transform="translate(462.06 1487.6)">
   <path d="m0 0c-1.472 6.184-2.939 12.368-4.41 18.552-0.357-0.467-0.713-0.935-1.069-1.402 7.247-0.766 14.487-1.589 21.721-2.469-0.261 0.631-0.522 1.261-0.784 1.891l-17.271-16.092c-1.045-0.974 0.524-2.538 1.566-1.566 5.758 5.363 11.515 10.728 17.272 16.091 0.776 0.724 0.097 1.785-0.783 1.891-7.234 0.881-14.474 1.704-21.721 2.47-0.749 0.079-1.219-0.769-1.068-1.403 1.472-6.184 2.939-12.368 4.411-18.552 0.329-1.387 2.467-0.8 2.136 0.589" fill="#000000"/>
  </g>
  <g transform="translate(557.08 1492.5)">
   <path d="m0 0c2.851 0 2.856 4.431 0 4.431-2.852 0-2.856-4.431 0-4.431" fill="#ffffff"/>
  </g>
 </g>
</svg>
