<?xml version="1.0" encoding="UTF-8" standalone="no"?>
<svg
   xmlns:dc="http://purl.org/dc/elements/1.1/"
   xmlns:cc="http://creativecommons.org/ns#"
   xmlns:rdf="http://www.w3.org/1999/02/22-rdf-syntax-ns#"
   xmlns:svg="http://www.w3.org/2000/svg"
   xmlns="http://www.w3.org/2000/svg"
   xmlns:xlink="http://www.w3.org/1999/xlink"
   id="svg193"
   viewBox="0 0 120.35 35.950001"
   height="35.950001"
   width="120.35"
   y="0px"
   x="0px"
   preserveAspectRatio="none"
   version="1.1">
  <metadata
     id="metadata197">
    <rdf:RDF>
      <cc:Work
         rdf:about="">
        <dc:format>image/svg+xml</dc:format>
        <dc:type
           rdf:resource="http://purl.org/dc/dcmitype/StillImage" />
        <dc:title></dc:title>
      </cc:Work>
    </rdf:RDF>
  </metadata>
  <defs
     id="defs83">
    <g
       id="Layer2_0_MEMBER_0_MEMBER_0_MEMBER_0_MEMBER_0_FILL">
      <path
         style="fill:#000000;stroke:none"
         id="path2"
         d="M 115.45,0.15 113.55,0 H 6.8 L 4.85,0.15 Q 4,0.3 3.2,0.7 2.3,1.1 1.75,1.65 1.1,2.35 0.7,2.95 0.3,3.75 0.15,4.5 0,5.4 0,6.3 v 23.4 q 0,0.95 0.15,1.75 0.15,0.8 0.55,1.6 0.5,0.75 1.05,1.3 0.55,0.55 1.45,0.95 0.65,0.3 1.65,0.5 l 1.95,0.15 h 106.75 l 1.9,-0.15 q 0.95,-0.15 1.7,-0.5 0.65,-0.3 1.4,-0.95 0.65,-0.55 1.05,-1.3 0.35,-0.6 0.55,-1.6 0.2,-1.1 0.2,-1.75 V 6.3 q 0,-0.6 -0.2,-1.8 -0.15,-0.9 -0.55,-1.55 -0.85,-1.5 -2.45,-2.25 -0.9,-0.4 -1.7,-0.55 z" />
    </g>
    <g
       id="Layer2_0_MEMBER_0_MEMBER_0_MEMBER_1_MEMBER_0_MEMBER_0_MEMBER_0_FILL">
      <path
         style="fill:#ffffff;stroke:none"
         id="path5"
         d="m 26.85,20.05 q -0.75,-1.1 -0.75,-2.45 0,-1.2 0.6,-2.25 0.6,-1.05 1.6,-1.65 -1.35,-1.95 -3.75,-2.05 -0.9,-0.1 -2.25,0.4 -1.4,0.55 -1.65,0.55 -0.3,0 -1.5,-0.45 -1.15,-0.5 -1.9,-0.45 -2.75,0.1 -4.15,2.55 -1.3,2.2 -0.7,5.4 0.45,2.7 1.95,4.9 1.8,2.65 3.2,2.6 0.6,0 1.6,-0.45 0.95,-0.4 1.8,-0.4 0.8,0 1.75,0.4 0.95,0.45 1.6,0.4 0.95,0 1.75,-0.8 0.5,-0.45 1.35,-1.7 0.9,-1.25 1.45,-2.9 -1.25,-0.55 -2,-1.65 z" />
    </g>
    <g
       id="Layer2_0_MEMBER_0_MEMBER_0_MEMBER_1_MEMBER_0_MEMBER_0_MEMBER_1_FILL">
      <path
         style="fill:#ffffff;stroke:none"
         id="path8"
         d="M 20.5,11.4 Q 22.3,11.5 23.55,10 24.7,8.55 24.6,6.7 22.8,6.95 21.55,8.25 20.35,9.7 20.5,11.4 Z" />
    </g>
    <g
       id="Layer2_0_MEMBER_0_MEMBER_0_MEMBER_1_MEMBER_1_MEMBER_0_FILL">
      <path
         style="fill:#ffffff;stroke:none"
         id="path11"
         d="m 42.55,24 1.05,3.15 h 1.9 L 41.3,15.5 h -1.95 l -4.2,11.65 h 1.9 L 38.1,24 h 4.45 m -4,-1.45 1.75,-5.1 h 0.05 l 1.75,5.1 z" />
    </g>
    <g
       id="Layer2_0_MEMBER_0_MEMBER_0_MEMBER_1_MEMBER_1_MEMBER_1_FILL">
      <path
         style="fill:#ffffff;stroke:none"
         id="path14"
         d="m 48.3,18.65 h -1.7 v 11.3 h 1.75 v -4.2 h 0.05 q 0.85,1.6 2.65,1.5 1.6,0 2.6,-1.2 0.95,-1.15 0.95,-3.15 0,-2 -0.95,-3.15 -1,-1.2 -2.65,-1.2 -1.7,-0.1 -2.7,1.5 v -1.4 m 0.05,4.25 q 0,-1.25 0.6,-2.05 0.6,-0.8 1.6,-0.8 1,0 1.65,0.75 0.6,0.8 0.6,2.1 0,1.3 -0.6,2.1 -0.65,0.75 -1.65,0.75 -1,0 -1.6,-0.8 -0.6,-0.8 -0.6,-2.05 z" />
    </g>
    <g
       id="Layer2_0_MEMBER_0_MEMBER_0_MEMBER_1_MEMBER_1_MEMBER_2_FILL">
      <path
         style="fill:#ffffff;stroke:none"
         id="path17"
         d="m 63.95,22.9 q 0,-2 -1,-3.15 -1,-1.2 -2.6,-1.2 -1.8,-0.1 -2.7,1.5 v -1.4 h -1.7 v 11.3 h 1.75 v -4.2 h 0.05 q 0.85,1.6 2.65,1.5 1.6,0 2.6,-1.2 0.95,-1.15 0.95,-3.15 m -2.4,-2.1 q 0.6,0.8 0.6,2.1 0,1.3 -0.6,2.1 -0.65,0.75 -1.65,0.75 -1,0 -1.6,-0.8 -0.6,-0.8 -0.6,-2.05 0,-1.25 0.6,-2.05 0.6,-0.8 1.6,-0.8 1,0 1.65,0.75 z" />
    </g>
    <g
       id="Layer2_0_MEMBER_0_MEMBER_0_MEMBER_1_MEMBER_1_MEMBER_3_FILL">
      <path
         style="fill:#ffffff;stroke:none"
         id="path20"
         d="m 70.1,23.9 h -1.75 q 0.1,1.6 1.3,2.5 1.2,0.95 3.15,0.95 2.05,0 3.25,-0.95 1.2,-1 1.2,-2.6 0,-1.3 -0.75,-2.05 -0.8,-0.8 -2.6,-1.2 l -1.3,-0.3 q -2.1,-0.55 -2.1,-1.7 0,-0.75 0.65,-1.25 0.65,-0.5 1.7,-0.5 2.25,0 2.5,1.9 h 1.75 q -0.05,-1.5 -1.2,-2.45 -1.15,-0.95 -3,-0.95 -1.85,0 -3.05,0.95 -1.2,0.95 -1.2,2.45 0,2.35 3.15,3.15 l 1.5,0.35 q 2.15,0.5 2.15,1.8 0,0.8 -0.7,1.3 -0.75,0.5 -1.85,0.5 -1.15,0 -1.9,-0.5 -0.8,-0.55 -0.9,-1.4 z" />
    </g>
    <g
       id="Layer2_0_MEMBER_0_MEMBER_0_MEMBER_1_MEMBER_1_MEMBER_4_FILL">
      <path
         style="fill:#ffffff;stroke:none"
         id="path23"
         d="m 81.05,18.65 v -2 H 79.3 v 2 h -1.25 v 1.4 h 1.25 v 4.85 q 0,1.25 0.55,1.75 0.55,0.55 1.8,0.55 l 1,-0.1 v -1.35 h -0.6 q -1,0 -1,-1.05 v -4.65 h 1.6 v -1.4 z" />
    </g>
    <g
       id="Layer2_0_MEMBER_0_MEMBER_0_MEMBER_1_MEMBER_1_MEMBER_5_FILL">
      <path
         style="fill:#ffffff;stroke:none"
         id="path26"
         d="m 91.65,22.9 q 0,-2 -1.1,-3.2 -1.1,-1.15 -2.95,-1.15 -1.85,0 -2.9,1.15 -1.1,1.2 -1.1,3.2 0,2 1.1,3.15 1.05,1.2 2.9,1.2 1.85,0 2.95,-1.2 1.1,-1.15 1.1,-3.15 m -2.4,-2.15 q 0.6,0.75 0.6,2.15 0,1.4 -0.6,2.15 -0.6,0.75 -1.65,0.75 -1.05,0 -1.65,-0.75 -0.6,-0.75 -0.6,-2.15 0,-1.4 0.6,-2.15 0.6,-0.75 1.65,-0.75 1.05,0 1.65,0.75 z" />
    </g>
    <g
       id="Layer2_0_MEMBER_0_MEMBER_0_MEMBER_1_MEMBER_1_MEMBER_6_FILL">
      <path
         style="fill:#ffffff;stroke:none"
         id="path29"
         d="m 94.8,21.85 q 0.05,-0.75 0.55,-1.25 0.55,-0.5 1.3,-0.45 l 0.75,0.1 V 18.6 l -0.6,-0.05 q -0.7,-0.05 -1.3,0.4 -0.55,0.45 -0.7,1.15 H 94.75 V 18.65 H 93.1 v 8.5 h 1.7 z" />
    </g>
    <g
       id="Layer2_0_MEMBER_0_MEMBER_0_MEMBER_1_MEMBER_1_MEMBER_7_FILL">
      <path
         style="fill:#ffffff;stroke:none"
         id="path32"
         d="m 105.45,24.65 h -1.65 q -0.5,1.3 -1.95,1.2 h -0.3 q -0.9,-0.1 -1.5,-0.8 -0.55,-0.7 -0.5,-1.6 v -0.1 h 6 v -0.6 q 0,-1.95 -1,-3.05 -1.05,-1.15 -2.8,-1.15 -1.8,0 -2.85,1.2 -1.1,1.2 -1.1,3.2 0,2 1.1,3.15 1.05,1.15 2.9,1.15 1.45,0 2.45,-0.7 1,-0.75 1.2,-1.9 m -2.15,-4 q 0.55,0.6 0.5,1.45 h -4.25 q 0,-0.9 0.65,-1.5 0.65,-0.65 1.55,-0.65 h 0.15 q 0.8,0.05 1.4,0.7 z" />
    </g>
    <g
       id="Layer2_0_MEMBER_0_MEMBER_1_MEMBER_0_MEMBER_0_FILL">
      <path
         style="fill:#ffffff;stroke:none"
         id="path35"
         d="M 41,9.5 V 9 Q 40.95,8 40.15,7.35 39.35,6.65 38.35,6.7 H 36.3 v 5.6 h 2.05 q 1.25,0 1.95,-0.7 Q 41,10.85 41,9.5 m -2.75,-2 0.35,0.05 q 0.7,0.1 1.15,0.65 0.45,0.6 0.35,1.3 v 0.4 q -0.05,0.7 -0.6,1.2 -0.55,0.5 -1.25,0.45 H 37.2 V 7.5 Z" />
    </g>
    <g
       id="Layer2_0_MEMBER_0_MEMBER_1_MEMBER_0_MEMBER_1_FILL">
      <path
         style="fill:#ffffff;stroke:none"
         id="path38"
         d="m 43.9,8 -0.25,0.05 q -0.8,0.1 -1.3,0.75 -0.5,0.6 -0.4,1.4 v 0.35 q 0,0.8 0.6,1.35 0.55,0.55 1.35,0.5 1.4,0.15 1.85,-1.2 h -0.8 q -0.35,0.6 -1,0.5 H 43.8 q -0.45,-0.05 -0.75,-0.4 -0.3,-0.35 -0.25,-0.8 v -0.05 h 3 v -0.3 Q 45.8,8 43.9,8 M 43.15,9.05 Q 43.45,8.7 43.9,8.75 H 44 q 0.4,0 0.7,0.3 Q 45,9.4 44.95,9.8 H 42.8 q 0,-0.45 0.35,-0.75 z" />
    </g>
    <g
       id="Layer2_0_MEMBER_0_MEMBER_1_MEMBER_0_MEMBER_2_FILL">
      <path
         style="fill:#ffffff;stroke:none"
         id="path41"
         d="m 48.45,8.7 q 0.75,0 0.85,0.5 h 0.8 Q 49.95,8 48.45,8 q -0.7,0 -1.2,0.35 -0.45,0.4 -0.45,0.95 0,0.95 1.2,1.15 l 0.7,0.2 q 0.65,0.15 0.65,0.5 0,0.6 -0.9,0.6 -0.65,0.1 -0.9,-0.55 H 46.7 q 0.15,1.2 1.75,1.2 0.75,0 1.25,-0.35 0.5,-0.4 0.5,-0.95 0,-0.9 -1.2,-1.2 L 48.3,9.75 q -0.65,-0.15 -0.65,-0.5 0,-0.55 0.8,-0.55 z" />
    </g>
    <g
       id="Layer2_0_MEMBER_0_MEMBER_1_MEMBER_0_MEMBER_3_FILL">
      <path
         style="fill:#ffffff;stroke:none"
         id="path44"
         d="M 53.1,8 52.75,8.05 Q 51.95,8.15 51.5,8.75 51,9.4 51.1,10.2 v 0.3 q 0,0.85 0.6,1.4 0.6,0.55 1.4,0.5 0.65,0.1 1.15,-0.35 0.55,-0.4 0.65,-1.1 h -0.85 q -0.15,0.8 -0.95,0.7 -1.15,0 -1.15,-1.45 0,-1.45 1.15,-1.45 0.8,-0.1 0.95,0.75 H 54.9 Q 54.85,8.85 54.3,8.4 53.75,7.95 53.1,8 Z" />
    </g>
    <g
       id="Layer2_0_MEMBER_0_MEMBER_1_MEMBER_0_MEMBER_4_FILL">
      <path
         style="fill:#ffffff;stroke:none"
         id="path47"
         d="m 57.6,8 q -0.7,0 -1.2,0.35 -0.45,0.3 -0.55,0.85 h 0.85 q 0.1,-0.45 0.85,-0.45 0.9,0 0.9,0.7 V 9.8 L 57.3,9.85 q -1.6,0.15 -1.6,1.3 v 0.1 q 0.1,0.55 0.5,0.85 0.4,0.35 0.9,0.3 0.8,0 1.3,-0.65 h 0.05 v 0.55 h 0.8 V 9.45 Q 59.25,8 57.6,8 m 0.45,3.5 q -0.3,0.25 -0.7,0.2 -0.8,0 -0.8,-0.6 0,-0.6 0.85,-0.6 l 1.05,-0.1 v 0.35 L 58.4,10.8 q -0.05,0.4 -0.35,0.7 m 1,-5.45 h -1 L 57.1,7.4 h 0.85 z" />
    </g>
    <g
       id="Layer2_0_MEMBER_0_MEMBER_1_MEMBER_0_MEMBER_5_FILL">
      <path
         style="fill:#ffffff;stroke:none"
         id="path50"
         d="m 61.75,9.1 q 0.3,-0.3 0.7,-0.25 l 0.5,0.05 V 8.05 h -0.4 q -0.8,-0.1 -1.15,0.7 H 61.35 V 8.1 h -0.8 v 4.2 H 61.4 V 9.75 q 0.05,-0.4 0.35,-0.65 z" />
    </g>
    <g
       id="Layer2_0_MEMBER_0_MEMBER_1_MEMBER_0_MEMBER_6_FILL">
      <path
         style="fill:#ffffff;stroke:none"
         id="path53"
         d="m 65.3,8.05 q -1.75,0 -1.75,2.1 0,0.95 0.45,1.5 0.5,0.6 1.3,0.6 0.8,0.1 1.3,-0.7 h 0.05 v 0.8 q 0,0.9 -1.1,0.9 -0.85,0 -1,-0.5 H 63.7 q 0.15,1.2 1.85,1.2 0.85,0 1.4,-0.45 0.55,-0.45 0.55,-1.15 V 8.1 h -0.8 v 0.65 h -0.1 q -0.45,-0.8 -1.3,-0.7 m -0.9,2.1 q 0,-1.35 1.1,-1.35 1.15,0 1.15,1.35 0,1.4 -1.15,1.4 -1.1,0 -1.1,-1.4 z" />
    </g>
    <g
       id="Layer2_0_MEMBER_0_MEMBER_1_MEMBER_0_MEMBER_7_FILL">
      <path
         style="fill:#ffffff;stroke:none"
         id="path56"
         d="m 71.25,11.75 h 0.05 v 0.55 h 0.8 V 9.45 Q 72.1,8 70.45,8 69.75,8 69.25,8.35 68.8,8.7 68.75,9.2 h 0.8 q 0.15,-0.45 0.85,-0.45 0.9,0 0.9,0.7 V 9.8 l -1.15,0.05 q -1.6,0.15 -1.6,1.3 v 0.1 q 0.1,0.55 0.5,0.85 0.4,0.35 0.95,0.3 0.75,0 1.25,-0.65 M 71.3,10.4 v 0.4 q -0.2,1 -1.1,0.9 -0.8,0 -0.8,-0.6 0,-0.6 0.85,-0.6 z" />
    </g>
    <g
       id="Layer2_0_MEMBER_0_MEMBER_1_MEMBER_0_MEMBER_8_FILL">
      <path
         style="fill:#ffffff;stroke:none"
         id="path59"
         d="M 73.45,6.45 V 12.3 H 74.3 V 6.45 Z" />
    </g>
    <g
       id="Layer2_0_MEMBER_0_MEMBER_1_MEMBER_0_MEMBER_9_FILL">
      <path
         style="fill:#ffffff;stroke:none"
         id="path62"
         d="m 75.45,10.2 v 0.4 q 0.1,0.8 0.75,1.35 0.6,0.55 1.45,0.45 0.8,-0.05 1.35,-0.7 0.55,-0.65 0.45,-1.5 V 9.85 Q 79.4,9 78.75,8.5 78.05,7.95 77.25,8 76.4,8.1 75.9,8.75 75.4,9.4 75.45,10.2 m 2,-1.45 q 1.1,0 1.1,1.45 0,1.45 -1.1,1.45 -1.15,0 -1.15,-1.45 0,-1.45 1.15,-1.45 z" />
    </g>
    <g
       id="Layer2_0_MEMBER_0_MEMBER_1_MEMBER_0_MEMBER_10_FILL">
      <path
         style="fill:#ffffff;stroke:none"
         id="path65"
         d="m 84.6,8 -0.3,0.05 q -0.8,0.1 -1.25,0.75 -0.5,0.6 -0.4,1.4 l -0.05,0.35 q 0.05,0.8 0.6,1.35 0.6,0.55 1.4,0.5 0.6,0.1 1.15,-0.25 0.5,-0.35 0.65,-0.95 h -0.8 q -0.35,0.6 -1,0.5 h -0.1 q -0.45,-0.05 -0.75,-0.4 -0.3,-0.35 -0.25,-0.8 v -0.05 h 2.95 v -0.3 Q 86.45,8 84.6,8 m -0.8,1.05 q 0.35,-0.35 0.75,-0.3 0.05,-0.05 0.1,0 0.45,0 0.7,0.3 0.3,0.35 0.25,0.75 h -2.1 q 0,-0.45 0.3,-0.75 z" />
    </g>
    <g
       id="Layer2_0_MEMBER_0_MEMBER_1_MEMBER_0_MEMBER_11_FILL">
      <path
         style="fill:#ffffff;stroke:none"
         id="path68"
         d="M 91.15,12.3 V 9.6 L 91.2,9.3 Q 91.15,8.75 90.7,8.35 90.25,7.95 89.7,8 88.8,7.9 88.45,8.75 H 88.4 V 8.1 h -0.8 v 4.2 h 0.8 V 9.7 q 0.05,-0.4 0.35,-0.65 0.3,-0.3 0.65,-0.25 0.95,0 0.95,1 v 2.5 z" />
    </g>
    <g
       id="Layer2_0_MEMBER_0_MEMBER_1_MEMBER_0_MEMBER_12_FILL">
      <path
         style="fill:#ffffff;stroke:none"
         id="path71"
         d="m 95.65,11.3 q -0.3,-0.35 -0.25,-0.8 v -0.05 h 2.95 v -0.3 Q 98.35,8 96.5,8 l -0.3,0.05 q -0.8,0.1 -1.25,0.75 -0.5,0.6 -0.4,1.4 l -0.05,0.35 q 0.05,0.8 0.65,1.35 0.55,0.55 1.35,0.5 0.6,0.1 1.15,-0.25 0.5,-0.35 0.65,-0.95 h -0.8 q -0.35,0.6 -1,0.5 H 96.4 Q 95.95,11.65 95.65,11.3 M 95.4,9.8 q 0,-0.45 0.35,-0.75 0.3,-0.35 0.75,-0.3 h 0.1 q 0.4,0 0.7,0.3 0.25,0.35 0.2,0.75 z" />
    </g>
    <g
       id="Layer2_0_MEMBER_0_MEMBER_1_MEMBER_0_MEMBER_13_FILL">
      <path
         style="fill:#ffffff;stroke:none"
         id="path74"
         d="m 99.55,6.45 v 5.85 h 0.8 V 6.45 Z" />
    </g>
    <g
       id="Layer1_0_FILL">
      <path
         style="fill:#cc0000;stroke:none"
         id="path77"
         d="M 115.45,0.15 113.55,0 h -45.1 l -63.1,35.8 1.3,0.15 H 67 L 120.3,5.75 Q 120.27656,5.2597656 120.15,4.5 120,3.6 119.6,2.95 q -0.85,-1.5 -2.45,-2.25 -0.9,-0.4 -1.7,-0.55 z" />
    </g>
    <g
       id="Layer0_0_FILL">
      <path
         style="fill:#ffffff;stroke:none"
         id="path80"
         d="m 91.85,8.3 q 0.6,-0.95 0.6,-2.1 0,-1.1 -0.6,-2.15 Q 91.25,3 90.25,2.4 89.3,1.85 88.15,1.9 q -1.1,0 -2.2,0.6 -1.05,0.6 -1.7,1.6 -0.55,1 -0.55,2.1 -0.05,1.1 0.55,2.15 0.6,1.05 1.6,1.65 1,0.55 2.1,0.5 1.2,0 2.25,-0.6 1.1,-0.6 1.65,-1.6 M 91.3,4.35 q 0.55,0.9 0.55,1.9 -0.05,1 -0.55,1.8 Q 90.85,8.85 89.9,9.4 89,9.9 88,9.95 87,10 86.2,9.45 q -0.85,-0.5 -1.4,-1.4 -0.5,-0.9 -0.5,-1.9 0,-0.9 0.5,-1.8 0.5,-0.85 1.4,-1.35 0.95,-0.55 1.9,-0.55 1,0.05 1.85,0.5 0.85,0.5 1.35,1.4 m -9.1,10.1 0.55,-0.3 -3.9,-6.8 2.6,-1.5 -0.3,-0.5 -5.75,3.35 0.3,0.5 2.6,-1.55 3.9,6.8 m -8.55,-4.8 -0.55,0.3 3.65,6.35 -8.6,-3.5 -0.45,0.25 4.2,7.3 0.55,-0.3 -3.65,-6.35 8.6,3.5 0.45,-0.25 -4.2,-7.3 M 67.55,18 q -0.6,-1.05 -1.6,-1.65 -0.95,-0.55 -2.1,-0.5 -1.1,0 -2.2,0.6 -1.05,0.6 -1.7,1.6 -0.55,1 -0.55,2.1 -0.05,1.1 0.55,2.15 0.6,1.05 1.6,1.65 1,0.55 2.1,0.5 1.2,0 2.25,-0.6 1.1,-0.6 1.65,-1.6 0.6,-0.95 0.6,-2.1 0,-1.1 -0.6,-2.15 M 63.8,16.4 q 1,0.05 1.85,0.5 0.85,0.5 1.35,1.4 0.55,0.9 0.55,1.9 -0.05,1 -0.55,1.8 -0.45,0.8 -1.4,1.35 -0.9,0.5 -1.9,0.55 -1,0.05 -1.8,-0.5 Q 61.05,22.9 60.5,22 60,21.1 60,20.1 q 0,-0.9 0.5,-1.8 0.5,-0.85 1.4,-1.35 0.95,-0.55 1.9,-0.55 m -6.2,5.7 q -0.7,-1.15 -1.8,-1.35 -1.2,-0.2 -2.55,0.55 l -2.65,1.5 4.2,7.3 0.55,-0.3 -1.35,-2.4 2.1,-1.2 q 0.3,-0.15 0.65,-0.45 l 3.15,1.45 0.6,-0.35 -3.3,-1.5 Q 57.9,24.65 57.95,23.8 58.1,23 57.6,22.1 m -0.5,0.3 q 0.5,0.95 0.15,1.85 -0.3,0.85 -1.45,1.5 l -2.1,1.2 -2.25,-3.95 2.1,-1.2 q 1.15,-0.65 2.05,-0.5 0.95,0.15 1.5,1.1 m -7.4,4.25 Q 49,25.5 47.9,25.3 46.7,25.1 45.35,25.85 l -2.65,1.5 4.2,7.3 0.55,-0.3 -1.35,-2.4 2.1,-1.2 Q 49.55,30 49.95,28.9 50.35,27.8 49.7,26.65 m -4.05,-0.3 q 1.15,-0.65 2.05,-0.5 0.95,0.15 1.5,1.1 0.5,0.95 0.15,1.8 -0.3,0.9 -1.45,1.55 l -2.1,1.2 -2.25,-3.95 z" />
    </g>
  </defs>
  <g
     id="g87">
    <use
       height="100%"
       width="100%"
       y="0"
       x="0"
       id="use85"
       xlink:href="#Layer2_0_MEMBER_0_MEMBER_0_MEMBER_0_MEMBER_0_FILL" />
  </g>
  <g
     id="g91">
    <use
       height="100%"
       width="100%"
       y="0"
       x="0"
       id="use89"
       xlink:href="#Layer2_0_MEMBER_0_MEMBER_0_MEMBER_1_MEMBER_0_MEMBER_0_MEMBER_0_FILL" />
  </g>
  <g
     id="g95">
    <use
       height="100%"
       width="100%"
       y="0"
       x="0"
       id="use93"
       xlink:href="#Layer2_0_MEMBER_0_MEMBER_0_MEMBER_1_MEMBER_0_MEMBER_0_MEMBER_1_FILL" />
  </g>
  <g
     id="g99">
    <use
       height="100%"
       width="100%"
       y="0"
       x="0"
       id="use97"
       xlink:href="#Layer2_0_MEMBER_0_MEMBER_0_MEMBER_1_MEMBER_1_MEMBER_0_FILL" />
  </g>
  <g
     id="g103">
    <use
       height="100%"
       width="100%"
       y="0"
       x="0"
       id="use101"
       xlink:href="#Layer2_0_MEMBER_0_MEMBER_0_MEMBER_1_MEMBER_1_MEMBER_1_FILL" />
  </g>
  <g
     id="g107">
    <use
       height="100%"
       width="100%"
       y="0"
       x="0"
       id="use105"
       xlink:href="#Layer2_0_MEMBER_0_MEMBER_0_MEMBER_1_MEMBER_1_MEMBER_2_FILL" />
  </g>
  <g
     id="g111">
    <use
       height="100%"
       width="100%"
       y="0"
       x="0"
       id="use109"
       xlink:href="#Layer2_0_MEMBER_0_MEMBER_0_MEMBER_1_MEMBER_1_MEMBER_3_FILL" />
  </g>
  <g
     id="g115">
    <use
       height="100%"
       width="100%"
       y="0"
       x="0"
       id="use113"
       xlink:href="#Layer2_0_MEMBER_0_MEMBER_0_MEMBER_1_MEMBER_1_MEMBER_4_FILL" />
  </g>
  <g
     id="g119">
    <use
       height="100%"
       width="100%"
       y="0"
       x="0"
       id="use117"
       xlink:href="#Layer2_0_MEMBER_0_MEMBER_0_MEMBER_1_MEMBER_1_MEMBER_5_FILL" />
  </g>
  <g
     id="g123">
    <use
       height="100%"
       width="100%"
       y="0"
       x="0"
       id="use121"
       xlink:href="#Layer2_0_MEMBER_0_MEMBER_0_MEMBER_1_MEMBER_1_MEMBER_6_FILL" />
  </g>
  <g
     id="g127">
    <use
       height="100%"
       width="100%"
       y="0"
       x="0"
       id="use125"
       xlink:href="#Layer2_0_MEMBER_0_MEMBER_0_MEMBER_1_MEMBER_1_MEMBER_7_FILL" />
  </g>
  <g
     id="g131">
    <use
       height="100%"
       width="100%"
       y="0"
       x="0"
       id="use129"
       xlink:href="#Layer2_0_MEMBER_0_MEMBER_1_MEMBER_0_MEMBER_0_FILL" />
  </g>
  <g
     id="g135">
    <use
       height="100%"
       width="100%"
       y="0"
       x="0"
       id="use133"
       xlink:href="#Layer2_0_MEMBER_0_MEMBER_1_MEMBER_0_MEMBER_1_FILL" />
  </g>
  <g
     id="g139">
    <use
       height="100%"
       width="100%"
       y="0"
       x="0"
       id="use137"
       xlink:href="#Layer2_0_MEMBER_0_MEMBER_1_MEMBER_0_MEMBER_2_FILL" />
  </g>
  <g
     id="g143">
    <use
       height="100%"
       width="100%"
       y="0"
       x="0"
       id="use141"
       xlink:href="#Layer2_0_MEMBER_0_MEMBER_1_MEMBER_0_MEMBER_3_FILL" />
  </g>
  <g
     id="g147">
    <use
       height="100%"
       width="100%"
       y="0"
       x="0"
       id="use145"
       xlink:href="#Layer2_0_MEMBER_0_MEMBER_1_MEMBER_0_MEMBER_4_FILL" />
  </g>
  <g
     id="g151">
    <use
       height="100%"
       width="100%"
       y="0"
       x="0"
       id="use149"
       xlink:href="#Layer2_0_MEMBER_0_MEMBER_1_MEMBER_0_MEMBER_5_FILL" />
  </g>
  <g
     id="g155">
    <use
       height="100%"
       width="100%"
       y="0"
       x="0"
       id="use153"
       xlink:href="#Layer2_0_MEMBER_0_MEMBER_1_MEMBER_0_MEMBER_6_FILL" />
  </g>
  <g
     id="g159">
    <use
       height="100%"
       width="100%"
       y="0"
       x="0"
       id="use157"
       xlink:href="#Layer2_0_MEMBER_0_MEMBER_1_MEMBER_0_MEMBER_7_FILL" />
  </g>
  <g
     id="g163">
    <use
       height="100%"
       width="100%"
       y="0"
       x="0"
       id="use161"
       xlink:href="#Layer2_0_MEMBER_0_MEMBER_1_MEMBER_0_MEMBER_8_FILL" />
  </g>
  <g
     id="g167">
    <use
       height="100%"
       width="100%"
       y="0"
       x="0"
       id="use165"
       xlink:href="#Layer2_0_MEMBER_0_MEMBER_1_MEMBER_0_MEMBER_9_FILL" />
  </g>
  <g
     id="g171">
    <use
       height="100%"
       width="100%"
       y="0"
       x="0"
       id="use169"
       xlink:href="#Layer2_0_MEMBER_0_MEMBER_1_MEMBER_0_MEMBER_10_FILL" />
  </g>
  <g
     id="g175">
    <use
       height="100%"
       width="100%"
       y="0"
       x="0"
       id="use173"
       xlink:href="#Layer2_0_MEMBER_0_MEMBER_1_MEMBER_0_MEMBER_11_FILL" />
  </g>
  <g
     id="g179">
    <use
       height="100%"
       width="100%"
       y="0"
       x="0"
       id="use177"
       xlink:href="#Layer2_0_MEMBER_0_MEMBER_1_MEMBER_0_MEMBER_12_FILL" />
  </g>
  <g
     id="g183">
    <use
       height="100%"
       width="100%"
       y="0"
       x="0"
       id="use181"
       xlink:href="#Layer2_0_MEMBER_0_MEMBER_1_MEMBER_0_MEMBER_13_FILL" />
  </g>
  <g
     id="g187">
    <use
       height="100%"
       width="100%"
       y="0"
       x="0"
       id="use185"
       xlink:href="#Layer1_0_FILL" />
  </g>
  <g
     id="g191">
    <use
       height="100%"
       width="100%"
       y="0"
       x="0"
       id="use189"
       xlink:href="#Layer0_0_FILL" />
  </g>
</svg>
