<?xml version="1.0" encoding="UTF-8"?>
<svg id="Layer_1" enable-background="new 0 0 1500 1500" version="1.1" viewBox="0 0 1262 526" xmlns="http://www.w3.org/2000/svg"><g id="g217" transform="translate(-147 -495)"><g id="g206" fill="#ffffff"><path id="path188" d="m345 676c0 7.1-1.3 12.4-3.8 15.8s-6.5 6.7-12 9.9c-3.2 1.8-7.2 3.6-12 5.3s-10.1 3.2-15.8 4.5-11.7 2.2-18 2.9-12.5 1-18.7 1c-16.5 0-31.9-2.2-46.3-6.7s-26.9-11.2-37.6-20.2c-10.6-9-19-20.3-25.2-33.8s-9.3-29.2-9.3-47c0-18.8 3.4-35.1 10.1-49.1 6.7-13.9 15.7-25.6 26.8-34.8 11.1-9.3 23.8-16.2 38.1-20.8s29-6.9 44.1-6.9c21.7 0 38.9 3.5 51.6 10.5s19 16.1 19 27.3c0 5.9-1.5 11.1-4.5 15.4s-6.4 7.8-10.3 10.3c-5.7-3.4-12.9-6.8-21.4-10.1-8.6-3.3-18.2-5-29-5-19.2 0-34.5 5.5-45.8 16.5s-17 26.2-17 45.6c0 10.5 1.5 19.6 4.6 27.3s7.3 14 12.5 18.9c5.3 4.9 11.3 8.6 18.2 11s14.2 3.6 22 3.6c5 0 9.5-0.5 13.4-1.4s6.9-1.9 8.9-3.1v-32.2h-36.7c-1.4-2.5-2.7-5.8-3.9-9.9-1.3-4.1-1.9-8.5-1.9-13 0-8.2 1.9-14.2 5.7-17.8 3.8-3.7 8.6-5.5 14.6-5.5h58c6.9 0 12.2 1.9 16 5.7s5.7 9.1 5.7 16v69.8z"/><path id="path190" d="m444 642v65.9c-2.5 0.7-6.5 1.4-11.8 2.1-5.4 0.7-10.7 1-16 1s-9.9-0.4-13.9-1.2-7.3-2.2-9.9-4.3-4.6-4.9-6-8.6-2.1-8.5-2.1-14.4v-162c0-4.8 1.3-8.5 3.9-11.1s6.2-4.7 10.8-6.3c7.8-2.7 16.8-4.7 27.1-6s21.3-1.9 32.9-1.9c31.6 0 55.3 6.6 71.4 19.9 16 13.3 24 31.2 24 53.9 0 14.2-3.7 26.3-11 36.4s-16 17.8-26.1 23.3c8.2 11.2 16.3 21.7 24.4 31.6 8 9.8 14.3 18.8 18.9 26.8-2.3 8-6.5 14.1-12.5 18.4-6.1 4.2-12.9 6.3-20.4 6.3-5 0-9.4-0.6-13-1.7-3.7-1.1-6.9-2.7-9.6-4.8s-5.3-4.6-7.5-7.5c-2.3-3-4.5-6.2-6.5-9.6l-28.8-46.3h-18.3zm21.6-45.6c8.7 0 15.5-2.2 20.6-6.7 5-4.5 7.5-11 7.5-19.7s-2.8-15.3-8.4-19.7c-5.6-4.5-14.5-6.7-26.6-6.7-3.4 0-6.2 0.1-8.2 0.3-2.1 0.2-4.3 0.6-6.9 1v51.5z"/><path id="path192" d="m581 605c0-17.8 2.8-33.6 8.4-47.3s13.3-25.2 23-34.5 21.2-16.3 34.3-21.1 27.4-7.2 42.7-7.2 29.6 2.4 42.7 7.2 24.6 11.8 34.5 21.1c9.8 9.3 17.6 20.8 23.2 34.5s8.4 29.5 8.4 47.3-2.7 33.7-8.2 47.5-13.1 25.4-22.8 34.7-21.2 16.3-34.5 21.1-27.7 7.2-43.2 7.2c-15.6 0-30-2.5-43.2-7.4-13.3-4.9-24.7-12.1-34.3-21.4-9.6-9.4-17.2-20.9-22.6-34.7-5.7-13.8-8.4-29.4-8.4-47zm61.7 0c0 20.8 4.2 36.4 12.7 46.7s19.8 15.4 34 15.4c14.4 0 25.8-5.1 34.3-15.4s12.7-25.8 12.7-46.7c0-20.6-4.2-36-12.5-46.3-8.4-10.3-19.7-15.4-34.1-15.4-14.2 0-25.6 5.1-34.1 15.3-8.7 10.1-13 25.6-13 46.4z"/><path id="path194" d="m1016 633c0 12.3-2.1 23.6-6.3 33.8s-10.4 18.9-18.4 26.1-17.7 12.8-29.2 16.6c-11.4 3.9-24.4 5.8-38.8 5.8s-27.3-1.9-38.8-5.8c-11.4-3.9-21.2-9.4-29.2-16.6s-14.1-15.9-18.4-26.1c-4.2-10.2-6.3-21.4-6.3-33.8v-131c2.5-0.5 6.5-1.1 12-1.9s10.7-1.2 15.8-1.2c5.3 0 9.9 0.4 13.9 1.2s7.4 2.2 10.1 4.3 4.8 4.9 6.2 8.6 2.1 8.5 2.1 14.4v105c0 11 3 19.6 9.1 25.7 6.1 6.2 13.9 9.3 23.5 9.3 9.8 0 17.7-3.1 23.7-9.3 5.9-6.2 8.9-14.8 8.9-25.7v-130c2.5-0.5 6.5-1.1 12-1.9s10.7-1.2 15.8-1.2c5.3 0 9.9 0.4 13.9 1.2s7.4 2.2 10.1 4.3 4.8 4.9 6.2 8.6 2.1 8.5 2.1 14.4z"/><path id="path196" d="m1120 708c-2.5 0.7-6.5 1.4-11.8 2.1-5.4 0.7-10.7 1-16 1s-9.9-0.4-13.9-1.2-7.4-2.2-10.1-4.3-4.8-4.9-6.2-8.6-2.1-8.5-2.1-14.4v-162c0-4.8 1.3-8.5 3.9-11.1s6.2-4.7 10.8-6.3c7.8-2.7 16.6-4.7 26.6-6 9.9-1.3 20-1.9 30-1.9 31.6 0 55.7 6.7 72.4 20.2s25 31.8 25 54.9c0 11.2-1.8 21.3-5.3 30.4-3.5 9-8.8 16.8-15.8 23.3s-15.8 11.6-26.4 15.1-22.9 5.3-36.9 5.3h-24.2zm17.8-110c9.6 0 17-2.2 22.1-6.7s7.7-11.3 7.7-20.4c0-8.7-2.7-15.4-8.1-20.1s-13.2-7-23.5-7c-3.7 0-6.7 0.1-9.1 0.2s-4.9 0.4-7.4 0.9v53.1z"/><path id="path198" d="m278 1021c-5.1 0-10.9-0.2-17.5-0.5s-13.4-0.9-20.4-1.8-14.1-2-21.1-3.4c-7-1.3-13.6-3.2-19.5-5.6-16.5-6.3-24.7-17.2-24.7-32.8v-210c0-6.3 1.7-11.2 5.2-14.6 3.4-3.4 8.2-6.2 14.2-8.3 12.9-4.2 26.5-7 40.9-8.3s27.3-2 38.6-2c23.4 0 44.6 2.8 63.6 8.5s35.3 14.5 49 26.3c13.6 11.8 24.2 26.7 31.7 44.7s11.2 39.3 11.2 63.8c0 24-3.6 44.9-10.8 62.7s-17.5 32.8-30.8 44.9-29.3 21.2-47.9 27.2c-18.7 6.1-39.3 9.1-61.7 9.1zm-25.2-65.6c3.3 0.6 7.3 1.1 12.1 1.6 4.8 0.4 9.3 0.7 13.5 0.7 10.2 0 19.5-1.5 28.1-4.5 8.5-3 15.9-7.6 22-13.9s10.9-14.5 14.4-24.5c3.4-10 5.2-22.1 5.2-36.2 0-27-6.3-47.3-18.9-60.9s-29.4-20.4-50.3-20.4c-4.2 0-8.5 0.2-12.8 0.4-4.3 0.3-8.8 0.8-13.3 1.3z"/><path id="path200" d="m529 750c5.1-3 12.8-5.8 23.1-8.5s20.7-4 31.2-4c15 0 28.2 2.2 39.8 6.5 11.5 4.3 18.9 11.2 22.2 20.4 5.4 15.6 11.2 33.7 17.5 54.4s12.6 42 18.9 64 12.4 43.7 18.4 65.2c6 21.4 11.2 40.4 15.7 56.8-3.6 4.2-9 7.6-16.2 10.1s-15.7 3.8-25.6 3.8c-7.2 0-13.3-0.6-18.2-1.8s-9-3-12.1-5.4-5.7-5.5-7.6-9.4c-2-3.9-3.7-8.4-5.2-13.5l-8.1-31h-81.3c-2.4 9-4.8 18.3-7.2 27.9s-4.8 18.9-7.2 27.9c-4.2 1.5-8.6 2.8-13.3 3.8-4.6 1-10.3 1.6-16.9 1.6-15.3 0-26.6-2.6-33.9-7.9-7.3-5.2-11-12.5-11-21.8 0-4.2 0.6-8.4 1.8-12.6s2.5-9.1 4-14.8c2.1-8.1 5-18.1 8.8-30.1 3.7-12 7.9-24.9 12.4-38.9 4.5-13.9 9.3-28.2 14.4-42.9s9.9-28.5 14.4-41.6c4.5-13 8.6-24.6 12.4-34.8s6.7-18 8.8-23.4zm54 58c-4.2 12.6-8.9 26.6-14.2 42-5.2 15.4-10 31.1-14.2 47h55.7c-4.2-16.2-8.5-32-12.8-47.4s-8.3-29.3-11.9-41.6z"/><path id="path202" d="m725 804c-2.1-3.3-4-7.8-5.8-13.5s-2.7-11.7-2.7-18c0-11.7 2.6-20.1 7.9-25.2 5.2-5.1 12.1-7.6 20.4-7.6h196c2.1 3.3 4 7.8 5.8 13.5s2.7 11.7 2.7 18c0 11.7-2.6 20.1-7.9 25.2-5.2 5.1-12.1 7.6-20.4 7.6h-49.9v208c-3.3 0.9-8.5 1.8-15.5 2.7s-14 1.3-20.9 1.3-13-0.5-18.2-1.6c-5.2-1-9.7-2.9-13.3-5.6s-6.3-6.4-8.1-11.2-2.7-11.1-2.7-18.9v-174z"/><path id="path204" d="m987 783c0-12.9 3.7-23.1 11.2-30.6s17.7-11.2 30.6-11.2h148c2.1 3.3 4 7.6 5.6 13s2.5 11.1 2.5 17.1c0 11.4-2.5 19.5-7.4 24.3s-11.5 7.2-19.5 7.2h-94.8v41.8h101c2.1 3.3 4 7.6 5.6 12.8s2.5 10.9 2.5 16.9c0 11.4-2.4 19.5-7.2 24.3s-11.2 7.2-19.3 7.2h-82.7v47.2h116c2.1 3.3 4 7.6 5.6 13s2.5 11.1 2.5 17.1c0 11.4-2.5 19.5-7.4 24.5-4.9 4.9-11.5 7.4-19.6 7.4h-131c-12.9 0-23.1-3.7-30.6-11.2s-11.2-17.7-11.2-30.6z"/></g><g id="g7k3CU.tif_22_"><g id="g214" fill="#ffffff"><path id="path208" d="m1300 757c-10.6-32-32.1-53-65-63.3-3.9-1.2-3.9-6.8 0-8 33-10.5 54.2-31.9 64.7-65.1 1.2-3.9 6.8-3.9 8 0 10.5 32.9 31.6 54.1 63.5 64.7 3.9 1.3 4 6.8 0.1 8-14.9 4.8-28.1 12.6-39.5 24.1s-19.1 24.8-23.8 39.7c-1.2 3.8-6.7 3.7-8-0.1z"/><path id="path210" d="m1262 897c-8.6-23.4-18.2-33-41.4-41.4-3-1.1-3-5.3 0-6.3 20.6-7 34.3-20.6 41.4-41.4 1-3.1 5.3-3.1 6.3 0 7 20.4 20.5 34 41.4 41 3 1 2.9 5.3-0.1 6.3-21.1 7.3-34.6 21.2-41.3 41.8-1 2.9-5.2 3-6.3 0z"/><path id="path212" d="m1384 773c4.3 10.4 11.5 17.5 21.7 21.7 2.7 1.1 2.7 5 0 6.2-10.3 4.3-17.5 11.4-21.7 21.8-1.1 2.7-5 2.7-6.1 0-4.3-10.3-11.4-17.4-21.7-21.7-2.7-1.1-2.7-5 0-6.2 10.2-4.3 17.4-11.4 21.6-21.8 1.1-2.7 5.1-2.7 6.2 0z"/></g></g></g></svg>
