<?xml version="1.0" encoding="UTF-8"?>
<svg version="1.1" viewBox="0 0 3278.3 3050.4" xmlns="http://www.w3.org/2000/svg">
 <defs>
  <clipPath id="clipPath135">
   <path d="m83.88 1718h902.29v-832.32h-902.29z"/>
  </clipPath>
 </defs>
 <g transform="matrix(1.3333 0 0 -1.3333 1058.6 3277.8)">
  <path d="m476.24 1933.1c111.12 192.1 210 329.89 423.09 445.46 181.34 98.345 447.11 121.71 616.67-22.153 199.13-168.95 164.95-436.36 89.428-641.33-91.466-248.24-212.37-488.99-333.94-725.64-122.1-237.69-249.94-499.36-382.08-732.46-16.35-28.843-32.729-57.672-49.128-86.491" fill="#6f6fe2"/>
  <g transform="translate(478.71 1934.6)">
   <path d="m0 0c-190.66 211.2-521.93 342.61-801.71 270.7-279.78-71.916-495.65-339.1-468.65-614.47 24.371-248.62 219.75-451.06 416.15-619.3 370.71-317.55 774.02-582.08 1217.1-799.21" fill="#6f6fe2"/>
  </g>
  <path d="m503.5 1758.5c84.358 145.85 159.35 250.98 321.13 338.72 137.67 74.664 339.44 92.401 468.17-16.819 151.18-128.27 125.23-331.28 67.893-486.9-69.44-188.46-161.23-371.24-253.53-550.91-92.7-180.46-189.76-379.11-290.08-556.09-12.412-21.898-24.848-43.784-37.298-65.664" fill="#8787f9"/>
  <g transform="translate(505.29 1760.1)">
   <path d="m0 0c-144.75 160.34-396.25 260.11-608.66 205.52-212.41-54.598-376.3-257.45-355.8-466.51 18.503-188.75 166.84-342.45 315.94-470.17 281.45-241.08 587.63-441.91 924.04-606.76" fill="#8787f9"/>
  </g>
  <path d="m525.45 1626.1c57.939 100.17 109.5 171.68 220.62 231.94 94.555 51.281 233.14 63.463 321.55-11.551 103.84-88.098 86.012-227.53 46.631-334.41-47.694-129.44-110.74-254.98-174.13-378.38-63.668-123.94-130.33-260.38-199.23-381.94-8.525-15.04-17.066-30.072-25.617-45.099" fill="#9a9afc"/>
  <path d="m526.74 1626.5c-99.42 110.13-272.16 178.65-418.04 141.15-145.89-37.499-258.45-176.82-244.37-320.41 12.708-129.64 114.59-235.2 217-322.93 193.3-165.58 403.6-303.52 634.65-416.74" fill="#9a9afc"/>
  <g transform="translate(843.31 1813.6)">
   <path d="m0 0c1.254 13.845 13.068 26.422 27.025 27.862 7.202 0.743 14.465-1.09 20.568-4.954 2.94-1.862 5.596-4.221 7.749-6.961 2.143-2.73 3.659-5.901 5.07-9.052 2.849-6.363 5.402-13.278 11.191-17.597 6.027-4.498 13.882-4.066 20.077-0.184 6.549 4.103 11.429 10.808 14.849 17.625 1.579 3.147 2.84 6.447 4.36 9.624 1.539 3.22 3.225 6.383 5.22 9.347 3.291 4.891 7.993 9.724 13.981 10.405 0.764 0.087 1.541 0.103 2.308 0.077 0.265-9e-3 0.53-0.024 0.793-0.045 0.133-0.01 1.104-0.131 0.546-0.047 1.054-0.159 2.092-0.415 3.096-0.772 0.229-0.082 0.455-0.169 0.681-0.261 0.266-0.107-0.093 0.037-0.12 0.05 0.126-0.057 0.252-0.112 0.376-0.173 0.465-0.227 0.923-0.464 1.371-0.726 0.447-0.262 0.883-0.545 1.307-0.844 0.09-0.063 0.629-0.46 0.421-0.302-0.171 0.131 0.36-0.292 0.486-0.398 3.572-3.004 5.662-6.285 7.996-10.427 2.468-4.38 4.555-8.959 6.78-13.463 4.013-8.12 8.836-17.468 17.792-20.932 4.75-1.837 10.272-1.446 14.833 0.73 4.977 2.374 8.515 7.016 11.299 11.625 3.053 5.058 5.449 10.48 8.3 15.649 2.809 5.093 5.967 10.227 10.938 13.459 6.067 3.947 13.985 4.682 20.704 2.004 6.585-2.624 11.181-8.783 12.747-15.581 0.757-3.284 0.739-6.705-0.078-9.975-0.78-3.122 4.041-4.454 4.821-1.329 1.894 7.573 0.291 15.89-4.204 22.271-4.706 6.68-11.996 10.674-20.148 11.155-7.678 0.453-15.33-2.386-20.78-7.814-4.376-4.36-7.443-9.863-10.251-15.308-2.707-5.246-5.175-10.705-8.666-15.495-1.219-1.675-3.329-3.928-4.959-5.045-1.006-0.689-2.279-1.36-3.03-1.626-0.56-0.199-1.127-0.374-1.706-0.513-0.769-0.185-1.17-0.248-1.692-0.295-1.182-0.108-2.365-0.089-3.545 0.033-0.381 0.039 0.282-0.066-0.387 0.066-0.239 0.047-0.478 0.093-0.717 0.147-0.533 0.123-1.06 0.275-1.578 0.453-0.224 0.078-0.445 0.162-0.666 0.247-0.407 0.156 0.272-0.152-0.238 0.108-0.481 0.245-0.963 0.478-1.429 0.753-0.437 0.258-0.863 0.534-1.277 0.828-0.108 0.077-0.601 0.447-0.404 0.294 0.161-0.125-0.426 0.353-0.548 0.458-0.806 0.69-1.56 1.44-2.27 2.227-0.343 0.379-0.675 0.768-0.998 1.164-0.452 0.555-0.328 0.391-0.84 1.094-1.417 1.946-2.664 4.012-3.828 6.118-4.895 8.858-8.328 18.656-14.73 26.611-2.889 3.59-6.585 6.591-11.03 7.983-5.885 1.844-12.412 0.605-17.361-3.015-5.785-4.23-9.693-10.514-12.848-16.835-3.363-6.741-5.8-13.835-10.511-19.83-3.923-4.991-9.927-10.542-16.787-9.611-7.031 0.954-10.54 7.662-13.167 13.471-1.484 3.279-2.821 6.633-4.549 9.794-1.825 3.337-4.211 6.389-7.029 8.947-5.765 5.233-13.05 8.499-20.756 9.482-15.556 1.986-30.677-7.536-36.783-21.783-1.508-3.52-2.429-7.152-2.775-10.968-0.122-1.346 1.236-2.5 2.5-2.5 1.453 0 2.377 1.15 2.5 2.5" fill="#00fff4"/>
  </g>
  <g transform="translate(117.27 1026.8)">
   <path d="m0 0c17.789-9.419 35.578-18.839 53.367-28.258 4.999-2.647 9.997-5.294 14.996-7.94 2.842-1.505 5.371 2.809 2.524 4.317-17.789 9.42-35.578 18.839-53.367 28.258-4.999 2.647-9.999 5.294-14.997 7.94-2.841 1.505-5.372-2.809-2.523-4.317" fill="#00fff4"/>
  </g>
  <g transform="translate(133.98 976.28)">
   <path d="m0 0c7.373 20.643 17.566 40.251 30.168 58.186 3.531 5.025 7.256 9.909 11.164 14.648 0.858 1.041 1.019 2.517 0 3.536-0.885 0.884-2.673 1.047-3.536 0-14.317-17.361-26.308-36.588-35.453-57.155-2.611-5.87-5.003-11.836-7.164-17.886-0.454-1.271 0.513-2.737 1.746-3.075 1.386-0.381 2.62 0.47 3.075 1.746" fill="#00fff4"/>
  </g>
  <g transform="translate(133.34 1057.2)">
   <path d="m0 0c6.635-26.309 13.271-52.618 19.905-78.927 1.873-7.425 3.745-14.85 5.618-22.275 0.787-3.118 5.61-1.797 4.822 1.329-6.636 26.31-13.271 52.619-19.907 78.928-1.872 7.424-3.745 14.849-5.617 22.274-0.786 3.118-5.609 1.797-4.821-1.329" fill="#00fff4"/>
  </g>
  <g transform="translate(108.02 999.16)">
   <path d="m0 0c23.779 11.55 50.217 17.467 76.644 17.337 7.339-0.036 14.692-0.516 21.967-1.503 1.336-0.181 2.684 0.322 3.076 1.746 0.32 1.166-0.4 2.893-1.747 3.076-27.096 3.676-54.907 1.15-80.861-7.512-7.383-2.464-14.602-5.426-21.603-8.827-1.214-0.589-1.541-2.318-0.897-3.42 0.726-1.24 2.201-1.489 3.421-0.897" fill="#00fff4"/>
  </g>
  <g transform="translate(964.03 1137.3)">
   <path d="m0 0c-0.124-0.031 0.389 0.047 0.467 0.062 0.497 0.031 0.978 0.078 1.46 0.078 0.497 0 0.978-0.015 1.46-0.062 0.155-0.016 0.295-0.016 0.434-0.031-0.014 0 0 0 0.063-0.016 0.078-0.015 0.357-0.047 0.42-0.062 0.963-0.186 1.91-0.435 2.842-0.761 0.14-0.047 0.28-0.109 0.419-0.156l0.016-0.015s0.016 0 0.047-0.016c0.016 0 0.046-0.015 0.077-0.031 0.016 0 0.031 0 0.031-0.015h0.032c0.015-0.016 0.031-0.016 0.045-0.031 0.452-0.202 0.886-0.42 1.322-0.652 0.434-0.249 0.853-0.498 1.273-0.777 0.124-0.094 0.264-0.187 0.405-0.28 0.124-0.093 0.263-0.202 0.387-0.295 0.699-0.59 1.352-1.212 1.957-1.911 0.11-0.124 0.218-0.248 0.327-0.373 0 0 0.031-0.062 0.093-0.124l0.031-0.031c0-0.016 0.016-0.031 0.032-0.046 0.061-0.094 0.124-0.187 0.139-0.218 0.311-0.45 0.606-0.901 0.885-1.383 0.187-0.357 0.373-0.714 0.544-1.087 0.047-0.109 0.171-0.404 0.187-0.451 0.078-0.248 0.17-0.497 0.249-0.745 0.139-0.42 0.248-0.855 0.356-1.289 0.062-0.264 0.109-0.529 0.155-0.793 0.016-0.046 0.016-0.093 0.016-0.124 0.016-0.031 0.016-0.047 0.016-0.077 0.015-0.063 0.015-0.079 0.015-0.079 0.016-0.108 0.016-0.217 0.031-0.326 0.203-2.531 0.016-4.194-0.652-6.539-0.762-2.656-2.019-5.127-3.495-7.503-1.228-2.004-2.33-3.48-4.194-5.095-0.124-0.109-0.248-0.218-0.373-0.327-0.016 0-0.032-0.015-0.046-0.031-0.063-0.046-0.187-0.155-0.249-0.186-0.358-0.233-0.7-0.466-1.073-0.683-0.31-0.171-0.621-0.342-0.947-0.482l-0.016-0.016h-0.031c-0.171-0.046-0.714-0.249-0.853-0.295-0.265-0.078-0.529-0.124-0.793-0.186 0 0-0.032 0-0.124-0.016-0.171-0.015-0.497-0.046-0.621-0.062-0.373-0.016-0.746 0.016-1.134 0.031-0.031 0-0.078 0-0.11 0.016h-0.061c-0.016 0.015-0.031 0.015-0.047 0.015h-0.031c-0.016 0.016-0.031 0.016-0.031 0.016h-0.032c-0.03 0-0.046 0.015-0.077 0.015h-0.015c-0.109 0.016-0.203 0.047-0.311 0.062-0.311 0.078-0.621 0.171-0.917 0.264-0.187 0.062-0.357 0.14-0.543 0.202h-0.016c-0.015 0-0.015 0.016-0.031 0.016-0.699 0.357-1.398 0.73-2.035 1.18-0.077 0.063-0.14 0.109-0.218 0.156 0 0-0.03 0.015-0.046 0.031-0.015 0.015-0.031 0.031-0.047 0.031l-0.015 0.016c0 0.015-0.016 0.015-0.031 0.03-0.047 0.032-0.093 0.062-0.14 0.094-0.279 0.28-0.56 0.497-0.839 0.777-0.637 0.59-1.227 1.242-1.786 1.91-0.031 0.031-0.124 0.171-0.202 0.249v0.015l-0.047 0.047c-0.016 0.015-0.016 0.031-0.016 0.031l-0.015 0.016c-0.077 0.108-0.14 0.201-0.217 0.295-0.218 0.31-0.436 0.636-0.637 0.947-0.544 0.854-1.041 1.74-1.491 2.641-0.171 0.357-0.327 0.699-0.497 1.056v0.016c-0.016 0.031-0.047 0.093-0.078 0.186 0 0.016 0 0.016-0.016 0.031-0.077 0.202-0.155 0.435-0.233 0.637-0.341 0.901-0.637 1.818-0.869 2.75-0.249 0.947-0.452 1.91-0.591 2.874 0 0.155-0.093 0.994-0.109 1.18-0.031 0.513-0.062 1.025-0.062 1.522 0 0.559 0.015 1.103 0.062 1.647 0.016 0.14 0.062 0.621 0.077 0.886 0.016 0.093 0.016 0.155 0.016 0.171v0.015c0.155 0.901 0.358 1.786 0.637 2.656 0.062 0.202 0.14 0.42 0.218 0.637 0.015 0.062 0.109 0.28 0.171 0.435 0.015 0.031 0.031 0.047 0.031 0.062l0.015 0.016c-0.015 0.015 0 0.031 0 0.031 0.016 0.015 0.016 0.031 0.016 0.031 0 0.015 0.016 0.015 0.016 0.031 0.124 0.279 0.263 0.559 0.419 0.823 0.015 0.047 0.046 0.078 0.062 0.124 0.047 0.063 0.077 0.14 0.108 0.202 0.11 0.171 0.203 0.327 0.295 0.482 0.141 0.218 0.281 0.435 0.436 0.668 0.016 0.016 0.031 0.047 0.061 0.078 0.032 0.046 0.063 0.077 0.094 0.124 0.016 0.016 0.031 0.031 0.031 0.046 0.031 0.032 0.046 0.047 0.062 0.062 0 0.016 0.016 0.016 0.016 0.032 0.015 0.015 0.015 0.015 0.015 0.031 0.094 0.093 0.171 0.202 0.265 0.295 0.356 0.404 0.745 0.792 1.149 1.149 0.171 0.171 0.357 0.327 0.543 0.467 0.032 0.03 0.063 0.062 0.094 0.093 0.016 0 0.047 0.015 0.077 0.046 0.482 0.342 0.979 0.653 1.491 0.948 0.218 0.124 0.452 0.233 0.684 0.357 0.062 0.016 0.42 0.186 0.591 0.28-0.016 0-0.031 0-0.063-0.016 0.466 0.202 0.886 0.466 1.228 0.793 0.481 0.17 0.978 0.294 1.475 0.403 0.14 0.032 0.295 0.047 0.435 0.078" fill="#ffbb95"/>
  </g>
  <g transform="translate(964.03 1137.3)">
   <path d="m0 0c-0.124-0.031 0.389 0.047 0.467 0.062 0.497 0.031 0.978 0.078 1.46 0.078 0.497 0 0.978-0.015 1.46-0.062 0.155-0.016 0.295-0.016 0.434-0.031-0.014 0 0 0 0.063-0.016 0.078-0.015 0.357-0.047 0.42-0.062 0.963-0.186 1.91-0.435 2.842-0.761 0.14-0.047 0.28-0.109 0.419-0.156l0.016-0.015s0.016 0 0.047-0.016c0.016 0 0.046-0.015 0.077-0.031 0.016 0 0.031 0 0.031-0.015h0.032c0.015-0.016 0.031-0.016 0.045-0.031 0.452-0.202 0.886-0.42 1.322-0.652 0.434-0.249 0.853-0.498 1.273-0.777 0.124-0.094 0.264-0.187 0.405-0.28 0.124-0.093 0.263-0.202 0.387-0.295 0.699-0.59 1.352-1.212 1.957-1.911 0.11-0.124 0.218-0.248 0.327-0.373 0 0 0.031-0.062 0.093-0.124l0.031-0.031c0-0.016 0.016-0.031 0.032-0.046 0.061-0.094 0.124-0.187 0.139-0.218 0.311-0.45 0.606-0.901 0.885-1.383 0.187-0.357 0.373-0.714 0.544-1.087 0.047-0.109 0.171-0.404 0.187-0.451 0.078-0.248 0.17-0.497 0.249-0.745 0.139-0.42 0.248-0.855 0.356-1.289 0.062-0.264 0.109-0.529 0.155-0.793 0.016-0.046 0.016-0.093 0.016-0.124 0.016-0.031 0.016-0.047 0.016-0.077 0.015-0.063 0.015-0.079 0.015-0.079 0.016-0.108 0.016-0.217 0.031-0.326 0.203-2.531 0.016-4.194-0.652-6.539-0.762-2.656-2.019-5.127-3.495-7.503-1.228-2.004-2.33-3.48-4.194-5.095-0.124-0.109-0.248-0.218-0.373-0.327-0.016 0-0.032-0.015-0.046-0.031-0.063-0.046-0.187-0.155-0.249-0.186-0.358-0.233-0.7-0.466-1.073-0.683-0.31-0.171-0.621-0.342-0.947-0.482l-0.016-0.016h-0.031c-0.171-0.046-0.714-0.249-0.853-0.295-0.265-0.078-0.529-0.124-0.793-0.186 0 0-0.032 0-0.124-0.016-0.171-0.015-0.497-0.046-0.621-0.062-0.373-0.016-0.746 0.016-1.134 0.031-0.031 0-0.078 0-0.11 0.016h-0.061c-0.016 0.015-0.031 0.015-0.047 0.015h-0.031c-0.016 0.016-0.031 0.016-0.031 0.016h-0.032c-0.03 0-0.046 0.015-0.077 0.015h-0.015c-0.109 0.016-0.203 0.047-0.311 0.062-0.311 0.078-0.621 0.171-0.917 0.264-0.187 0.062-0.357 0.14-0.543 0.202h-0.016c-0.015 0-0.015 0.016-0.031 0.016-0.699 0.357-1.398 0.73-2.035 1.18-0.077 0.063-0.14 0.109-0.218 0.156 0 0-0.03 0.015-0.046 0.031-0.015 0.015-0.031 0.031-0.047 0.031l-0.015 0.016c0 0.015-0.016 0.015-0.031 0.03-0.047 0.032-0.093 0.062-0.14 0.094-0.279 0.28-0.56 0.497-0.839 0.777-0.637 0.59-1.227 1.242-1.786 1.91-0.031 0.031-0.124 0.171-0.202 0.249v0.015l-0.047 0.047c-0.016 0.015-0.016 0.031-0.016 0.031l-0.015 0.016c-0.077 0.108-0.14 0.201-0.217 0.295-0.218 0.31-0.436 0.636-0.637 0.947-0.544 0.854-1.041 1.74-1.491 2.641-0.171 0.357-0.327 0.699-0.497 1.056v0.016c-0.016 0.031-0.047 0.093-0.078 0.186 0 0.016 0 0.016-0.016 0.031-0.077 0.202-0.155 0.435-0.233 0.637-0.341 0.901-0.637 1.818-0.869 2.75-0.249 0.947-0.452 1.91-0.591 2.874 0 0.155-0.093 0.994-0.109 1.18-0.031 0.513-0.062 1.025-0.062 1.522 0 0.559 0.015 1.103 0.062 1.647 0.016 0.14 0.062 0.621 0.077 0.886 0.016 0.093 0.016 0.155 0.016 0.171v0.015c0.155 0.901 0.358 1.786 0.637 2.656 0.062 0.202 0.14 0.42 0.218 0.637 0.015 0.062 0.109 0.28 0.171 0.435 0.015 0.031 0.031 0.047 0.031 0.062l0.015 0.016c-0.015 0.015 0 0.031 0 0.031 0.016 0.015 0.016 0.031 0.016 0.031 0 0.015 0.016 0.015 0.016 0.031 0.124 0.279 0.263 0.559 0.419 0.823 0.015 0.047 0.046 0.078 0.062 0.124 0.047 0.063 0.077 0.14 0.108 0.202 0.11 0.171 0.203 0.327 0.295 0.482 0.141 0.218 0.281 0.435 0.436 0.668 0.016 0.016 0.031 0.047 0.061 0.078 0.032 0.046 0.063 0.077 0.094 0.124 0.016 0.016 0.031 0.031 0.031 0.046 0.031 0.032 0.046 0.047 0.062 0.062 0 0.016 0.016 0.016 0.016 0.032 0.015 0.015 0.015 0.015 0.015 0.031 0.094 0.093 0.171 0.202 0.265 0.295 0.356 0.404 0.745 0.792 1.149 1.149 0.171 0.171 0.357 0.327 0.543 0.467 0.032 0.03 0.063 0.062 0.094 0.093 0.016 0 0.047 0.015 0.077 0.046 0.482 0.342 0.979 0.653 1.491 0.948 0.218 0.124 0.452 0.233 0.684 0.357 0.062 0.016 0.42 0.186 0.591 0.28-0.016 0-0.031 0-0.063-0.016 0.466 0.202 0.886 0.466 1.228 0.793 0.481 0.17 0.978 0.294 1.475 0.403 0.14 0.032 0.295 0.047 0.435 0.078z" fill="none" stroke="#000000" stroke-miterlimit="10" stroke-width="3"/>
  </g>
  <g transform="translate(138.46 1751.4)">
   <path d="m0 0c-0.124-0.031 0.389 0.047 0.466 0.062 0.497 0.031 0.979 0.078 1.461 0.078 0.497 0 0.978-0.015 1.46-0.062 0.155-0.016 0.295-0.016 0.434-0.031-0.015 0 0 0 0.063-0.016 0.077-0.015 0.357-0.047 0.419-0.062 0.964-0.186 1.911-0.435 2.843-0.761 0.14-0.047 0.28-0.109 0.419-0.156l0.016-0.015s0.016 0 0.046-0.016c0.016 0 0.047-0.015 0.078-0.031 0.016 0 0.031 0 0.031-0.015h0.032c0.015-0.016 0.03-0.016 0.045-0.031 0.452-0.202 0.886-0.42 1.321-0.652 0.435-0.249 0.854-0.498 1.274-0.777 0.124-0.094 0.264-0.187 0.404-0.28 0.125-0.093 0.264-0.202 0.388-0.295 0.699-0.59 1.352-1.212 1.957-1.911 0.11-0.124 0.218-0.248 0.326-0.373 0 0 0.032-0.062 0.094-0.124l0.031-0.031c0-0.016 0.016-0.031 0.031-0.046 0.062-0.094 0.125-0.187 0.14-0.218 0.311-0.45 0.606-0.901 0.885-1.383 0.187-0.357 0.373-0.714 0.544-1.087 0.047-0.109 0.171-0.404 0.187-0.451 0.077-0.248 0.17-0.497 0.248-0.745 0.14-0.42 0.249-0.855 0.357-1.289 0.062-0.264 0.109-0.529 0.155-0.793 0.016-0.046 0.016-0.093 0.016-0.124 0.016-0.031 0.016-0.047 0.016-0.077 0.015-0.063 0.015-0.079 0.015-0.079 0.016-0.108 0.016-0.217 0.031-0.326 0.203-2.531 0.016-4.194-0.652-6.539-0.762-2.656-2.019-5.127-3.495-7.503-1.228-2.004-2.33-3.48-4.194-5.095-0.124-0.109-0.249-0.218-0.373-0.327-0.016 0-0.032-0.015-0.047-0.031-0.062-0.046-0.186-0.155-0.248-0.186-0.358-0.233-0.7-0.466-1.073-0.683-0.31-0.171-0.621-0.342-0.947-0.482l-0.016-0.016h-0.031c-0.171-0.046-0.714-0.248-0.854-0.295-0.264-0.078-0.528-0.124-0.792-0.186 0 0-0.032 0-0.124-0.016-0.171-0.015-0.497-0.046-0.621-0.062-0.373-0.016-0.746 0.016-1.135 0.031-0.03 0-0.077 0-0.109 0.016h-0.062c-0.015 0.015-0.03 0.015-0.046 0.015h-0.031c-0.016 0.016-0.031 0.016-0.031 0.016h-0.032c-0.031 0-0.046 0.015-0.077 0.015h-0.015c-0.109 0.016-0.203 0.047-0.311 0.062-0.311 0.078-0.622 0.171-0.917 0.264-0.187 0.062-0.357 0.14-0.544 0.202h-0.015c-0.015 0-0.015 0.016-0.031 0.016-0.699 0.357-1.398 0.73-2.035 1.18-0.078 0.063-0.14 0.109-0.218 0.156 0 0-0.031 0.015-0.046 0.031-0.015 0.015-0.031 0.031-0.047 0.031l-0.015 0.016c0 0.015-0.016 0.015-0.031 0.03-0.047 0.032-0.093 0.063-0.14 0.094-0.279 0.28-0.56 0.497-0.839 0.777-0.637 0.59-1.227 1.242-1.786 1.91-0.031 0.031-0.125 0.171-0.202 0.249v0.015l-0.047 0.047c-0.016 0.015-0.016 0.031-0.016 0.031l-0.015 0.016c-0.077 0.108-0.14 0.201-0.217 0.295-0.218 0.31-0.436 0.636-0.638 0.947-0.543 0.855-1.04 1.74-1.491 2.641-0.171 0.357-0.326 0.699-0.497 1.056v0.016c-0.016 0.031-0.046 0.093-0.077 0.186 0 0.016 0 0.016-0.016 0.031-0.078 0.202-0.155 0.435-0.233 0.637-0.342 0.901-0.637 1.818-0.869 2.75-0.249 0.947-0.452 1.91-0.591 2.874 0 0.155-0.093 0.994-0.109 1.18-0.031 0.513-0.062 1.025-0.062 1.522 0 0.559 0.015 1.103 0.062 1.647 0.016 0.14 0.062 0.621 0.077 0.886 0.016 0.093 0.016 0.155 0.016 0.171v0.015c0.155 0.901 0.358 1.786 0.637 2.656 0.062 0.202 0.14 0.42 0.218 0.637 0.015 0.062 0.108 0.28 0.171 0.435 0.015 0.031 0.031 0.047 0.031 0.062l0.015 0.016c-0.015 0.015 0 0.031 0 0.031 0.016 0.015 0.016 0.031 0.016 0.031 0 0.015 0.016 0.015 0.016 0.031 0.124 0.279 0.263 0.559 0.419 0.823 0.015 0.047 0.046 0.078 0.062 0.124 0.046 0.063 0.077 0.14 0.108 0.202 0.109 0.171 0.203 0.327 0.295 0.482 0.14 0.218 0.281 0.435 0.436 0.668 0.016 0.016 0.03 0.047 0.061 0.078 0.032 0.046 0.063 0.077 0.094 0.124 0.016 0.016 0.031 0.031 0.031 0.046 0.031 0.032 0.046 0.047 0.062 0.063 0 0.015 0.016 0.015 0.016 0.031 0.015 0.015 0.015 0.015 0.015 0.031 0.093 0.093 0.171 0.202 0.264 0.295 0.357 0.404 0.746 0.792 1.15 1.149 0.17 0.171 0.357 0.327 0.543 0.467 0.032 0.031 0.063 0.062 0.094 0.093 0.016 0 0.046 0.015 0.077 0.046 0.482 0.342 0.979 0.653 1.491 0.948 0.218 0.124 0.452 0.233 0.684 0.357 0.062 0.016 0.42 0.186 0.591 0.28-0.016 0-0.031 0-0.063-0.016 0.466 0.202 0.886 0.466 1.228 0.793 0.481 0.17 0.978 0.294 1.475 0.403 0.14 0.032 0.295 0.047 0.435 0.078" fill="#ffbb95"/>
  </g>
  <g transform="translate(138.46 1751.4)">
   <path d="m0 0c-0.124-0.031 0.389 0.047 0.466 0.062 0.497 0.031 0.979 0.078 1.461 0.078 0.497 0 0.978-0.015 1.46-0.062 0.155-0.016 0.295-0.016 0.434-0.031-0.015 0 0 0 0.063-0.016 0.077-0.015 0.357-0.047 0.419-0.062 0.964-0.186 1.911-0.435 2.843-0.761 0.14-0.047 0.28-0.109 0.419-0.156l0.016-0.015s0.016 0 0.046-0.016c0.016 0 0.047-0.015 0.078-0.031 0.016 0 0.031 0 0.031-0.015h0.032c0.015-0.016 0.03-0.016 0.045-0.031 0.452-0.202 0.886-0.42 1.321-0.652 0.435-0.249 0.854-0.498 1.274-0.777 0.124-0.094 0.264-0.187 0.404-0.28 0.125-0.093 0.264-0.202 0.388-0.295 0.699-0.59 1.352-1.212 1.957-1.911 0.11-0.124 0.218-0.248 0.326-0.373 0 0 0.032-0.062 0.094-0.124l0.031-0.031c0-0.016 0.016-0.031 0.031-0.046 0.062-0.094 0.125-0.187 0.14-0.218 0.311-0.45 0.606-0.901 0.885-1.383 0.187-0.357 0.373-0.714 0.544-1.087 0.047-0.109 0.171-0.404 0.187-0.451 0.077-0.248 0.17-0.497 0.248-0.745 0.14-0.42 0.249-0.855 0.357-1.289 0.062-0.264 0.109-0.529 0.155-0.793 0.016-0.046 0.016-0.093 0.016-0.124 0.016-0.031 0.016-0.047 0.016-0.077 0.015-0.063 0.015-0.079 0.015-0.079 0.016-0.108 0.016-0.217 0.031-0.326 0.203-2.531 0.016-4.194-0.652-6.539-0.762-2.656-2.019-5.127-3.495-7.503-1.228-2.004-2.33-3.48-4.194-5.095-0.124-0.109-0.249-0.218-0.373-0.327-0.016 0-0.032-0.015-0.047-0.031-0.062-0.046-0.186-0.155-0.248-0.186-0.358-0.233-0.7-0.466-1.073-0.683-0.31-0.171-0.621-0.342-0.947-0.482l-0.016-0.016h-0.031c-0.171-0.046-0.714-0.248-0.854-0.295-0.264-0.078-0.528-0.124-0.792-0.186 0 0-0.032 0-0.124-0.016-0.171-0.015-0.497-0.046-0.621-0.062-0.373-0.016-0.746 0.016-1.135 0.031-0.03 0-0.077 0-0.109 0.016h-0.062c-0.015 0.015-0.03 0.015-0.046 0.015h-0.031c-0.016 0.016-0.031 0.016-0.031 0.016h-0.032c-0.031 0-0.046 0.015-0.077 0.015h-0.015c-0.109 0.016-0.203 0.047-0.311 0.062-0.311 0.078-0.622 0.171-0.917 0.264-0.187 0.062-0.357 0.14-0.544 0.202h-0.015c-0.015 0-0.015 0.016-0.031 0.016-0.699 0.357-1.398 0.73-2.035 1.18-0.078 0.063-0.14 0.109-0.218 0.156 0 0-0.031 0.015-0.046 0.031-0.015 0.015-0.031 0.031-0.047 0.031l-0.015 0.016c0 0.015-0.016 0.015-0.031 0.03-0.047 0.032-0.093 0.063-0.14 0.094-0.279 0.28-0.56 0.497-0.839 0.777-0.637 0.59-1.227 1.242-1.786 1.91-0.031 0.031-0.125 0.171-0.202 0.249v0.015l-0.047 0.047c-0.016 0.015-0.016 0.031-0.016 0.031l-0.015 0.016c-0.077 0.108-0.14 0.201-0.217 0.295-0.218 0.31-0.436 0.636-0.638 0.947-0.543 0.855-1.04 1.74-1.491 2.641-0.171 0.357-0.326 0.699-0.497 1.056v0.016c-0.016 0.031-0.046 0.093-0.077 0.186 0 0.016 0 0.016-0.016 0.031-0.078 0.202-0.155 0.435-0.233 0.637-0.342 0.901-0.637 1.818-0.869 2.75-0.249 0.947-0.452 1.91-0.591 2.874 0 0.155-0.093 0.994-0.109 1.18-0.031 0.513-0.062 1.025-0.062 1.522 0 0.559 0.015 1.103 0.062 1.647 0.016 0.14 0.062 0.621 0.077 0.886 0.016 0.093 0.016 0.155 0.016 0.171v0.015c0.155 0.901 0.358 1.786 0.637 2.656 0.062 0.202 0.14 0.42 0.218 0.637 0.015 0.062 0.108 0.28 0.171 0.435 0.015 0.031 0.031 0.047 0.031 0.062l0.015 0.016c-0.015 0.015 0 0.031 0 0.031 0.016 0.015 0.016 0.031 0.016 0.031 0 0.015 0.016 0.015 0.016 0.031 0.124 0.279 0.263 0.559 0.419 0.823 0.015 0.047 0.046 0.078 0.062 0.124 0.046 0.063 0.077 0.14 0.108 0.202 0.109 0.171 0.203 0.327 0.295 0.482 0.14 0.218 0.281 0.435 0.436 0.668 0.016 0.016 0.03 0.047 0.061 0.078 0.032 0.046 0.063 0.077 0.094 0.124 0.016 0.016 0.031 0.031 0.031 0.046 0.031 0.032 0.046 0.047 0.062 0.063 0 0.015 0.016 0.015 0.016 0.031 0.015 0.015 0.015 0.015 0.015 0.031 0.093 0.093 0.171 0.202 0.264 0.295 0.357 0.404 0.746 0.792 1.15 1.149 0.17 0.171 0.357 0.327 0.543 0.467 0.032 0.031 0.063 0.062 0.094 0.093 0.016 0 0.046 0.015 0.077 0.046 0.482 0.342 0.979 0.653 1.491 0.948 0.218 0.124 0.452 0.233 0.684 0.357 0.062 0.016 0.42 0.186 0.591 0.28-0.016 0-0.031 0-0.063-0.016 0.466 0.202 0.886 0.466 1.228 0.793 0.481 0.17 0.978 0.294 1.475 0.403 0.14 0.032 0.295 0.047 0.435 0.078z" fill="none" stroke="#000000" stroke-miterlimit="10" stroke-width="3"/>
  </g>
  <g transform="translate(496.09 1738.3)">
   <path d="m0 0c14.369-7.928 28.739-15.857 43.109-23.786 2.82-1.555 5.344 2.761 2.524 4.318-14.37 7.928-28.74 15.857-43.11 23.785-2.819 1.556-5.344-2.76-2.523-4.317" fill="#00fff4"/>
  </g>
  <g transform="translate(507.99 1705.7)">
   <path d="m0 0c5.872 17.109 14.601 33.285 25.825 47.481 0.837 1.059 1.033 2.503 0 3.536-0.869 0.869-2.693 1.065-3.535 0-9.139-11.558-16.754-24.243-22.532-37.803-1.665-3.908-3.2-7.866-4.58-11.884-0.438-1.278 0.502-2.734 1.746-3.076 1.372-0.377 2.636 0.465 3.076 1.746" fill="#00fff4"/>
  </g>
  <g transform="translate(505.81 1758.8)">
   <path d="m0 0c4.17-17.232 8.341-34.463 12.511-51.695 1.194-4.935 2.388-9.869 3.584-14.805 0.756-3.125 5.579-1.802 4.821 1.33-4.171 17.232-8.342 34.463-12.512 51.694-1.194 4.935-2.388 9.87-3.583 14.805-0.757 3.126-5.579 1.802-4.821-1.329" fill="#00fff4"/>
  </g>
  <g transform="translate(491.19 1720.2)">
   <path d="m0 0c14.696 7.424 31.097 11.311 47.562 11.276 4.647-9e-3 9.307-0.311 13.911-0.958 1.335-0.188 2.684 0.326 3.075 1.746 0.321 1.171-0.401 2.886-1.746 3.076-17.318 2.434-35.087 0.792-51.614-4.982-4.692-1.639-9.276-3.6-13.711-5.841-2.873-1.451-0.344-5.766 2.523-4.317" fill="#00fff4"/>
  </g>
  <g clip-path="url(#clipPath135)">
   <g transform="translate(551.68 1533.3)">
    <path d="m0 0 0.776 0.673c42.356 69.218 78.2 117.36 157.14 157.67 67.178 34.316 164.54 40.444 225.22-13.67 71.252-63.563 56.356-161 26.893-235.24-35.678-89.917-82.047-176.83-128.63-262.24-46.791-85.786-95.875-180.28-146.29-264.29-6.097-10.179-12.206-20.323-18.316-30.483-159.99 83.366-304.99 183.69-437.61 303.09-70.273 63.276-139.86 139.05-146.52 230.14-7.384 100.9 73.952 196.62 176.87 220.39 102.84 23.735 222.64-27.198 290.46-106.04m84.069-538.73c4.06 7.02 8.121 14.055 12.164 21.078 33.438 58.107 66.076 123.41 97.144 182.7 30.933 59.046 61.751 119.1 85.58 181.18 19.682 51.259 29.988 118.39-16.251 161.73-39.373 36.895-103.06 32.12-147.18 8.126-51.844-28.195-75.551-61.509-103.65-109.38l-0.528-0.452c-43.885 53.843-121.92 88.232-189.3 71.312-67.432-16.928-121.15-83.262-116.9-152.65 3.85-62.66 48.919-114.4 94.507-157.54 86.04-81.428 180.29-149.65 284.42-206.11" fill="#00fff4"/>
   </g>
   <g transform="translate(738.65 1347.5)">
    <path d="m0 0c4.307 25.093 0.572 52.764-15.715 72.352-21.066 25.322-59.768 31.406-90.46 19.411-30.638-11.971-53.53-39-67.056-68.965l-0.865 0.4c-26.015 25.645-53.008 46.219-88.543 54.677-35.538 8.443-78.056-3.055-95.909-34.915-13.911-24.854-9.81-56.428 2.66-82.032 40.173-82.436 162.67-184.36 220.45-241.59l0.421-0.018c36.831 69.404 72.805 139.25 107.92 209.55 11.363 22.787 22.799 46.019 27.091 71.131m-175.62 92 0.528 0.453c28.096 47.873 51.803 81.187 103.65 109.38 44.117 23.995 107.81 28.77 147.18-8.126 46.24-43.34 35.933-110.47 16.251-161.73-23.829-62.077-54.647-122.14-85.58-181.18-31.068-59.286-63.706-124.59-97.143-182.7-4.043-7.023-8.105-14.058-12.164-21.078-104.12 56.461-198.38 124.68-284.42 206.11-45.588 43.138-90.658 94.874-94.507 157.54-4.251 69.387 49.467 135.72 116.9 152.65 67.382 16.92 145.42-17.469 189.3-71.313" fill="#ffbb95"/>
   </g>
   <g transform="translate(585.14 1188.7)">
    <path d="m0 0 0.3 0.245c20.487 35.281 40.974 70.563 61.478 105.84 6.106 10.536 12.451 22.255 10.203 34.229-4.314 23.041-38.509 28.173-56.905 13.633-18.187-14.362-24.423-38.689-29.43-61.356l-0.519 0.116c-9.73 23.502-32.791 54.765-57.519 48.767-20.933-5.092-27.761-33.918-18.223-53.236 9.487-19.229 76.748-71.027 90.615-88.239m-19.717 181.64c13.527 29.965 36.418 56.993 67.057 68.965 30.691 11.995 69.393 5.911 90.46-19.412 16.287-19.587 20.021-47.258 15.715-72.351-4.292-25.112-15.728-48.344-27.091-71.131-35.117-70.298-71.091-140.15-107.92-209.55l-0.421 0.018c-57.788 57.232-180.28 159.16-220.45 241.59-12.471 25.604-16.571 57.178-2.66 82.032 17.852 31.86 60.371 43.358 95.909 34.915 35.534-8.459 62.527-29.032 88.543-54.677z" fill="#a55aff"/>
   </g>
   <g transform="translate(570.78 1281.3)">
    <path d="m0 0c5.008 22.667 11.243 46.995 29.431 61.356 18.395 14.54 52.59 9.408 56.905-13.632 2.247-11.975-4.098-23.694-10.203-34.229-20.504-35.279-40.991-70.56-61.479-105.84l-0.3-0.245c-13.867 17.212-81.127 69.01-90.615 88.239-9.538 19.318-2.71 48.144 18.224 53.236 24.727 5.998 47.789-25.264 57.518-48.767z" fill="#ffffff"/>
   </g>
  </g>
  <g transform="translate(574.03 1279.9)">
   <path d="m0 0c3.93 17.786 8.201 36.656 19.482 51.423 4.719 6.178 10.742 11.578 17.789 14.297 6.554 2.528 13.309 3.301 20.313 2.428 5.923-0.737 12.443-3.152 16.929-7.085 2.455-2.152 4.086-4.229 5.508-7.185 1.536-3.194 2.233-7.545 2.008-11.441-0.631-10.898-7.099-20.73-12.423-29.895-6.064-10.438-12.127-20.877-18.192-31.316-12.212-21.022-24.423-42.045-36.635-63.067-1.506-2.592-3.011-5.183-4.516-7.775-1.619-2.788 2.7-5.308 4.317-2.524 12.63 21.743 25.26 43.484 37.89 65.226 6.314 10.872 12.63 21.743 18.944 32.613 5.766 9.925 12.683 20.101 14.94 31.544 1.715 8.692 0.217 17.58-5.501 24.48-4.488 5.413-11.132 8.844-17.885 10.481-7.212 1.748-14.881 1.674-22.079-0.107-7.886-1.952-14.661-6.136-20.351-11.889-13.726-13.878-19.487-33.456-23.799-51.969-0.535-2.3-1.051-4.604-1.56-6.91-0.693-3.136 4.127-4.475 4.821-1.329" fill="#000000"/>
  </g>
  <g transform="translate(573.69 1282.1)">
   <path d="m0 0c-4.413 10.626-10.256 20.649-17.508 29.594-6.888 8.498-15.514 16.435-26.037 20.036-9.717 3.325-20.426 1.668-28.395-4.88-7.627-6.267-11.514-16.07-12.629-25.659-1.048-9.012 0.401-19.047 5.052-26.948 3.212-5.456 7.739-10.22 12.104-14.756 12.924-13.428 27.125-25.632 41.105-37.931 6.856-6.031 13.728-12.045 20.485-18.186 4.976-4.524 9.993-9.078 14.516-14.065 0.75-0.827 1.483-1.67 2.178-2.544 0.842-1.057 2.656-0.879 3.535 0 1.045 1.044 0.844 2.475 0 3.535-3.576 4.494-7.878 8.445-12.066 12.352-6.155 5.742-12.471 11.311-18.785 16.875-13.91 12.257-27.993 24.365-41.271 37.314-5.103 4.977-10.154 10.079-14.569 15.687-0.389 0.494 0.321-0.424-0.054 0.07-0.072 0.094-0.144 0.189-0.216 0.284-0.21 0.277-0.417 0.556-0.621 0.837-0.383 0.527-0.757 1.061-1.116 1.605-0.599 0.904-1.16 1.832-1.648 2.8-1.957 3.879-3.236 8.647-3.685 12.91-0.96 9.122 0.708 18.558 5.762 26.225 4.832 7.33 12.914 11.718 21.896 11.148 9.647-0.613 18.423-6.971 25.157-13.782 7.79-7.88 14.002-17.315 18.935-27.205 1.085-2.177 2.129-4.42 3.054-6.645 0.516-1.246 1.657-2.136 3.075-1.746 1.177 0.324 2.267 1.821 1.746 3.075" fill="#000000"/>
  </g>
  <g transform="translate(568.53 1368.9)">
   <path d="m0 0c13.671 30.235 37.258 58.645 69.619 69.436 29.132 9.715 65.222 3.558 84.977-21.359 10.758-13.571 15.358-31.137 15.691-48.223 0.375-19.24-4.803-37.997-11.929-55.719-7.774-19.337-17.673-37.833-27.021-56.438-9.812-19.527-19.691-39.021-29.636-58.48-19.78-38.699-39.826-77.263-60.136-115.69-2.524-4.776-5.052-9.55-7.585-14.321-1.507-2.841 2.807-5.37 4.318-2.524 21.063 39.692 41.849 79.531 62.349 119.52 10.195 19.884 20.319 39.804 30.373 59.759 9.686 19.227 19.809 38.341 28.462 58.063 8.009 18.255 14.511 37.481 15.647 57.525 1.005 17.726-2.129 36.17-11.181 51.627-17.062 29.136-52.9 40.158-84.88 33.913-34.372-6.713-61.482-33.43-77.774-63.271-2.016-3.692-3.879-7.462-5.611-11.294-1.316-2.909 2.992-5.455 4.317-2.524" fill="#000000"/>
  </g>
  <path d="m567.36 1372.5c-16.306 16.044-33.956 31.112-54.263 41.876-19.11 10.13-40.615 16.832-62.405 16.158-19.705-0.61-39.553-6.699-55.03-19.156-7.713-6.208-14.126-14.095-18.448-23.015-5.152-10.631-7.425-22.428-7.301-34.208 0.23-22.029 8.446-42.442 19.362-61.226 9.597-16.513 20.932-31.983 32.885-46.855 13.254-16.489 27.409-32.243 41.978-47.577 15.047-15.837 30.565-31.221 46.301-46.371 14.883-14.33 29.974-28.441 45.084-42.531 13.033-12.152 26.104-24.267 38.921-36.646 2.694-2.601 5.374-5.216 8.035-7.85 2.29-2.266 5.827 1.267 3.536 3.535-11.755 11.635-23.845 22.929-35.933 34.216-14.423 13.466-28.884 26.893-43.198 40.476-15.354 14.57-30.55 29.31-45.386 44.408-14.83 15.092-29.319 30.536-43.098 46.597-12.637 14.729-24.72 29.985-35.47 46.158-10.675 16.061-20.629 33.189-25.225 52.076-5.282 21.705-3.499 45.722 10.376 63.976 11.512 15.144 29.532 24.026 47.938 27.44 20.41 3.786 40.879 0.391 60.024-7.184 20.674-8.18 38.94-21.321 55.376-36.115 4.228-3.807 8.351-7.728 12.406-11.718 2.296-2.258 5.834 1.275 3.535 3.536" fill="#000000"/>
  <g transform="translate(566.75 1438.8)">
   <path d="m0 0c13.199 22.48 27.067 44.818 44.788 64.071 17.884 19.43 39.657 35.569 63.363 47.213 46.121 22.655 108.79 23.619 145.23-17.186 36.021-40.337 28.333-99.356 11.477-146.31-11.588-32.285-26.006-63.684-40.841-94.581-15.088-31.42-31.146-62.359-47.315-93.232-31.685-60.497-62.14-121.69-96.172-180.92-4.3-7.484-8.617-14.958-12.933-22.432-1.613-2.792 2.707-5.312 4.317-2.524 17.629 30.524 34.83 61.247 51.331 92.398 16.421 31 32.413 62.224 48.591 93.351 16.415 31.583 33.068 63.041 48.786 94.981 15.785 32.077 30.715 64.603 43.817 97.876 9.803 24.893 17.553 50.646 19.277 77.487 1.663 25.907-2.788 52.645-17.076 74.718-14.773 22.824-37.955 38.387-64.446 44.137-25.916 5.626-53.467 2.776-78.393-5.87-25.555-8.864-49.433-24.33-69.384-42.469-19.19-17.447-34.453-38.512-48.077-60.458-3.636-5.857-7.169-11.777-10.659-17.723-1.633-2.78 2.686-5.299 4.317-2.523" fill="#000000"/>
  </g>
  <g transform="translate(565.94 1441.2)">
   <path d="m0 0c-18.85 23.071-42.965 41.862-69.584 55.169-26.501 13.248-55.95 21.352-85.691 21.34-28.747-0.011-56.806-8.313-81.076-23.694-23.936-15.171-44.034-36.608-57.334-61.657-13.39-25.22-19.57-53.941-16.146-82.39 3.799-31.569 17.854-60.674 36.185-86.324 19-26.588 42.198-49.777 66.039-71.992 25.812-24.053 52.552-47.108 80.168-69.067 27.394-21.783 55.633-42.503 84.65-62.074 29.211-19.703 59.202-38.246 89.86-55.612 7.484-4.239 15.008-8.406 22.568-12.508 2.829-1.535 5.356 2.781 2.524 4.317-30.377 16.483-60.149 34.072-89.196 52.799-28.86 18.606-57.003 38.319-84.34 59.095-27.363 20.796-53.901 42.678-79.575 65.526-24.59 21.885-49.006 44.337-70.485 69.342-20.266 23.594-38.22 50.139-47.604 80.046-8.759 27.916-8.984 57.375 0.472 85.131 8.971 26.33 25.686 49.815 46.794 67.818 21.33 18.194 47.497 30.726 75.31 34.77 28.573 4.154 58.001-0.548 84.869-10.657 27.555-10.368 53.04-26.7 73.965-47.406 4.969-4.916 9.669-10.095 14.091-15.507 2.037-2.493 5.557 1.062 3.536 3.535" fill="#000000"/>
  </g>
  <g transform="translate(555.64 1532.7)">
   <path d="m0 0c19.819 32.366 40.676 64.431 67.061 91.908 27.301 28.43 60.384 51.521 96.061 68.23 35.048 16.416 74.619 24.415 113.29 22.374 39.333-2.076 77.971-15.671 106.64-43.308 28.179-27.165 43.262-63.779 45.621-102.58 2.278-37.491-5.764-75.072-18.138-110.29-7.89-22.453-17.446-44.377-27.085-66.122-10.441-23.557-21.463-46.854-32.879-69.954-22.996-46.533-47.585-92.258-72.422-137.83-24.209-44.421-47.99-89.072-72.167-133.51-24.211-44.501-48.81-88.811-74.835-132.28-6.604-11.033-13.24-22.049-19.874-33.064-1.664-2.764 2.659-5.281 4.318-2.524 26.988 44.818 53.297 89.965 78.537 135.79 25.047 45.478 49.443 91.31 74.158 136.97 25.117 46.403 50.543 92.634 74.448 139.68 23.764 46.768 46.158 94.277 65.628 143.01 14.154 35.419 24.506 72.92 25.596 111.24 1.081 37.977-8.059 76.275-31.299 106.88-24.319 32.031-59.853 52.377-99.179 59.693-38.77 7.213-79.539 3.038-116.8-9.44-37.592-12.587-73.097-34.338-102.98-60.246-28.596-24.794-51.527-54.987-72.024-86.623-5.454-8.418-10.755-16.932-15.992-25.485-1.685-2.752 2.637-5.267 4.317-2.524" fill="#000000"/>
  </g>
  <g transform="translate(554.62 1534.9)">
   <path d="m0 0c-29.067 33.711-65.68 60.863-105.65 80.292-40.193 19.534-84.498 31.679-129.32 32.463-43.366 0.759-86.075-10.166-123.56-32.055-36.281-21.187-67.31-51.895-87.876-88.613-20.419-36.455-29.623-78.32-24.115-119.88 6.213-46.882 28.912-89.627 57.269-126.83 30.178-39.59 66.608-73.794 103.81-106.66 39.277-34.695 79.851-67.917 121.61-99.577 42.051-31.877 85.318-62.147 129.67-90.742 44.67-28.802 90.433-55.902 137.12-81.3 11.524-6.27 23.106-12.431 34.739-18.497 2.85-1.487 5.381 2.827 2.524 4.317-46.284 24.135-91.728 49.874-136.16 77.278-44.01 27.148-87.026 55.909-128.91 86.241-41.858 30.314-82.57 62.203-122.05 95.559-38.075 32.17-75.938 65.177-109.59 102.03-31.802 34.826-60.588 74.208-75.802 119.29-13.776 40.824-14.555 84.229-0.074 124.95 13.876 39.026 39.944 73.196 72.222 98.891 33.474 26.646 74.304 44.208 116.88 49.069 43.776 5 88.328-2.323 129.46-17.588 41.504-15.404 80.255-39.117 112.52-69.466 7.64-7.189 14.898-14.772 21.749-22.717 2.105-2.442 5.629 1.108 3.536 3.535" fill="#000000"/>
  </g>
 </g>
</svg>
