<?xml version="1.0" encoding="UTF-8"?>
<svg version="1.1" viewBox="0 0 678 1543.6" xmlns="http://www.w3.org/2000/svg">
 <defs>
  <clipPath id="clipPath2610">
   <path d="m906.27 1566.5h164.36v-133.32h-164.36z"/>
  </clipPath>
  <clipPath id="clipPath2614">
   <path d="m909.15 1555.5h187.48v-123.49h-187.48z"/>
  </clipPath>
  <clipPath id="clipPath2618">
   <path d="m1015 1491.3h90.59v-147.93h-90.59z"/>
  </clipPath>
  <clipPath id="clipPath2622">
   <path d="m1020.3 1463h85.4v-126.48h-85.4z"/>
  </clipPath>
  <clipPath id="clipPath2626">
   <path d="m995.97 1633.5h121.47v-42.7h-121.47z"/>
  </clipPath>
  <clipPath id="clipPath2630">
   <path d="m992.12 1623.4h117.41v-36.84h-117.41z"/>
  </clipPath>
  <clipPath id="clipPath2634">
   <path d="m994.37 1589h132.89v-26.25h-132.89z"/>
  </clipPath>
  <clipPath id="clipPath2678">
   <path d="m848.77 1304h153.88v-158.71h-153.88z"/>
  </clipPath>
  <clipPath id="clipPath2682">
   <path d="m957.34 1208.9h147.39v-160.99h-147.39z"/>
  </clipPath>
  <clipPath id="clipPath2686">
   <path d="m1017.2 1231.7h28.58v-55.63h-28.58z"/>
  </clipPath>
  <clipPath id="clipPath2690">
   <path d="m1038.5 1202.5h37.75v-78.62h-37.75z"/>
  </clipPath>
  <clipPath id="clipPath2694">
   <path d="m982.36 1168h30.624v-31.71h-30.624z"/>
  </clipPath>
  <clipPath id="clipPath2698">
   <path d="m973.23 1123.6h56.096v-47.89h-56.096z"/>
  </clipPath>
  <clipPath id="clipPath2702">
   <path d="m927.97 1960.8h83.207v-103.93h-83.207z"/>
  </clipPath>
  <clipPath id="clipPath2706">
   <path d="m928.52 1969.3h111.22v-176.83h-111.22z"/>
  </clipPath>
  <clipPath id="clipPath2710">
   <path d="m982.81 1957.6h56.052v-198.92h-56.052z"/>
  </clipPath>
  <clipPath id="clipPath2714">
   <path d="m1036 1961.6h63.64v-203.84h-63.64z"/>
  </clipPath>
  <clipPath id="clipPath2718">
   <path d="m1044.2 1965.6h58.07v-136.36h-58.07z"/>
  </clipPath>
  <clipPath id="clipPath2746">
   <path d="m758.27 1123h159.5v-169.26h-159.5z"/>
  </clipPath>
  <clipPath id="clipPath2750">
   <path d="m618.76 1006.6h45.612v-45.133h-45.612z"/>
  </clipPath>
  <clipPath id="clipPath2754">
   <path d="m913.16 917.56h103.67v-105.9h-103.67z"/>
  </clipPath>
 </defs>
 <g transform="matrix(1.3333 0 0 -1.3333 -825.01 2625.8)">
  <g opacity=".39999">
   <g clip-path="url(#clipPath2610)" opacity=".51">
    <g transform="translate(906.55 1433.4)">
     <path d="m0 0c8.737 8.837 15.152 19.598 22.432 29.59 7.386 10.14 15.579 19.799 23.876 29.201 17.055 19.329 36.027 37.958 58.547 50.845 18.148 10.384 38.573 15.233 59.225 15.246-14.471 7.778-32.09 9.843-48.403 6.837-21.166-3.899-40.287-15.476-56.447-29.691-30.143-26.514-51.346-63.003-59.513-102.3 0.094 0.093 0.19 0.183 0.283 0.277" fill="#5a319b"/>
    </g>
   </g>
   <g clip-path="url(#clipPath2614)" opacity=".51">
    <g transform="translate(1082.3 1550.1)">
     <path d="m0 0c-2.116 1.923-4.366 3.667-6.725 5.241-12.562 0.505-25.177-0.75-37.301-4.138-12.622-3.528-24.288-9.389-35.108-16.731-21.32-14.47-39.349-33.512-55.852-53.147-7.924-9.428-15.426-19.079-22.438-29.202-4.845-6.994-9.8-14.053-15.732-20.16 24.999 5.387 47.906 20.092 63.131 40.649-2.635-10.786 12.128-19.051 22.496-15.077 10.367 3.975 16.334 14.61 21.454 24.462-1.435-6.099 5.962-11.299 12.137-10.241 6.175 1.059 10.869 5.972 14.994 10.688 4.125 4.717 8.563 9.768 14.641 11.29-5.564-4.241-2.243-14.264 4.351-16.604 6.595-2.339 13.937 0.89 19.326 5.354 19.759 16.366 19.897 50.845 0.626 67.616" fill="#5a319b"/>
    </g>
   </g>
   <g clip-path="url(#clipPath2618)" opacity=".51">
    <g transform="translate(1035.7 1392.3)">
     <path d="m0 0c7.521 14.539 16.323 28.362 27.289 40.56 9.926 11.041 21.429 20.647 34.041 28.479 2.79 1.732 5.641 3.363 8.529 4.922-0.589 8.651-2.613 17.179-6.16 25.112-30.247-10.526-56.131-33.057-70.717-61.57-13.484-26.357-17.166-57.553-10.407-86.361 2.715 17.128 9.501 33.54 17.425 48.858" fill="#5a319b"/>
    </g>
   </g>
   <g clip-path="url(#clipPath2622)" opacity=".51">
    <g transform="translate(1094.3 1456.1)">
     <path d="m0 0c-12.218-8.132-23.212-18.022-32.664-29.247-10.567-12.549-18.997-26.774-26.154-41.499-7.412-15.248-13.685-31.796-15.146-48.829 8.312 14.871 16.622 29.743 24.934 44.615l8.432-17.423c8.685 17.772 17.369 35.544 26.054 53.316l1.818-13.34c16.21 14.962 24.735 37.325 24.141 59.304-3.893-2.146-7.71-4.431-11.415-6.897" fill="#5a319b"/>
    </g>
   </g>
   <g clip-path="url(#clipPath2626)" opacity=".51">
    <g transform="translate(1057.5 1614)">
     <path d="m0 0c9.079-2.646 18.156-5.349 27.092-8.451 10.69-3.712 21.491-8.218 30.902-14.635 0.647-0.038 1.292-0.072 1.938-0.112-2.481 3.96-4.256 8.664-3.778 12.552-30.93 28.305-78.398 38.251-117.69 23.096 10.214-0.685 20.358-2.297 30.366-4.423 10.499-2.229 20.869-5.026 31.171-8.027" fill="#5a319b"/>
    </g>
   </g>
   <g clip-path="url(#clipPath2630)" opacity=".51">
    <g transform="translate(1032.2 1589.8)">
     <path d="m0 0c25.764 1.842 51.534 2.715 77.344 1.372-1.717 1.029-3.463 2.009-5.242 2.929-7.733 4-15.904 7.064-24.154 9.805-9.029 3.001-18.159 5.716-27.308 8.326-18.305 5.22-37.019 9.791-56.053 11.159 15.676-6.706 31.351-13.412 47.027-20.117-13.843-2.506-27.685-5.012-41.529-7.517-4.216-0.763-9.319-2.366-10.065-6.586-0.17-0.962-0.077-1.829 0.19-2.621 13.259 1.139 26.516 2.301 39.79 3.25" fill="#5a319b"/>
    </g>
   </g>
   <g clip-path="url(#clipPath2634)" opacity=".51">
    <g transform="translate(1114.4 1588.1)">
     <path d="m0 0c-16.237 0.924-32.515 1.166-48.766 0.644-23.795-0.765-47.516-2.841-71.228-4.881 2.704-2.233 7.351-3.288 11.135-3.375 18.442-0.422 36.885-0.844 55.329-1.265-6.214-2.691-12.428-5.382-18.641-8.073 22.932-2.675 45.863-5.351 68.795-8.027 4.81-0.561 10.349-0.887 13.781 2.527 3.411 3.393 2.924 8.103 0.889 12.699-3.386 3.686-7.205 6.902-11.294 9.751" fill="#5a319b"/>
    </g>
   </g>
   <g clip-path="url(#clipPath2678)" opacity=".51">
    <g transform="translate(934.04 1225.2)">
     <path d="m0 0c-0.415-0.625-1.312-0.978-1.994-0.523-1.388 0.927-2.735 1.891-3.743 3.238-1.003 1.342-1.509 3.01-1.913 4.614-0.149 0.591 0.087 1.362 0.67 1.646 0.662 0.321 1.347 0.522 2.078 0.311 0.249-0.072 0.454-0.196 0.642-0.341 1.174 1.17 3.047 1.617 4.686 0.829 1.344-0.646 1.986-2.154 1.974-3.582-0.017-2.233-1.2-4.384-2.4-6.192m65.385 29.696-39.299-12.639c10.906 3.095 14.011 17.419 11.8 28.538-2.211 11.118-7.695 21.948-6.285 33.197-18.029-13.514-29.763-35.096-31.304-57.575-2.589 9.907-2.704 20.507-6.829 29.878-7.22 16.404-27.397 25.844-44.616 20.875 5.756-20.601 15.147-40.177 27.586-57.577-18.225 11.138-40.994 14.652-61.709 9.396 10.035-19.667 31.532-32.931 53.611-33.076-14.922-0.298-29.14-10.611-34.055-24.704-0.8-2.295-1.331-4.979-0.045-7.041 1.771-2.84 5.845-2.903 9.146-2.352 20.106 3.355 36.912 16.658 52.738 29.505 0.563-13.007 1.172-26.249 5.603-38.491 4.431-12.241 13.362-23.551 25.753-27.543 7.064 24.363 4.961 51.268-5.8 74.238 10.057-8.572 26.269-8.778 36.542-0.465 10.271 8.314 13.449 24.213 7.163 35.836" fill="#5a319b"/>
    </g>
   </g>
   <g clip-path="url(#clipPath2682)" opacity=".51">
    <g transform="translate(959.18 1204)">
     <path d="m0 0c12.893-4.567 25.414-10.907 36.161-19.428 10.368-8.219 19.411-18.671 23.976-31.245 2.644-7.285 3.448-14.801 3.635-22.509 0.214-8.787-7e-3 -17.735 2.336-26.29 2.121-7.741 6.178-14.821 10.972-21.203 4.775-6.356 10.132-12.386 15.972-17.784 5.833-5.392 12.339-10.128 19.678-13.245 7.734-3.284 16.235-4.776 24.627-4.242 2.136 0.136 4.265 0.411 6.373 0.778 1.332 0.232 2.08 1.863 1.747 3.075-0.387 1.406-1.742 1.979-3.076 1.746-8.003-1.393-16.307-0.717-24.014 1.821-7.351 2.421-13.95 6.707-19.756 11.767-5.884 5.129-11.234 10.976-16.068 17.096-4.758 6.022-8.949 12.731-11.221 20.106-2.54 8.241-2.369 16.9-2.548 25.43-0.166 7.946-0.821 15.86-3.365 23.437-4.312 12.841-12.787 23.853-23.025 32.573-10.719 9.131-23.171 16.004-36.242 21.138-1.6 0.628-3.212 1.227-4.832 1.801-1.273 0.45-2.736-0.511-3.076-1.746-0.38-1.383 0.469-2.623 1.746-3.076" fill="#5a319b"/>
    </g>
   </g>
   <g clip-path="url(#clipPath2686)" opacity=".51">
    <g transform="translate(1045.2 1200.2)">
     <path d="m0 0c-2.669 11.684-12.897 20.227-16.956 31.503-1.881-17.697-20.162-38.62-5.166-54.236l0.054-0.043c2.148-1.081 4.534-1.483 6.911-1.328 0.554 2.128 0.459 4.678 0.395 6.309-0.186 4.808-1.138 9.578-2.298 14.237-0.454 1.823 2.358 2.593 2.811 0.774 1.311-5.267 2.389-10.729 2.43-16.174 0.01-1.451-0.068-3.078-0.355-4.653 3.087 0.816 5.975 2.539 8.08 4.942 4.359 4.975 5.567 12.221 4.094 18.669" fill="#5a319b"/>
    </g>
   </g>
   <g clip-path="url(#clipPath2690)" opacity=".51">
    <g transform="translate(1067.3 1173.2)">
     <path d="m0 0c-3.143 9.418-3.52 19.742-1.069 29.364-14.553-19.565-35.338-45.369-24.864-70.914-0.019-1.386 0.737-2.766 1.851-3.918 0.065-0.121 0.117-0.242 0.185-0.363l-0.067 0.248c0.915-0.915 2.047-1.679 3.182-2.171 1.683-0.732 3.443-1.176 5.227-1.379 0.763 2.903 1.291 5.885 1.911 8.799 0.639 3.004 1.535 5.951 2.24 8.942 1.008 4.274 1.949 8.561 3.147 12.788 0.512 1.804 3.322 1.033 2.811-0.774-1.528-5.389-2.624-10.882-4.006-16.307-1.147-4.498-2.027-9.071-3.177-13.569 10.054 0.339 20.061 8.032 21.412 18.217 1.431 10.786-5.339 20.717-8.783 31.037" fill="#5a319b"/>
    </g>
   </g>
   <g clip-path="url(#clipPath2694)" opacity=".51">
    <g transform="translate(1005 1138.3)">
     <path d="m0 0c-3.8 2.3-7.368 5.298-9.626 9.176-0.947 1.625 1.572 3.091 2.517 1.47 2.058-3.534 5.348-6.209 8.824-8.276 1.26-0.749 2.574-1.438 3.927-2.039 0.925 0.734 1.703 1.641 2.261 2.721l-0.036 0.289c1.79 10.418-14.99 20.455-23.902 25.467-1.017 0.571-2.181 1.122-3.31 0.825-1.243-0.326-2.008-1.57-2.455-2.775-2.464-6.637 1.002-14.014 5.387-19.572 3.042-3.857 6.784-7.46 11.507-8.81 2.369-0.678 5.015-0.621 7.35 0.153-0.835 0.434-1.652 0.892-2.444 1.371" fill="#5a319b"/>
    </g>
   </g>
   <g clip-path="url(#clipPath2698)" opacity=".51">
    <g transform="translate(1021.2 1085)">
     <path d="m0 0c-10.637 2.194-20.302 9.045-26.801 17.624-1.133 1.496 1.399 2.946 2.517 1.47 6.046-7.98 15.202-14.25 25.059-16.284 1.838-0.379 1.056-3.188-0.775-2.81m7.679 1.891 0.143-0.125c-9.118 16.389-24.27 27.851-41.818 34.471-4.357 1.644-12.998 4.583-13.89 0.013-0.38-1.949 2.652-6.711 3.672-8.414 7.455-12.433 17.526-23.291 29.362-31.661 4.309-3.047 9.292-5.875 14.539-5.3 5.245 0.575 10.093 6.175 7.992 11.016" fill="#5a319b"/>
    </g>
   </g>
   <g clip-path="url(#clipPath2702)" opacity=".51">
    <g transform="translate(948.52 1889.1)">
     <path d="m0 0c8.787 11.625 18.148 22.842 27.489 34.023 9.703 11.616 19.809 22.921 30.699 33.443 1.476 1.427 2.969 2.847 4.477 4.257-45.546-16.913-78.979-58.826-83.212-103.92 5.662 11.423 12.872 22.048 20.547 32.202" fill="#5a319b"/>
    </g>
   </g>
   <g clip-path="url(#clipPath2706)" opacity=".51">
    <g transform="translate(1038 1968.1)">
     <path d="m0 0c-4.19 1.003-8.506 1.444-12.756 1.172-1.53-1.265-3.044-2.547-4.543-3.836-0.249-0.213-0.492-0.435-0.74-0.649l2.173-1.516c-1.427 0.028-2.885-0.084-4.268-0.325-4.62-4.091-9.104-8.333-13.46-12.704-10.466-10.507-20.225-21.693-29.646-33.138-9.14-11.104-18.431-22.116-26.916-33.736-7.351-10.067-14.169-20.663-19.318-32.041 17.615 13.321 34.498 27.465 50.554 42.368 1.357-17.552-5.913-34.635-7.888-52.137-1.88-16.674 1.205-33.789 8.74-49.039-0.452 15.346 2.18 30.638 6.069 45.44 3.938 14.992 9.046 29.67 14.052 44.33 4.264 12.487 8.619 24.955 13.789 37.102 5.109 12.003 11.049 23.723 18.559 34.417 2.205 3.141 4.562 6.162 7.041 9.073 0.098 0.86 0.204 1.719 0.305 2.579-0.577 0.884-1.156 1.765-1.747 2.64" fill="#5a319b"/>
    </g>
   </g>
   <g clip-path="url(#clipPath2710)" opacity=".51">
    <g transform="translate(1034.6 1805.1)">
     <path d="m0 0c0.348 29.856-0.077 59.718 0.588 89.571 0.469 20.992 1.511 41.99 3.693 62.871-2.511-3.191-4.879-6.497-7.079-9.911-7-10.86-12.572-22.587-17.41-34.548-4.846-11.979-8.99-24.224-13.16-36.45-5.061-14.838-10.149-29.745-13.786-45.009-3.483-14.617-5.438-29.633-4.287-44.644 13.672 24.402 29.417 47.815 47.044 69.953-13.104-28.072-14.511-60.636-3.871-89.581 1.223-3.326 3.781-7.033 6.819-8.724 0.852 15.477 1.268 30.974 1.449 46.472" fill="#5a319b"/>
    </g>
   </g>
   <g clip-path="url(#clipPath2714)" opacity=".51">
    <g transform="translate(1098.6 1826.3)">
     <path d="m0 0c-3.892 15.149-9.567 29.761-15.574 44.178-3.017 7.239-6.121 14.44-9.146 21.675-2.938 7.03-5.677 14.144-8.518 21.213-5.664 14.092-11.602 28.119-19.068 41.368-1.311 2.329-2.691 4.619-4.1 6.891-1.068-9.493-1.893-19.014-2.514-28.548-1.934-29.7-1.993-59.477-2.021-89.227-0.028-28.691-0.053-57.402-1.663-86.056 1.028-0.077 2.079 0.112 3.125 0.662 2.659 1.397 3.548 4.479 4.185 7.24 7.86 34.073 14.491 68.388 19.876 102.87 2.719-20.032 16.76-38.461 36.269-47.603 0.066 0.342 0.122 0.685 0.186 1.027-0.335 1.44-0.669 2.88-1.037 4.312" fill="#5a319b"/>
    </g>
   </g>
   <g clip-path="url(#clipPath2718)" opacity=".51">
    <g transform="translate(1051.5 1951.3)">
     <path d="m0 0c7.167-13.524 12.933-27.729 18.597-41.93 5.777-14.485 11.965-28.789 17.862-43.224 4.936-12.082 9.492-24.349 12.888-36.953 5.025 36.565-3.285 74.628-23.461 106.46-6.441 10.16-14.264 19.896-24.875 26.428-2.141 1.318-4.414 2.482-6.774 3.478-0.521-0.554-1.015-1.134-1.524-1.7 2.573-4.096 5.017-8.273 7.287-12.555" fill="#5a319b"/>
    </g>
   </g>
   <g clip-path="url(#clipPath2746)" opacity=".51">
    <g transform="translate(842.57 1033.7)">
     <path d="m0 0c-0.347-0.396-0.776-0.724-1.171-1.069-0.801-0.7-1.575-1.425-2.328-2.176-0.477-0.475-1.184-0.524-1.766-0.227-0.802 0.408-1.655 0.94-2.128 1.737-0.587 0.422-1.136 0.904-1.482 1.519-0.518 0.921-0.365 1.932 0.295 2.723 0.376 0.45 0.893 0.803 1.376 1.13-0.453-0.306-0.062-0.047 0.05 0.054 0.025 0.022 0.075 0.077 0.124 0.129 0.017 0.034 0.043 0.077 0.065 0.113 0.079 0.606 0.5 1.068 1.069 1.23 0.095 0.315 0.269 0.59 0.561 0.816 0.108 0.083 0.227 0.152 0.348 0.211-1e-3 0.191-2e-3 0.382-2e-3 0.572 0 1.663 2.413 1.957 2.862 0.387 4e-3 -0.012 8e-3 -0.025 0.012-0.038 0.063 0.019 0.126 0.042 0.19 0.058 0.7 0.182 1.66-0.232 1.793-1.017 0.164-0.974 0.374-1.935 0.611-2.893 0.123-0.499 0.272-1.032 0.253-1.548-0.023-0.669-0.296-1.214-0.732-1.711m23.554-6.036c17.954-3.336 37.249 1.374 51.647 12.607-13.37 19.184-43.843 23.332-61.854 8.42 7.775 6.054 11.598 16.769 9.412 26.378-4.016 17.652-25.707 30.093-22.724 47.949-15.656-19.537-20.902-46.957-13.563-70.894l-2.351-4.176c-14.371 21.42-42.072 32.994-67.41 28.164-4.254-11.887 5.578-24.63 16.995-30.018s24.482-6.222 36.217-10.88c-24.814-10.987-35.621-45.473-21.518-68.657 18.452 14.772 34.068 33.075 45.75 53.622 2.444-30.075 24.587-57.596 53.444-66.419 6.986 26.47-2.821 56.611-24.045 73.904" fill="#5a319b"/>
    </g>
   </g>
   <g clip-path="url(#clipPath2750)" opacity=".51">
    <g transform="translate(638.26 987.74)">
     <path d="m0 0c-2.298 6.263-1.087 13.689 3.084 18.897 2.595-4.787 3.569-10.434 2.728-15.814 5.885 2.783 13.139 2.452 18.747-0.853 0.864-0.509 1.803-1.385 1.49-2.338-0.25-0.76-1.153-1.05-1.935-1.225-4.236-0.948-8.524-1.669-12.838-2.16 2.605-6.367 4.208-13.143 4.737-20.002 0.049-0.64 0.08-1.321-0.233-1.881-1.01-1.813-3.801-0.446-5.128 1.15-3.638 4.373-6.158 9.671-7.255 15.253-3.793-6.713-11.255-11.193-18.963-11.382 3.628 5.195 7.565 10.175 11.783 14.906-5.971 1.363-11.516 4.534-15.718 8.989 7.072 0.894 14.442-0.791 20.423-4.67" fill="#5a319b"/>
    </g>
   </g>
   <g clip-path="url(#clipPath2754)" opacity=".51">
    <g transform="translate(974.7 856.95)">
     <path d="m0 0c-0.509-0.506-1.071-1.066-1.72-1.396 0.091-0.517 0.148-1.04 0.152-1.562 8e-3 -1.096-1.247-1.828-2.193-1.259-0.841 0.507-1.743 1.06-2.406 1.795-0.466 0.517-0.844 1.141-0.821 1.862 0.018 0.611 0.31 1.196 0.775 1.589 0.245 0.207 0.506 0.375 0.771 0.545-0.02 0.151-0.036 0.302-0.037 0.454-9e-3 0.582 0.372 1.111 0.895 1.331 0.527 0.223 1.184 0.12 1.592-0.3 0.298-0.308 0.496-0.672 0.646-1.059 0.194 0.098 0.388 0.193 0.58 0.289 0.659 0.329 1.42 0.22 1.879-0.375 0.439-0.567 0.404-1.4-0.113-1.914m39.264 20.035c-11.861 9.526-31.754 6.211-39.885-6.646 3.642 16.225-0.217 33.976-10.264 47.226-5.172-2.36-6.906-8.771-7.576-14.417-1.432-12.059-0.763-24.363 1.948-36.201-11.352 7.755-25.513 11.364-39.185 9.823-2.449-0.276-5.42-1.218-5.802-3.654-0.241-1.536 0.72-2.981 1.683-4.202 9.07-11.493 22.855-19.148 37.406-20.769-6.088-6.87-9.808-15.799-10.397-24.961-0.141-2.199-0.059-4.569 1.225-6.36 2.057-2.868 6.498-3.029 9.58-1.31 3.081 1.72 5.123 4.794 7.045 7.754 3.73 5.747 7.461 11.494 11.192 17.241 4.191-9.578 10.721-18.12 18.864-24.675 3.014-2.428 6.682-4.692 10.5-4.056 7.043 1.172 8.828 10.63 7.415 17.628-2.602 12.884-10.515 24.611-21.489 31.845 9.421-1.839 19.579 0.481 27.266 6.23 1.711 1.28 3.442 3.03 3.331 5.162-0.094 1.785-1.464 3.223-2.857 4.342" fill="#5a319b"/>
    </g>
   </g>
  </g>
 </g>
</svg>
