<?xml version="1.0" encoding="UTF-8"?>
<svg version="1.1" viewBox="0 0 404.34 384.46" xmlns="http://www.w3.org/2000/svg">
 <defs>
  <clipPath id="clipPath2670">
   <path d="m366.89 1989.4h172.89v-257.51h-172.89z"/>
  </clipPath>
  <clipPath id="clipPath2674">
   <path d="m568.37 1962.3h101.78v-261.23h-101.78z"/>
  </clipPath>
 </defs>
 <g transform="matrix(1.3333 0 0 -1.3333 -489.19 2652.6)">
  <g opacity=".39999">
   <g clip-path="url(#clipPath2670)" opacity=".51">
    <g transform="translate(484.95 1880.5)">
     <path d="m0 0c-4.933 9.741-13.723 16.201-22.398 22.398-1.515 1.082-0.058 3.609 1.47 2.517 9.071-6.479 18.286-13.257 23.445-23.444 0.845-1.671-1.669-3.145-2.517-1.471m-11.461-20.375c-4.505 6.73-10.018 12.475-16.326 17.533-0.617 0.495-0.51 1.551 0 2.061 0.6 0.599 1.447 0.491 2.06 0 6.506-5.217 12.138-11.184 16.783-18.123 1.047-1.564-1.479-3.021-2.517-1.471m-21.73-18.752c-1.876 6.923-3.245 13.966-4.2 21.074-3.295 24.517-1.597 49.274-1.587 73.915 1e-3 1.878 2.915 1.875 2.915 0-3e-3 -6.87-0.136-13.738-0.26-20.607-0.445-24.678-0.565-49.596 5.941-73.608 0.492-1.815-2.32-2.583-2.809-0.774m-11.409 25.12c-6.316-14.048-6.135-30.062-4.894-45.107 0.154-1.873-2.761-1.856-2.914 0-1.289 15.63-1.258 32.01 5.292 46.577 0.769 1.71 3.28 0.226 2.516-1.47m-34.234-11.113c-0.561-1.786-3.373-1.019-2.811 0.775 1.467 4.678 3.089 9.308 4.878 13.873 6.378 16.272 14.757 31.942 26.059 45.346 1.211 1.436 3.263-0.635 2.061-2.061-3.109-3.687-5.981-7.562-8.647-11.58-9.45-14.244-16.435-30.072-21.54-46.353m128.72 64.38c-18.115 42.089-63.386 70.803-109.14 69.616-16.786-3.255-31.51-16.019-40.175-31.178-10.371-18.142-13.759-39.317-16.969-59.966-2.162-13.918-3.773-29.884 5.539-40.45 6.536 10.559 13.07 21.118 19.605 31.678-0.645-19.747-1.288-39.495-1.932-59.242-0.283-8.676 1.491-20.052 10.05-21.498 0.039 11.897 4.457 23.73 12.224 32.743 0.396-32.102 11.747-63.969 31.734-89.092 1.432 9.866 2.862 19.733 4.294 29.6 0.571-21.369 14.554-41.801 34.266-50.07 3.325 15.861 4.463 32.179 3.374 48.349 3.974-6.48 9.945-13.892 17.384-12.331 9.165 1.923 9.966 14.622 8.329 23.842-3.298 18.564-7.624 36.945-12.953 55.031 4.109-5.456 9.149-11.421 15.974-11.653 8.975-0.304 15.12 10.287 13.743 19.161s-7.704 16.053-13.76 22.683c9.37-2.831 19.431 4.888 22.217 14.27 2.786 9.383 0.06 19.517-3.809 28.507" fill="#5a319b"/>
    </g>
   </g>
   <g clip-path="url(#clipPath2674)" opacity=".51">
    <g transform="translate(646.12 1868.6)">
     <path d="m0 0c-0.734-0.43-1.521-0.105-1.993 0.522-3.631 4.824-7.829 9.184-11.461 14.008-0.476 0.633-0.096 1.632 0.523 1.994 0.735 0.43 1.521 0.104 1.993-0.523 3.63-4.823 7.83-9.183 11.461-14.007 0.476-0.633 0.096-1.632-0.523-1.994m-17.473-78.966c-0.02 9.313-1.232 18.662-3.768 27.628-0.513 1.81 2.301 2.576 2.81 0.774 2.603-9.2 3.851-18.846 3.872-28.402 4e-3 -1.878-2.91-1.875-2.914 0m-22.338 115.92c-2.863-1.725-5.631-3.627-8.14-5.841-2.173-1.917-4.22-4.059-5.545-6.661-0.853-1.674-3.365-0.197-2.517 1.471 1.429 2.805 3.659 5.184 6.001 7.251 2.693 2.376 5.658 4.444 8.731 6.296 1.612 0.971 3.075-1.55 1.47-2.516m63.581-1.052c1.16 6.375-1.767 12.724-4.829 18.434-6.624 12.355-14.612 24.513-26.297 32.258-11.685 7.744-27.832 10.139-39.68 2.648l5.874 0.342c-6.818-0.198-11.716-6.471-15.172-12.352-15.879-27.022-23.311-58.929-21.004-90.186 5.488 6.393 10.976 12.785 16.463 19.178l-8.544-69.254c-0.783-6.347-1.046-13.989 4.107-17.776 5.677 6.451 11.353 12.902 17.03 19.352-11.552-31.031-12.648-65.808-3.345-97.566-0.859 5.68-0.88 11.496-0.477 17.205 0.587 8.318 2.042 16.567 3.836 24.701 3.657 16.578 8.874 32.741 13.203 49.143 1.827 6.922 3.332 13.825 4.256 20.924 1.092 8.372 2.175 16.745 3.103 25.136 0.634 5.743 1.191 11.502 1.65 17.271-2.56-3.058-5.143-6.098-7.69-9.168-10.211-12.309-20.165-25.586-24.16-41.348-0.461-1.82-3.272-1.044-2.811 0.775 1.153 4.544 2.8 8.942 4.809 13.175 7.046 14.848 18.243 27.169 28.675 39.677 0.438 0.526 0.988 0.581 1.454 0.375 0.818 11.458 1.159 22.949 0.643 34.422-0.764 17.046-3.35 34.691-11.239 50.028-0.857 1.667 1.658 3.14 2.517 1.471 0.897-1.746 1.731-3.523 2.5-5.329 6.866-16.14 8.927-34.014 9.311-51.412 0.407-18.424-1.191-36.843-3.337-55.126-0.971-8.277-2.062-16.541-3.141-24.804-0.916-7.021-2.927-13.974-4.791-20.788-4.535-16.563-9.737-32.969-13.118-49.826-1.61-8.028-2.828-16.176-2.989-24.375-0.137-6.953 0.503-13.988 2.89-20.56 7.867 23.457 15.733 46.914 23.6 70.371 1.871-6.273 6.209-11.775 11.874-15.058 12.534 26.251 15.561 56.92 8.4 85.114 4.766-2.573 9.532-5.146 14.299-7.719 1.981-1.07 4.244-2.172 6.393-1.499 3.447 1.08 4.039 5.648 3.866 9.256-0.884 18.512-5.056 36.861-12.262 53.935 5.77-2.948 12.973 2.581 14.133 8.955" fill="#5a319b"/>
    </g>
   </g>
  </g>
 </g>
</svg>
