<?xml version="1.0" encoding="UTF-8"?>
<svg version="1.1" viewBox="0 0 679.31 1615.8" xmlns="http://www.w3.org/2000/svg">
 <defs>
  <clipPath id="clipPath2638">
   <path d="m-87.007 1914.4h200.84v-304.49h-200.84z"/>
  </clipPath>
  <clipPath id="clipPath2642">
   <path d="m-86.921 2026.1h219.37v-402.07h-219.37z"/>
  </clipPath>
  <clipPath id="clipPath2646">
   <path d="m-75.698 1713.3h163.48v-303.89h-163.48z"/>
  </clipPath>
  <clipPath id="clipPath2650">
   <path d="m-75.754 1658.5h159.2v-265.85h-159.2z"/>
  </clipPath>
  <clipPath id="clipPath2654">
   <path d="m52.997 1242.4h156.74v-145h-156.74z"/>
  </clipPath>
  <clipPath id="clipPath2658">
   <path d="m86.542 1399.4h117.83v-148.36h-117.83z"/>
  </clipPath>
  <clipPath id="clipPath2662">
   <path d="m-29.53 1210.9h55.228v-88.91h-55.228z"/>
  </clipPath>
  <clipPath id="clipPath2666">
   <path d="m-33.896 1381.5h86.1v-98.16h-86.1z"/>
  </clipPath>
  <clipPath id="clipPath2722">
   <path d="m13.458 1119.6h17.361v-54.76h-17.361z"/>
  </clipPath>
  <clipPath id="clipPath2726">
   <path d="m11.201 1280.4h39.718v-42.21h-39.718z"/>
  </clipPath>
  <clipPath id="clipPath2730">
   <path d="m61.64 1069.1h69.345v-32.92h-69.345z"/>
  </clipPath>
  <clipPath id="clipPath2734">
   <path d="m27.322 1023.5h66.685v-33.292h-66.685z"/>
  </clipPath>
  <clipPath id="clipPath2738">
   <path d="m176.76 1084h131.8v-142.89h-131.8z"/>
  </clipPath>
  <clipPath id="clipPath2742">
   <path d="m374.66 1060.3h47.819v-45.91h-47.819z"/>
  </clipPath>
  <clipPath id="clipPath2758">
   <path d="m39.286 893.46h89.474v-79.211h-89.474z"/>
  </clipPath>
  <clipPath id="clipPath2762">
   <path d="m-14.132 1345.8h119.26v-58.59h-119.26z"/>
  </clipPath>
  <clipPath id="clipPath2766">
   <path d="m-35.319 1153h148.17v-114.25h-148.17z"/>
  </clipPath>
 </defs>
 <g transform="matrix(1.3333 0 0 -1.3333 116.01 2701.5)">
  <g opacity=".39999">
   <g clip-path="url(#clipPath2638)" opacity=".51">
    <g transform="translate(113.64 1610.1)">
     <path d="m0 0c0.065 0.721 0.116 1.445 0.146 2.171 0.537 13.236-3.864 26.322-8.438 38.556-2.317 6.197-4.833 12.317-7.19 18.499-2.517 6.6-4.872 13.262-7.356 19.875-10.712 28.501-22.419 56.804-38.087 82.989-14.179 23.699-30.363 46.179-48.753 66.793-18.835 21.115-39.769 40.489-62.705 57.085-9.079 6.571-18.504 12.723-28.249 18.308-0.114-9.967 0.508-19.973 1.633-29.845 7.601-66.657 37.635-130.56 84.108-178.94 1.765 13.038 3.53 26.076 5.294 39.115l61.368-85.519c4.947 5.139 1.988 28.95 6.935 34.089 17.043-17.752 36.69-59.205 41.254-83.387 0.014 0.071 0.025 0.143 0.04 0.214" fill="#5a319b"/>
    </g>
   </g>
   <g clip-path="url(#clipPath2642)" opacity=".51">
    <g transform="translate(77.24 1876.4)">
     <path d="m0 0c17.226 1.806 35.094-3.609 48.419-14.674-10.367 36.157-33.071 68.606-63.285 90.972l12.511-8.542c2.456 24.615-8.27 50.159-27.564 65.64-19.294 15.482-46.555 20.419-70.053 12.688-26.011-8.559-45.731-31.32-55.406-56.938-5.775-15.292-8.318-31.516-8.783-47.896 13.322-7.532 26.052-16.136 38.158-25.46 22.679-17.465 43.369-37.499 61.868-59.331 8.852-10.447 17.211-21.321 24.975-32.601 8.189-11.899 16.023-24.158 22.989-36.815 14.858-26.996 26.064-55.804 36.689-84.668 4.666-12.676 10.086-25.126 14.157-38.012 1.706-5.402 3.214-11.044 4.073-16.752 7.85 54.754-0.545 111.78-24.073 161.86 13.436-14.927 26.874-29.853 40.31-44.779 2.619 50.208-18.086 101.16-54.985 135.3" fill="#5a319b"/>
    </g>
   </g>
   <g clip-path="url(#clipPath2646)" opacity=".51">
    <g transform="translate(-51.602 1639.9)">
     <path d="m0 0c23.825-23.402 45.879-48.687 65.191-75.952 9.638-13.606 18.617-27.744 27.039-42.132 8.323-14.216 15.925-28.864 22.495-43.975 9.566-22.003 16.79-44.914 21.238-68.418 2.112 42.666-9.224 85.971-32.268 121.97 11.895-11.191 23.79-22.383 35.686-33.574-2.194 37.874-19.575 74.654-47.442 100.4 13.733-7.23 27.466-14.46 41.199-21.69-17.06 61.327-64.146 113.53-123.4 136.8l1.678-3.212c-14.572-1.009-26.628-13.007-31.684-26.71-2.489-6.746-3.578-13.835-3.832-21.023 8.21-7.298 16.26-14.776 24.097-22.473" fill="#5a319b"/>
    </g>
   </g>
   <g clip-path="url(#clipPath2650)" opacity=".51">
    <g transform="translate(55.226 1488.2)">
     <path d="m0 0c-7.09 14.87-15.128 29.275-23.807 43.273-8.666 13.974-17.675 27.699-27.51 40.883-19.871 26.636-42.364 51.294-66.501 74.112-4.328 4.09-8.728 8.103-13.161 12.077 0.022-6.158 0.578-12.355 1.332-18.443 6.751-54.471 28.26-107.04 61.627-150.62 1.256 13.367 2.511 26.735 3.767 40.101 12.406-27.799 24.814-55.599 37.22-83.398 2.243 11.612 4.486 23.223 6.729 34.835 18.742-27.823 34.812-57.445 47.918-88.326 0.224 1.668 0.42 3.34 0.602 5.013-4.667 31.424-14.557 61.846-28.216 90.495" fill="#5a319b"/>
    </g>
   </g>
   <g clip-path="url(#clipPath2654)" opacity=".51">
    <g transform="translate(138.05 1174.6)">
     <path d="m0 0c-0.465-0.771-1.551-1.107-2.445-0.989-4e-3 -0.026-8e-3 -0.053-0.013-0.079 0.116-0.359 0.223-0.738 0.223-1.107 2e-3 -1.165-1.248-1.957-2.283-1.351-0.66 0.387-1.076 1.22-1.463 1.853-0.473 0.77-0.923 1.554-1.378 2.336-0.281 0.106-0.562 0.212-0.841 0.316-0.953 0.356-1.935 0.7-2.839 1.167-0.472 0.243-0.896 0.593-1.043 1.128-0.043 0.154-0.054 0.301-0.051 0.444-0.242 0.133-0.487 0.263-0.733 0.387-1.317 0.665-0.659 2.728 0.735 2.716 0.064-1e-3 0.126-0.01 0.189-0.012-0.111 0.692 0.398 1.414 1.059 1.595 0.793 0.218 1.537-0.274 1.793-1.018 0.013-0.039 0.025-0.086 0.039-0.133 7e-3 -0.011 6e-3 -8e-3 0.017-0.027 0.03-0.056 0.059-0.111 0.088-0.167 0.229 6e-3 0.462-0.014 0.689-0.074 0.873-0.232 1.716-0.671 2.523-1.069 1.74-0.861 3.608-1.835 5.026-3.186 0.729-0.695 1.296-1.753 0.708-2.73m71.299 1.946c-10.989 21.496-43.197 28.201-61.852 12.877 5.557 10.082 7.944 21.882 6.744 33.331-13.982-2.258-24.867-16.584-23.296-30.66-3.841 14.851-14.086 27.25-25.475 37.527-6.018 5.43-12.736 10.569-20.659 12.283-7.922 1.715-17.287-0.895-21.265-7.958 21.475-14.38 39.32-34.135 51.451-56.955-9.553 13.699-31.661 13.484-44.432 2.721-12.773-10.763-17.492-28.541-17.568-45.243 15.255 12.787 33.071 22.505 52.08 28.407 4.867 1.511 11.832 1.751 13.312-3.125l0.506 3.618c5.376-19.177 10.036-38.555 13.966-58.08 4.566 14.832 10.55 29.226 17.844 42.923l34.19-50.792c6.647 26.222-1.802 55.724-21.322 74.452 14.54 0.628 29.081 1.256 43.622 1.884 1.013 0.044 2.288 0.29 2.514 1.28 0.118 0.515-0.12 1.04-0.36 1.51" fill="#5a319b"/>
    </g>
   </g>
   <g clip-path="url(#clipPath2658)" opacity=".51">
    <g transform="translate(143.86 1330.8)">
     <path d="m0 0c-0.108-1.773-0.128-3.553-0.128-5.329-1e-3 -1.256-1.599-1.932-2.487-1.03-0.809 0.819-1.389 1.817-1.779 2.895-0.154-0.016-0.306-0.051-0.461-0.052-0.181-1e-3 -0.341 0.036-0.492 0.089-0.084 0.028-0.164 0.061-0.239 0.104-0.018 0.011-0.035 0.023-0.053 0.034-0.09 0.059-0.172 0.125-0.244 0.203-4e-3 4e-3 -9e-3 7e-3 -0.012 0.012-0.339 0.366-0.489 0.913-0.366 1.403 0.264 1.053 0.529 2.116 0.892 3.14 0.288 0.814 0.674 1.704 1.708 1.706 0.01 0 0.018-3e-3 0.029-3e-3 0.331 0.243 0.727 0.391 1.159 0.389 0.587-5e-3 1.079-0.281 1.473-0.674 0.021-4e-3 0.043-3e-3 0.063-8e-3 0.824-0.188 1.142-1.044 1.018-1.793-0.019-0.115-0.027-0.267 8e-3 0.019 0 5e-3 0 9e-3 1e-3 0.013 9e-3 0.089 0.02 0.176 0.03 0.264-0.014-0.124-0.023-0.209-0.031-0.277-0.039-0.367-0.066-0.736-0.089-1.105m59.696-29.969c-5.991 18.511-21.58 33.621-40.269 39.031 7.038 4.963 14.075 9.926 21.112 14.89 3.209 2.264 6.836 5.626 5.708 9.388-0.948 3.161-4.718 4.398-7.981 4.882-18.716 2.771-38.602-4.141-51.565-17.922 1.018 17.948-6.43 36.195-19.717 48.304-6.27-18.285-4.687-39.12 4.276-56.247l0.202 6.834c2.763-5.524-0.487-12.032-3.662-17.33-7.594-12.674-15.189-25.347-22.782-38.021-1.992-3.324-3.743-8.192-0.66-10.539 1.175-0.894 2.736-1.066 4.211-1.11 12.381-0.371 24.711 6.556 30.835 17.323-1.426-15.598-2.305-33.055 7.806-45.016 2.237-2.646 5.628-5.055 8.931-4.006 2.358 0.749 3.847 3.026 5.031 5.198 9.938 18.228 11.878 40.641 5.219 60.305 12.769-9.122 26.356-17.099 40.545-23.805 4.327-2.045 10.644-3.397 12.928 0.81 1.152 2.12 0.574 4.735-0.168 7.031" fill="#5a319b"/>
    </g>
   </g>
   <g clip-path="url(#clipPath2662)" opacity=".51">
    <g transform="translate(-29.529 1129.6)">
     <path d="m0 0c12.061 30.708 31.023 58.684 55.08 81.261 2.189-36.767-20.197-73.781-53.776-88.917" fill="#5a319b"/>
    </g>
   </g>
   <g clip-path="url(#clipPath2666)" opacity=".51">
    <g transform="translate(-28.795 1283.3)">
     <path d="m0 0c-4.69 10.325 2.344 22.05 9.854 30.548 12.171 13.774 26.503 25.636 42.31 35.018 13.145 7.802 29.419 17.277 28.818 32.551-14.432 0.516-28.995-4.555-39.985-13.925-12.199-10.4-19.546-25.242-26.565-39.654-6.511-13.369-13.022-26.737-19.533-40.105" fill="#5a319b"/>
    </g>
   </g>
   <g clip-path="url(#clipPath2722)" opacity=".51">
    <g transform="translate(16.25 1066.4)">
     <path d="m0 0c-1.075-1.294-2.709 1.014-2.755 2.695-0.466 17.392 3.379 34.884 11.095 50.477 3.093-8.104 6.228-16.435 6.228-25.109 0-11.66-6.126-23.148-15.807-29.644" fill="#5a319b"/>
    </g>
   </g>
   <g clip-path="url(#clipPath2726)" opacity=".51">
    <g transform="translate(13.267 1241.3)">
     <path d="m0 0c-2.238 4.237-1.01 9.635 1.784 13.528 2.793 3.893 6.9 6.603 10.911 9.224 8.32 5.436 16.638 10.873 24.957 16.309-7.4-8.018-3.219-22.521-10.913-30.258-7.461-7.503-21.721-4.092-28.804-11.952" fill="#5a319b"/>
    </g>
   </g>
   <g clip-path="url(#clipPath2730)" opacity=".51">
    <g transform="translate(62.173 1046.4)">
     <path d="m0 0c0.795 7.931 8.253 13.445 15.551 16.65 16.664 7.32 36.154 7.958 53.261 1.744-3.563 0.578-6.868-2.248-8.535-5.45-1.666-3.202-2.256-6.862-3.776-10.136-4.538-9.776-16.664-14.11-27.373-12.891-10.709 1.218-20.361 6.786-29.661 12.233" fill="#5a319b"/>
    </g>
   </g>
   <g clip-path="url(#clipPath2734)" opacity=".51">
    <g transform="translate(29.932 1016.4)">
     <path d="m0 0c6.391 4.699 14.352 7.221 22.281 7.06 16.452-0.334 30.589-11.586 41.794-23.638-5.235-7.523-15.312-10.474-24.42-9.444-9.107 1.029-17.472 5.388-25.391 10.003-8.447 4.924-17.743 12.272-16.809 22.004" fill="#5a319b"/>
    </g>
   </g>
   <g clip-path="url(#clipPath2738)" opacity=".51">
    <g transform="translate(254.5 1006.9)">
     <path d="m0 0c-0.817-1.219-1.72-2.509-2.972-3.322-0.72-0.468-1.658-0.683-2.487-0.392-0.816 0.285-1.36 0.879-1.858 1.555-0.165 0.223-0.318 0.456-0.471 0.686-0.078 0.116-0.155 0.231-0.235 0.345-0.023 0.032-0.046 0.064-0.069 0.095-0.074 0.087-0.146 0.174-0.227 0.254-0.021 0.021-0.043 0.04-0.065 0.06-5e-3 3e-3 -0.011 6e-3 -0.015 0.01-0.762 0.065-1.318 0.68-1.352 1.444-0.035 0.778 0.694 1.47 1.457 1.457 0.642-0.01 1.233-0.252 1.726-0.638-0.053 0.447 0.073 0.909 0.409 1.242 0.431 0.429 1.045 0.522 1.608 0.355 0.472-0.14 0.897-0.429 1.286-0.754 0.133-0.032 0.266-0.063 0.401-0.088 0.086-0.017 0.172-0.03 0.258-0.044 0.449-0.041 0.896-0.07 1.347-0.073 1.052-4e-3 1.888-1.254 1.259-2.192m15.48-7.582c5.581 3.541 12.378 4.495 18.495 6.998s12.119 7.663 11.968 14.27c-0.072 3.203-1.609 6.286-1.378 9.481 0.186 2.568 2.537 5.174 4.803 5.13-16.1 5.077-34.866 0.768-47.05-10.949 5.453 9.422 1.566 21.492-4.018 30.837s-12.94 18.161-14.664 28.91c-7.62-14.974-10.294-32.414-7.511-48.983l2.938-5.189c-17.131 7.397-37.672 6.37-53.982-2.697-1.131-0.628-2.331-1.403-2.702-2.642-0.532-1.772 0.864-3.503 2.222-4.761 14.535-13.478 35.397-17.058 54.993-20.049-21.837-9.504-35.271-35.221-30.596-58.573 11.397 1.553 21.325 8.993 28.355 18.098 7.028 9.105 11.564 19.842 16.023 30.446 7.578-9.595 15.439-19.242 25.577-26.078 10.137-6.836 23.037-10.578 34.78-7.173 3.096 21.596-16.444 43.522-38.253 42.924" fill="#5a319b"/>
    </g>
   </g>
   <g clip-path="url(#clipPath2742)" opacity=".51">
    <g transform="translate(402.11 1037.7)">
     <path d="m0 0c0-0.395-0.165-0.745-0.427-1.03-0.262-0.286-0.653-0.41-1.03-0.427-0.2-7e-3 -0.388 0.035-0.562 0.125-0.18 0.06-0.336 0.16-0.468 0.302-0.142 0.132-0.242 0.288-0.301 0.469-0.092 0.173-0.134 0.361-0.126 0.561v1.635c0 0.395 0.165 0.746 0.427 1.031 0.262 0.286 0.653 0.41 1.03 0.427 0.201 7e-3 0.388-0.034 0.561-0.126 0.181-0.059 0.337-0.159 0.469-0.301 0.143-0.132 0.243-0.289 0.302-0.469 0.091-0.174 0.133-0.361 0.125-0.562zm20.028-12.971c-1.756 6.354-6.059 11.966-11.74 15.31 3.307 0.879 6.313 2.851 8.437 5.533 0.845 1.069 1.583 2.373 1.394 3.722-0.344 2.446-3.333 3.458-5.8 3.56-4.965 0.206-10.629-1.754-12.382-6.404-1.431 4.228-3.514 8.233-6.153 11.833-0.857 1.17-2.18 2.428-3.548 1.945-1.345-0.474-1.608-2.243-1.549-3.668 0.235-5.522 1.935-10.974 4.879-15.651l-0.412 0.012c-5.809 3.105-13.262 2.871-18.866-0.592-0.703-0.435-1.422-0.975-1.656-1.768-0.373-1.26 0.634-2.502 1.684-3.293 4.288-3.228 10.07-3.389 15.437-3.417-3.821-4.295-5.444-10.45-4.238-16.07 0.092-0.433 0.225-0.9 0.587-1.157 0.43-0.307 1.023-0.202 1.531-0.05 6.852 2.059 10.199 9.601 12.693 16.308 2.682-3.928 6.127-7.332 10.086-9.969 1.615-1.075 3.403-2.049 5.343-2.109s4.037 1.061 4.508 2.944c0.245 0.978 0.034 2.009-0.235 2.981" fill="#5a319b"/>
    </g>
   </g>
   <g clip-path="url(#clipPath2758)" opacity=".51">
    <g transform="translate(86.803 859.24)">
     <path d="m0 0c-0.308-0.357-0.703-0.627-1.141-0.825-0.02-0.025-0.042-0.048-0.062-0.073-0.053-0.065-0.106-0.129-0.158-0.196-0.033-0.042-0.07-0.091-0.081-0.107-0.048-0.064-0.095-0.127-0.141-0.191-0.083-0.114-0.165-0.229-0.246-0.345-0.088-0.126-0.173-0.254-0.26-0.38-0.169-0.244-0.314-0.45-0.577-0.604-0.228-0.133-0.476-0.184-0.735-0.199-0.58-0.033-1.223 0.054-1.786 0.177-0.872 0.19-1.734 0.688-2.162 1.499-0.34 0.645-0.406 1.373-0.349 2.09 0.035 0.438 0.091 0.879 0.07 1.318-0.016 0.077-0.035 0.152-0.059 0.227l-6e-3 0.012c-3e-3 3e-3 -6e-3 7e-3 -9e-3 0.01-0.569 0.582-0.539 1.474 0 2.061 0.528 0.575 1.526 0.546 2.06 0 0.695-0.71 0.966-1.663 0.936-2.639-0.013-0.416-0.077-0.835-0.094-1.252 0.179 0.595 0.775 1.043 1.399 1.047 0.14 1e-3 0.28 0.015 0.42 0.027 0.066 0.013 0.132 0.024 0.198 0.039 0.039 0.04 0.074 0.084 0.114 0.123 0.468 0.457 0.995 0.854 1.674 0.878 0.817 0.031 1.507-0.71 1.504-1.506-2e-3 -0.465-0.214-0.85-0.509-1.191m41.507-22.067c-4.262 13.627-16.514 24.422-30.569 26.933 5 2.328 9.352 6.031 12.45 10.596 0.852 1.256 1.632 2.641 1.712 4.156 0.251 4.742-5.965 6.999-10.678 6.419-9.518-1.172-18.08-8.15-21.148-17.236-5.895 10.934-13.291 23.026-25.479 25.426 0.714-12.684 7.73-24.859 18.347-31.836l-4.109 1.13c-8.334-0.131-16.622-2.496-23.772-6.779-2.538-1.521-5.124-3.562-5.677-6.471-0.62-3.271 1.713-6.555 4.709-8.008s6.481-1.448 9.798-1.145c8.315 0.759 16.473 3.212 23.829 7.165 0.272-9.23 0.544-18.461 0.816-27.692 0.077-2.619 1.436-6.244 3.94-5.468 1.016 0.315 1.639 1.314 2.151 2.249 5.29 9.651 8.527 20.423 9.433 31.392 7.548-8.791 18.336-14.735 29.8-16.418 1.385-0.203 2.974-0.287 4 0.666 1.275 1.185 0.966 3.258 0.447 4.921" fill="#5a319b"/>
    </g>
   </g>
   <g clip-path="url(#clipPath2762)" opacity=".51">
    <g transform="translate(-9.4551 1288.5)">
     <path d="m0 0c9.734 13.625 22.412 25.073 36.729 33.721 14.417 8.71 30.478 14.603 47.125 17.212 9.319 1.461 18.823 1.784 28.225 1.044 1.348-0.106 2.5 1.225 2.5 2.5 0 1.441-1.148 2.394-2.5 2.5-17.327 1.364-34.934-1.018-51.373-6.62-16.558-5.643-31.979-14.451-45.177-25.94-7.455-6.489-14.101-13.852-19.846-21.894-0.786-1.099-0.194-2.782 0.896-3.42 1.257-0.735 2.634-0.205 3.421 0.897" fill="#5a319b"/>
    </g>
   </g>
   <g clip-path="url(#clipPath2766)" opacity=".51">
    <g transform="translate(-32.167 1038.8)">
     <path d="m0 0c25.938 3.98 52.491 7.964 76.549 18.984 11.566 5.298 22.149 12.502 31.291 21.356 8.591 8.322 15.878 17.972 21.974 28.246 7.838 13.206 13.871 27.7 15.197 43.121 0.115 1.347-1.233 2.5-2.5 2.5-1.449 0-2.385-1.149-2.5-2.5-1.128-13.122-6.088-25.611-12.457-37.026-5.699-10.215-12.52-19.821-20.672-28.228-8.55-8.819-18.469-16.087-29.478-21.541-11.146-5.523-23.116-9.237-35.185-12.135-14.358-3.447-28.964-5.717-43.548-7.955-1.336-0.205-2.074-1.883-1.746-3.076 0.392-1.427 1.735-1.952 3.075-1.746" fill="#5a319b"/>
    </g>
   </g>
  </g>
 </g>
</svg>
