<?xml version="1.0" encoding="UTF-8"?>
<svg preserveAspectRatio="none" width="120" height="35" version="1.1" viewBox="0 0 120.35 35.95" xmlns="http://www.w3.org/2000/svg" xmlns:cc="http://creativecommons.org/ns#" xmlns:dc="http://purl.org/dc/elements/1.1/" xmlns:rdf="http://www.w3.org/1999/02/22-rdf-syntax-ns#" xmlns:xlink="http://www.w3.org/1999/xlink">
 <metadata>
  <rdf:RDF>
   <cc:Work rdf:about="">
    <dc:format>image/svg+xml</dc:format>
    <dc:type rdf:resource="http://purl.org/dc/dcmitype/StillImage"/>
   </cc:Work>
  </rdf:RDF>
 </metadata>
 <defs>
  <g id="Layer2_0_MEMBER_0_MEMBER_0_MEMBER_0_MEMBER_0_FILL">
   <path d="m115.45 0.15-1.9-0.15h-106.75l-1.95 0.15q-0.85 0.15-1.65 0.55-0.9 0.4-1.45 0.95-0.65 0.7-1.05 1.3-0.4 0.8-0.55 1.55-0.15 0.9-0.15 1.8v23.4q0 0.95 0.15 1.75t0.55 1.6q0.5 0.75 1.05 1.3t1.45 0.95q0.65 0.3 1.65 0.5l1.95 0.15h106.75l1.9-0.15q0.95-0.15 1.7-0.5 0.65-0.3 1.4-0.95 0.65-0.55 1.05-1.3 0.35-0.6 0.55-1.6 0.2-1.1 0.2-1.75v-23.4q0-0.6-0.2-1.8-0.15-0.9-0.55-1.55-0.85-1.5-2.45-2.25-0.9-0.4-1.7-0.55z" fill="#000000"/>
  </g>
  <g id="Layer2_0_MEMBER_0_MEMBER_0_MEMBER_1_MEMBER_0_MEMBER_0_MEMBER_0_FILL">
   <path d="m26.85 20.05q-0.75-1.1-0.75-2.45 0-1.2 0.6-2.25t1.6-1.65q-1.35-1.95-3.75-2.05-0.9-0.1-2.25 0.4-1.4 0.55-1.65 0.55-0.3 0-1.5-0.45-1.15-0.5-1.9-0.45-2.75 0.1-4.15 2.55-1.3 2.2-0.7 5.4 0.45 2.7 1.95 4.9 1.8 2.65 3.2 2.6 0.6 0 1.6-0.45 0.95-0.4 1.8-0.4 0.8 0 1.75 0.4 0.95 0.45 1.6 0.4 0.95 0 1.75-0.8 0.5-0.45 1.35-1.7 0.9-1.25 1.45-2.9-1.25-0.55-2-1.65z" fill="#ffffff"/>
  </g>
  <g id="Layer2_0_MEMBER_0_MEMBER_0_MEMBER_1_MEMBER_0_MEMBER_0_MEMBER_1_FILL">
   <path d="m20.5 11.4q1.8 0.1 3.05-1.4 1.15-1.45 1.05-3.3-1.8 0.25-3.05 1.55-1.2 1.45-1.05 3.15z" fill="#ffffff"/>
  </g>
  <g id="Layer2_0_MEMBER_0_MEMBER_0_MEMBER_1_MEMBER_1_MEMBER_0_FILL">
   <path d="m42.55 24 1.05 3.15h1.9l-4.2-11.65h-1.95l-4.2 11.65h1.9l1.05-3.15h4.45m-4-1.45 1.75-5.1h0.05l1.75 5.1z" fill="#ffffff"/>
  </g>
  <g id="Layer2_0_MEMBER_0_MEMBER_0_MEMBER_1_MEMBER_1_MEMBER_1_FILL">
   <path d="m48.3 18.65h-1.7v11.3h1.75v-4.2h0.05q0.85 1.6 2.65 1.5 1.6 0 2.6-1.2 0.95-1.15 0.95-3.15t-0.95-3.15q-1-1.2-2.65-1.2-1.7-0.1-2.7 1.5v-1.4m0.05 4.25q0-1.25 0.6-2.05t1.6-0.8 1.65 0.75q0.6 0.8 0.6 2.1t-0.6 2.1q-0.65 0.75-1.65 0.75t-1.6-0.8-0.6-2.05z" fill="#ffffff"/>
  </g>
  <g id="Layer2_0_MEMBER_0_MEMBER_0_MEMBER_1_MEMBER_1_MEMBER_2_FILL">
   <path d="m63.95 22.9q0-2-1-3.15-1-1.2-2.6-1.2-1.8-0.1-2.7 1.5v-1.4h-1.7v11.3h1.75v-4.2h0.05q0.85 1.6 2.65 1.5 1.6 0 2.6-1.2 0.95-1.15 0.95-3.15m-2.4-2.1q0.6 0.8 0.6 2.1t-0.6 2.1q-0.65 0.75-1.65 0.75t-1.6-0.8-0.6-2.05 0.6-2.05 1.6-0.8 1.65 0.75z" fill="#ffffff"/>
  </g>
  <g id="Layer2_0_MEMBER_0_MEMBER_0_MEMBER_1_MEMBER_1_MEMBER_3_FILL">
   <path d="m70.1 23.9h-1.75q0.1 1.6 1.3 2.5 1.2 0.95 3.15 0.95 2.05 0 3.25-0.95 1.2-1 1.2-2.6 0-1.3-0.75-2.05-0.8-0.8-2.6-1.2l-1.3-0.3q-2.1-0.55-2.1-1.7 0-0.75 0.65-1.25t1.7-0.5q2.25 0 2.5 1.9h1.75q-0.05-1.5-1.2-2.45t-3-0.95-3.05 0.95-1.2 2.45q0 2.35 3.15 3.15l1.5 0.35q2.15 0.5 2.15 1.8 0 0.8-0.7 1.3-0.75 0.5-1.85 0.5-1.15 0-1.9-0.5-0.8-0.55-0.9-1.4z" fill="#ffffff"/>
  </g>
  <g id="Layer2_0_MEMBER_0_MEMBER_0_MEMBER_1_MEMBER_1_MEMBER_4_FILL">
   <path d="m81.05 18.65v-2h-1.75v2h-1.25v1.4h1.25v4.85q0 1.25 0.55 1.75 0.55 0.55 1.8 0.55l1-0.1v-1.35h-0.6q-1 0-1-1.05v-4.65h1.6v-1.4z" fill="#ffffff"/>
  </g>
  <g id="Layer2_0_MEMBER_0_MEMBER_0_MEMBER_1_MEMBER_1_MEMBER_5_FILL">
   <path d="m91.65 22.9q0-2-1.1-3.2-1.1-1.15-2.95-1.15t-2.9 1.15q-1.1 1.2-1.1 3.2t1.1 3.15q1.05 1.2 2.9 1.2t2.95-1.2q1.1-1.15 1.1-3.15m-2.4-2.15q0.6 0.75 0.6 2.15t-0.6 2.15-1.65 0.75-1.65-0.75-0.6-2.15 0.6-2.15 1.65-0.75 1.65 0.75z" fill="#ffffff"/>
  </g>
  <g id="Layer2_0_MEMBER_0_MEMBER_0_MEMBER_1_MEMBER_1_MEMBER_6_FILL">
   <path d="m94.8 21.85q0.05-0.75 0.55-1.25 0.55-0.5 1.3-0.45l0.75 0.1v-1.65l-0.6-0.05q-0.7-0.05-1.3 0.4-0.55 0.45-0.7 1.15h-0.05v-1.45h-1.65v8.5h1.7z" fill="#ffffff"/>
  </g>
  <g id="Layer2_0_MEMBER_0_MEMBER_0_MEMBER_1_MEMBER_1_MEMBER_7_FILL">
   <path d="m105.45 24.65h-1.65q-0.5 1.3-1.95 1.2h-0.3q-0.9-0.1-1.5-0.8-0.55-0.7-0.5-1.6v-0.1h6v-0.6q0-1.95-1-3.05-1.05-1.15-2.8-1.15-1.8 0-2.85 1.2-1.1 1.2-1.1 3.2t1.1 3.15q1.05 1.15 2.9 1.15 1.45 0 2.45-0.7 1-0.75 1.2-1.9m-2.15-4q0.55 0.6 0.5 1.45h-4.25q0-0.9 0.65-1.5 0.65-0.65 1.55-0.65h0.15q0.8 0.05 1.4 0.7z" fill="#ffffff"/>
  </g>
  <g id="Layer2_0_MEMBER_0_MEMBER_1_MEMBER_0_MEMBER_0_FILL">
   <path d="m41 9.5v-0.5q-0.05-1-0.85-1.65-0.8-0.7-1.8-0.65h-2.05v5.6h2.05q1.25 0 1.95-0.7 0.7-0.75 0.7-2.1m-2.75-2 0.35 0.05q0.7 0.1 1.15 0.65 0.45 0.6 0.35 1.3v0.4q-0.05 0.7-0.6 1.2t-1.25 0.45h-1.05v-4.05z" fill="#ffffff"/>
  </g>
  <g id="Layer2_0_MEMBER_0_MEMBER_1_MEMBER_0_MEMBER_1_FILL">
   <path d="m43.9 8-0.25 0.05q-0.8 0.1-1.3 0.75-0.5 0.6-0.4 1.4v0.35q0 0.8 0.6 1.35 0.55 0.55 1.35 0.5 1.4 0.15 1.85-1.2h-0.8q-0.35 0.6-1 0.5h-0.15q-0.45-0.05-0.75-0.4t-0.25-0.8v-0.05h3v-0.3q0-2.15-1.9-2.15m-0.75 1.05q0.3-0.35 0.75-0.3h0.1q0.4 0 0.7 0.3 0.3 0.35 0.25 0.75h-2.15q0-0.45 0.35-0.75z" fill="#ffffff"/>
  </g>
  <g id="Layer2_0_MEMBER_0_MEMBER_1_MEMBER_0_MEMBER_2_FILL">
   <path d="m48.45 8.7q0.75 0 0.85 0.5h0.8q-0.15-1.2-1.65-1.2-0.7 0-1.2 0.35-0.45 0.4-0.45 0.95 0 0.95 1.2 1.15l0.7 0.2q0.65 0.15 0.65 0.5 0 0.6-0.9 0.6-0.65 0.1-0.9-0.55h-0.85q0.15 1.2 1.75 1.2 0.75 0 1.25-0.35 0.5-0.4 0.5-0.95 0-0.9-1.2-1.2l-0.7-0.15q-0.65-0.15-0.65-0.5 0-0.55 0.8-0.55z" fill="#ffffff"/>
  </g>
  <g id="Layer2_0_MEMBER_0_MEMBER_1_MEMBER_0_MEMBER_3_FILL">
   <path d="m53.1 8-0.35 0.05q-0.8 0.1-1.25 0.7-0.5 0.65-0.4 1.45v0.3q0 0.85 0.6 1.4t1.4 0.5q0.65 0.1 1.15-0.35 0.55-0.4 0.65-1.1h-0.85q-0.15 0.8-0.95 0.7-1.15 0-1.15-1.45t1.15-1.45q0.8-0.1 0.95 0.75h0.85q-0.05-0.65-0.6-1.1t-1.2-0.4z" fill="#ffffff"/>
  </g>
  <g id="Layer2_0_MEMBER_0_MEMBER_1_MEMBER_0_MEMBER_4_FILL">
   <path d="m57.6 8q-0.7 0-1.2 0.35-0.45 0.3-0.55 0.85h0.85q0.1-0.45 0.85-0.45 0.9 0 0.9 0.7v0.35l-1.15 0.05q-1.6 0.15-1.6 1.3v0.1q0.1 0.55 0.5 0.85 0.4 0.35 0.9 0.3 0.8 0 1.3-0.65h0.05v0.55h0.8v-2.85q0-1.45-1.65-1.45m0.45 3.5q-0.3 0.25-0.7 0.2-0.8 0-0.8-0.6t0.85-0.6l1.05-0.1v0.35l-0.05 0.05q-0.05 0.4-0.35 0.7m1-5.45h-1l-0.95 1.35h0.85z" fill="#ffffff"/>
  </g>
  <g id="Layer2_0_MEMBER_0_MEMBER_1_MEMBER_0_MEMBER_5_FILL">
   <path d="m61.75 9.1q0.3-0.3 0.7-0.25l0.5 0.05v-0.85h-0.4q-0.8-0.1-1.15 0.7h-0.05v-0.65h-0.8v4.2h0.85v-2.55q0.05-0.4 0.35-0.65z" fill="#ffffff"/>
  </g>
  <g id="Layer2_0_MEMBER_0_MEMBER_1_MEMBER_0_MEMBER_6_FILL">
   <path d="m65.3 8.05q-1.75 0-1.75 2.1 0 0.95 0.45 1.5 0.5 0.6 1.3 0.6 0.8 0.1 1.3-0.7h0.05v0.8q0 0.9-1.1 0.9-0.85 0-1-0.5h-0.85q0.15 1.2 1.85 1.2 0.85 0 1.4-0.45t0.55-1.15v-4.25h-0.8v0.65h-0.1q-0.45-0.8-1.3-0.7m-0.9 2.1q0-1.35 1.1-1.35 1.15 0 1.15 1.35 0 1.4-1.15 1.4-1.1 0-1.1-1.4z" fill="#ffffff"/>
  </g>
  <g id="Layer2_0_MEMBER_0_MEMBER_1_MEMBER_0_MEMBER_7_FILL">
   <path d="m71.25 11.75h0.05v0.55h0.8v-2.85q0-1.45-1.65-1.45-0.7 0-1.2 0.35-0.45 0.35-0.5 0.85h0.8q0.15-0.45 0.85-0.45 0.9 0 0.9 0.7v0.35l-1.15 0.05q-1.6 0.15-1.6 1.3v0.1q0.1 0.55 0.5 0.85 0.4 0.35 0.95 0.3 0.75 0 1.25-0.65m0.05-1.35v0.4q-0.2 1-1.1 0.9-0.8 0-0.8-0.6t0.85-0.6z" fill="#ffffff"/>
  </g>
  <g id="Layer2_0_MEMBER_0_MEMBER_1_MEMBER_0_MEMBER_8_FILL">
   <path d="m73.45 6.45v5.85h0.85v-5.85z" fill="#ffffff"/>
  </g>
  <g id="Layer2_0_MEMBER_0_MEMBER_1_MEMBER_0_MEMBER_9_FILL">
   <path d="m75.45 10.2v0.4q0.1 0.8 0.75 1.35 0.6 0.55 1.45 0.45 0.8-0.05 1.35-0.7t0.45-1.5v-0.35q-0.05-0.85-0.7-1.35-0.7-0.55-1.5-0.5-0.85 0.1-1.35 0.75t-0.45 1.45m2-1.45q1.1 0 1.1 1.45t-1.1 1.45q-1.15 0-1.15-1.45t1.15-1.45z" fill="#ffffff"/>
  </g>
  <g id="Layer2_0_MEMBER_0_MEMBER_1_MEMBER_0_MEMBER_10_FILL">
   <path d="m84.6 8-0.3 0.05q-0.8 0.1-1.25 0.75-0.5 0.6-0.4 1.4l-0.05 0.35q0.05 0.8 0.6 1.35 0.6 0.55 1.4 0.5 0.6 0.1 1.15-0.25 0.5-0.35 0.65-0.95h-0.8q-0.35 0.6-1 0.5h-0.1q-0.45-0.05-0.75-0.4t-0.25-0.8v-0.05h2.95v-0.3q0-2.15-1.85-2.15m-0.8 1.05q0.35-0.35 0.75-0.3 0.05-0.05 0.1 0 0.45 0 0.7 0.3 0.3 0.35 0.25 0.75h-2.1q0-0.45 0.3-0.75z" fill="#ffffff"/>
  </g>
  <g id="Layer2_0_MEMBER_0_MEMBER_1_MEMBER_0_MEMBER_11_FILL">
   <path d="m91.15 12.3v-2.7l0.05-0.3q-0.05-0.55-0.5-0.95t-1-0.35q-0.9-0.1-1.25 0.75h-0.05v-0.65h-0.8v4.2h0.8v-2.6q0.05-0.4 0.35-0.65 0.3-0.3 0.65-0.25 0.95 0 0.95 1v2.5z" fill="#ffffff"/>
  </g>
  <g id="Layer2_0_MEMBER_0_MEMBER_1_MEMBER_0_MEMBER_12_FILL">
   <path d="m95.65 11.3q-0.3-0.35-0.25-0.8v-0.05h2.95v-0.3q0-2.15-1.85-2.15l-0.3 0.05q-0.8 0.1-1.25 0.75-0.5 0.6-0.4 1.4l-0.05 0.35q0.05 0.8 0.65 1.35 0.55 0.55 1.35 0.5 0.6 0.1 1.15-0.25 0.5-0.35 0.65-0.95h-0.8q-0.35 0.6-1 0.5h-0.1q-0.45-0.05-0.75-0.4m-0.25-1.5q0-0.45 0.35-0.75 0.3-0.35 0.75-0.3h0.1q0.4 0 0.7 0.3 0.25 0.35 0.2 0.75z" fill="#ffffff"/>
  </g>
  <g id="Layer2_0_MEMBER_0_MEMBER_1_MEMBER_0_MEMBER_13_FILL">
   <path d="m99.55 6.45v5.85h0.8v-5.85z" fill="#ffffff"/>
  </g>
 </defs>
 <use width="100%" height="100%" xlink:href="#Layer2_0_MEMBER_0_MEMBER_0_MEMBER_0_MEMBER_0_FILL"/>
 <use width="100%" height="100%" xlink:href="#Layer2_0_MEMBER_0_MEMBER_0_MEMBER_1_MEMBER_0_MEMBER_0_MEMBER_0_FILL"/>
 <use width="100%" height="100%" xlink:href="#Layer2_0_MEMBER_0_MEMBER_0_MEMBER_1_MEMBER_0_MEMBER_0_MEMBER_1_FILL"/>
 <use width="100%" height="100%" xlink:href="#Layer2_0_MEMBER_0_MEMBER_0_MEMBER_1_MEMBER_1_MEMBER_0_FILL"/>
 <use width="100%" height="100%" xlink:href="#Layer2_0_MEMBER_0_MEMBER_0_MEMBER_1_MEMBER_1_MEMBER_1_FILL"/>
 <use width="100%" height="100%" xlink:href="#Layer2_0_MEMBER_0_MEMBER_0_MEMBER_1_MEMBER_1_MEMBER_2_FILL"/>
 <use width="100%" height="100%" xlink:href="#Layer2_0_MEMBER_0_MEMBER_0_MEMBER_1_MEMBER_1_MEMBER_3_FILL"/>
 <use width="100%" height="100%" xlink:href="#Layer2_0_MEMBER_0_MEMBER_0_MEMBER_1_MEMBER_1_MEMBER_4_FILL"/>
 <use width="100%" height="100%" xlink:href="#Layer2_0_MEMBER_0_MEMBER_0_MEMBER_1_MEMBER_1_MEMBER_5_FILL"/>
 <use width="100%" height="100%" xlink:href="#Layer2_0_MEMBER_0_MEMBER_0_MEMBER_1_MEMBER_1_MEMBER_6_FILL"/>
 <use width="100%" height="100%" xlink:href="#Layer2_0_MEMBER_0_MEMBER_0_MEMBER_1_MEMBER_1_MEMBER_7_FILL"/>
 <use width="100%" height="100%" xlink:href="#Layer2_0_MEMBER_0_MEMBER_1_MEMBER_0_MEMBER_0_FILL"/>
 <use width="100%" height="100%" xlink:href="#Layer2_0_MEMBER_0_MEMBER_1_MEMBER_0_MEMBER_1_FILL"/>
 <use width="100%" height="100%" xlink:href="#Layer2_0_MEMBER_0_MEMBER_1_MEMBER_0_MEMBER_2_FILL"/>
 <use width="100%" height="100%" xlink:href="#Layer2_0_MEMBER_0_MEMBER_1_MEMBER_0_MEMBER_3_FILL"/>
 <use width="100%" height="100%" xlink:href="#Layer2_0_MEMBER_0_MEMBER_1_MEMBER_0_MEMBER_4_FILL"/>
 <use width="100%" height="100%" xlink:href="#Layer2_0_MEMBER_0_MEMBER_1_MEMBER_0_MEMBER_5_FILL"/>
 <use width="100%" height="100%" xlink:href="#Layer2_0_MEMBER_0_MEMBER_1_MEMBER_0_MEMBER_6_FILL"/>
 <use width="100%" height="100%" xlink:href="#Layer2_0_MEMBER_0_MEMBER_1_MEMBER_0_MEMBER_7_FILL"/>
 <use width="100%" height="100%" xlink:href="#Layer2_0_MEMBER_0_MEMBER_1_MEMBER_0_MEMBER_8_FILL"/>
 <use width="100%" height="100%" xlink:href="#Layer2_0_MEMBER_0_MEMBER_1_MEMBER_0_MEMBER_9_FILL"/>
 <use width="100%" height="100%" xlink:href="#Layer2_0_MEMBER_0_MEMBER_1_MEMBER_0_MEMBER_10_FILL"/>
 <use width="100%" height="100%" xlink:href="#Layer2_0_MEMBER_0_MEMBER_1_MEMBER_0_MEMBER_11_FILL"/>
 <use width="100%" height="100%" xlink:href="#Layer2_0_MEMBER_0_MEMBER_1_MEMBER_0_MEMBER_12_FILL"/>
 <use width="100%" height="100%" xlink:href="#Layer2_0_MEMBER_0_MEMBER_1_MEMBER_0_MEMBER_13_FILL"/>
</svg>
